<svg width="146" height="36" viewBox="0 0 146 36" fill="none" xmlns="http://www.w3.org/2000/svg">
<g clip-path="url(#clip0_474_238)">
<path d="M0 10C0 4.47715 4.47715 0 10 0H26C31.5228 0 36 4.47715 36 10V26C36 31.5228 31.5228 36 26 36H10C4.47715 36 0 31.5228 0 26V10Z" fill="white"/>
<path d="M13.6156 9.77921C15.1503 8.24452 15.9176 7.47717 16.8025 7.18967C17.5808 6.93678 18.4192 6.93678 19.1975 7.18967C20.0824 7.47718 20.8497 8.24452 22.3844 9.77921L26.2208 13.6156C27.7555 15.1503 28.5228 15.9176 28.8103 16.8025C29.0632 17.5808 29.0632 18.4192 28.8103 19.1975C28.5228 20.0824 27.7555 20.8497 26.2208 22.3844L22.3844 26.2208C20.8497 27.7555 20.0824 28.5228 19.1975 28.8103C18.4192 29.0632 17.5808 29.0632 16.8025 28.8103C15.9176 28.5228 15.1503 27.7555 13.6156 26.2208L12.8943 25.4122C12.4578 24.9228 12.2396 24.6782 12.084 24.3999C11.946 24.1531 11.8447 23.8875 11.7834 23.6114C11.7143 23.3002 11.7143 22.9723 11.7143 22.3166L11.7143 13.6834C11.7143 13.0277 11.7143 12.6998 11.7834 12.3886C11.8447 12.1125 11.946 11.8469 12.084 11.6001C12.2396 11.3218 12.4578 11.0772 12.8943 10.5878L13.6156 9.77921Z" fill="url(#paint0_radial_474_238)"/>
<path d="M13.6156 9.77921C15.1503 8.24452 15.9176 7.47717 16.8025 7.18967C17.5808 6.93678 18.4192 6.93678 19.1975 7.18967C20.0824 7.47718 20.8497 8.24452 22.3844 9.77921L26.2208 13.6156C27.7555 15.1503 28.5228 15.9176 28.8103 16.8025C29.0632 17.5808 29.0632 18.4192 28.8103 19.1975C28.5228 20.0824 27.7555 20.8497 26.2208 22.3844L22.3844 26.2208C20.8497 27.7555 20.0824 28.5228 19.1975 28.8103C18.4192 29.0632 17.5808 29.0632 16.8025 28.8103C15.9176 28.5228 15.1503 27.7555 13.6156 26.2208L12.8943 25.4122C12.4578 24.9228 12.2396 24.6782 12.084 24.3999C11.946 24.1531 11.8447 23.8875 11.7834 23.6114C11.7143 23.3002 11.7143 22.9723 11.7143 22.3166L11.7143 13.6834C11.7143 13.0277 11.7143 12.6998 11.7834 12.3886C11.8447 12.1125 11.946 11.8469 12.084 11.6001C12.2396 11.3218 12.4578 11.0772 12.8943 10.5878L13.6156 9.77921Z" fill="url(#paint1_linear_474_238)"/>
<path d="M13.3416 10.053C14.1089 9.28568 14.4926 8.90201 14.935 8.75826C15.3242 8.63181 15.7434 8.63181 16.1325 8.75826C16.575 8.90201 16.9586 9.28568 17.726 10.053L23.4805 15.8076C24.2479 16.5749 24.6315 16.9586 24.7753 17.401C24.9017 17.7902 24.9017 18.2094 24.7753 18.5986C24.6315 19.041 24.2479 19.4247 23.4805 20.192L17.726 25.9465C16.9586 26.7139 16.575 27.0976 16.1325 27.2413C15.7434 27.3678 15.3242 27.3678 14.935 27.2413C14.4926 27.0976 14.1089 26.7139 13.3416 25.9465L9.77921 22.3842C8.24452 20.8495 7.47718 20.0822 7.18967 19.1973C6.93678 18.419 6.93678 17.5806 7.18967 16.8022C7.47718 15.9174 8.24452 15.1501 9.77921 13.6154L13.3416 10.053Z" fill="url(#paint2_radial_474_238)"/>
</g>
<path d="M46 21.2591V24.9241H48.5591V21.4192C48.5591 21.079 48.6927 20.7503 48.9344 20.5101C49.1732 20.27 49.5002 20.1327 49.8386 20.1327H52.463C53.6857 20.1327 54.86 19.6439 55.7244 18.7719C56.5888 17.9029 57.075 16.7222 57.075 15.4929C57.075 14.2636 56.5888 13.0829 55.7244 12.211C54.86 11.3419 53.6857 10.853 52.4602 10.853H46V15.4329H48.5591V13.2744H52.2896C52.8697 13.2744 53.4241 13.506 53.8336 13.9177C54.243 14.3293 54.4733 14.8868 54.4733 15.47C54.4733 16.0532 54.243 16.6107 53.8336 17.0224C53.4241 17.434 52.8697 17.6656 52.2896 17.6656H49.5798C49.1107 17.6656 48.6444 17.7571 48.2122 17.94C47.7771 18.1201 47.3847 18.386 47.0521 18.7205C46.7194 19.055 46.4578 19.4523 46.2758 19.8869C46.0938 20.3186 46 20.7874 46 21.2591Z" fill="#1B1340"/>
<path d="M57.4703 24.9241V19.3408C57.4703 17.0624 58.7925 15.2499 61.4397 15.2499C61.8633 15.2442 62.287 15.2899 62.7022 15.39V17.6856C62.4008 17.6656 62.142 17.6656 62.0197 17.6656C60.6179 17.6656 60.0151 18.3117 60.0151 19.621V24.9241H57.4703Z" fill="#1B1340"/>
<path d="M63.4641 20.19C63.4641 17.3883 65.5682 15.2528 68.4969 15.2528C71.4256 15.2528 73.5297 17.3883 73.5297 20.19C73.5297 22.9916 71.4256 25.1471 68.4969 25.1471C65.5682 25.1471 63.4641 22.9887 63.4641 20.19ZM71.0218 20.19C71.0218 18.5976 69.9584 17.4684 68.4969 17.4684C67.0325 17.4684 65.972 18.5947 65.972 20.19C65.972 21.8023 67.0354 22.9116 68.4969 22.9116C69.9612 22.9116 71.0218 21.7995 71.0218 20.19Z" fill="#1B1340"/>
<path d="M81.6676 20.19C81.6676 17.3883 83.7717 15.2528 86.7004 15.2528C89.6263 15.2528 91.7304 17.3883 91.7304 20.19C91.7304 22.9916 89.6263 25.1471 86.7004 25.1471C83.7717 25.1471 81.6676 22.9887 81.6676 20.19ZM89.2225 20.19C89.2225 18.5976 88.1591 17.4684 86.6976 17.4684C85.2361 17.4684 84.1726 18.5947 84.1726 20.19C84.1726 21.8023 85.2361 22.9116 86.6976 22.9116C88.1591 22.9116 89.2225 21.7995 89.2225 20.19Z" fill="#1B1340"/>
<path d="M93.0526 24.9242V19.5439C93.0526 17.0453 94.6364 15.2499 97.4627 15.2499C100.269 15.2499 101.853 17.0424 101.853 19.5439V24.9242H99.328V19.744C99.328 18.3546 98.7053 17.4855 97.4627 17.4855C96.2202 17.4855 95.5975 18.3517 95.5975 19.744V24.9242H93.0526Z" fill="#1B1340"/>
<path d="M80.9056 17.4882H78.1588V21.016C78.1588 22.2453 78.5996 22.8085 79.862 22.8085C79.9815 22.8085 80.2829 22.8085 80.6639 22.7885V24.864C80.1435 25.0041 79.6829 25.087 79.1796 25.087C77.0556 25.087 75.6112 23.7976 75.6112 21.3591V17.4882H73.9051V15.4528H74.3316C74.4994 15.4528 74.6671 15.4185 74.8207 15.3556C74.9771 15.2898 75.1164 15.1955 75.2358 15.0754C75.3553 14.9553 75.4491 14.8152 75.5145 14.658C75.5799 14.5008 75.6112 14.335 75.6112 14.1663V12.248H78.156V15.4528H80.9027V17.4882H80.9056Z" fill="#1B1340"/>
<path d="M123.02 15.65C120.16 15.65 118.04 17.75 118.04 20.55C118.04 23.51 120.08 25.47 122.54 25.47C123.9 25.47 124.98 24.87 125.58 23.85L125.74 25.25H127.98V20.57C127.98 17.53 125.86 15.65 123.02 15.65ZM123.02 23.25C121.6 23.25 120.54 22.15 120.54 20.55C120.54 18.95 121.62 17.85 123.02 17.85C124.4 17.85 125.48 18.91 125.48 20.55C125.48 22.39 124.24 23.25 123.02 23.25Z" fill="#6D4AFF"/>
<path d="M132.887 25.47C134.807 25.47 136.447 24.37 136.447 22.69C136.447 19.09 131.587 19.93 131.587 18.47C131.587 17.99 132.007 17.63 132.667 17.63C133.347 17.63 133.787 18.01 133.887 18.57H136.267C136.127 16.73 134.727 15.63 132.667 15.65C130.547 15.65 129.247 16.91 129.247 18.47C129.247 22.11 134.047 21.17 134.047 22.69C134.047 23.15 133.607 23.49 132.887 23.49C132.187 23.49 131.547 23.15 131.427 22.43H129.007C129.147 24.21 130.707 25.47 132.887 25.47Z" fill="#6D4AFF"/>
<path d="M141.296 25.47C143.216 25.47 144.856 24.37 144.856 22.69C144.856 19.09 139.996 19.93 139.996 18.47C139.996 17.99 140.416 17.63 141.076 17.63C141.756 17.63 142.196 18.01 142.296 18.57H144.676C144.536 16.73 143.136 15.63 141.076 15.65C138.956 15.65 137.656 16.91 137.656 18.47C137.656 22.11 142.456 21.17 142.456 22.69C142.456 23.15 142.016 23.49 141.296 23.49C140.596 23.49 139.956 23.15 139.836 22.43H137.416C137.556 24.21 139.116 25.47 141.296 25.47Z" fill="#6D4AFF"/>
<path d="M113.472 11H106.9V25.2505H109.503V21.703C109.503 21.3584 109.639 21.0254 109.885 20.7822C110.128 20.5389 110.461 20.3999 110.805 20.3999H113.472C114.716 20.3999 115.908 19.9047 116.784 19.0273C117.664 18.1469 118.155 16.9539 118.155 15.7115C118.158 15.0947 118.04 14.4808 117.805 13.9103C117.571 13.3398 117.227 12.8186 116.79 12.3813C116.353 11.944 115.838 11.5965 115.268 11.3591C114.701 11.1216 114.091 11 113.472 11ZM115.523 15.6739C115.523 15.9664 115.465 16.256 115.352 16.5253C115.24 16.7946 115.078 17.0407 114.869 17.2463C114.664 17.4519 114.418 17.617 114.149 17.727C113.88 17.84 113.591 17.895 113.299 17.895H109.492V13.4557H113.299C113.591 13.4557 113.88 13.5136 114.152 13.6265C114.421 13.7395 114.667 13.9045 114.872 14.1101C115.078 14.3186 115.242 14.5648 115.352 14.8341C115.462 15.1063 115.52 15.3959 115.517 15.6884L115.523 15.6739Z" fill="#6D4AFF"/>
<defs>
<radialGradient id="paint0_radial_474_238" cx="0" cy="0" r="1" gradientUnits="userSpaceOnUse" gradientTransform="translate(13.6396 29.4288) rotate(-58.142) scale(18.3646 28.7185)">
<stop stop-color="#FFD580"/>
<stop offset="0.09375" stop-color="#F6C592"/>
<stop offset="0.205" stop-color="#EBB6A2"/>
<stop offset="0.324466" stop-color="#DFA5AF"/>
<stop offset="0.42875" stop-color="#D397BE"/>
<stop offset="0.53375" stop-color="#C486CB"/>
<stop offset="0.64875" stop-color="#B578D9"/>
<stop offset="0.77125" stop-color="#A166E5"/>
<stop offset="0.89125" stop-color="#8B57F2"/>
<stop offset="1" stop-color="#704CFF"/>
</radialGradient>
<linearGradient id="paint1_linear_474_238" x1="12.8819" y1="2.63167" x2="17.1602" y2="28.7474" gradientUnits="userSpaceOnUse">
<stop stop-color="#6D4AFF"/>
<stop offset="0.392009" stop-color="#B39FFB" stop-opacity="0.978022"/>
<stop offset="1" stop-color="#FFE8DB" stop-opacity="0.8"/>
</linearGradient>
<radialGradient id="paint2_radial_474_238" cx="0" cy="0" r="1" gradientUnits="userSpaceOnUse" gradientTransform="translate(12.0264 27.1925) rotate(-58.142) scale(14.7715 23.0997)">
<stop stop-color="#FFD580"/>
<stop offset="0.09375" stop-color="#F6C592"/>
<stop offset="0.205" stop-color="#EBB6A2"/>
<stop offset="0.324466" stop-color="#DFA5AF"/>
<stop offset="0.42875" stop-color="#D397BE"/>
<stop offset="0.53375" stop-color="#C486CB"/>
<stop offset="0.64875" stop-color="#B578D9"/>
<stop offset="0.77125" stop-color="#A166E5"/>
<stop offset="0.89125" stop-color="#8B57F2"/>
<stop offset="1" stop-color="#704CFF"/>
</radialGradient>
<clipPath id="clip0_474_238">
<rect width="36" height="36" fill="white"/>
</clipPath>
</defs>
</svg>
