<svg width="2239" height="2064" viewBox="0 0 2239 2064" fill="none" xmlns="http://www.w3.org/2000/svg">
<rect width="2238" height="2064" transform="translate(0.726562)" fill="white"/>
<path fill-rule="evenodd" clip-rule="evenodd" d="M1309.5 772.047H660.453V1318.95C660.453 1370.98 702.948 1413.12 755.414 1413.12H1240.86H1077.27V1369.25C1077.27 1346.88 1085.31 1325.19 1099.93 1308.19L1267.2 1113.51V1113.61C1267.1 1113.7 1267 1113.89 1266.81 1113.99C1286.17 1092.01 1314.63 1078.18 1346.28 1078.18H1383.26V845.293C1383.35 804.878 1350.35 772.047 1309.5 772.047Z" fill="url(#paint0_radial_11864_192496)"/>
<path fill-rule="evenodd" clip-rule="evenodd" d="M1267.29 1113.61C1250.83 1132.04 1240.87 1156.33 1240.87 1182.82L1240.86 1413.12H1077.27V1369.25C1077.27 1346.88 1085.31 1325.19 1099.93 1308.19L1267.2 1113.51L1267.29 1113.61Z" fill="#B8D7FF"/>
<path d="M1333.31 1293.5H1366.7C1368.06 1299.26 1371.45 1304.35 1376.29 1307.9C1381.03 1311.46 1386.94 1313.28 1392.94 1312.99C1408.04 1312.99 1418.01 1304.74 1418.01 1292.64C1418.01 1280.54 1407.65 1273.82 1387.13 1273.82H1373.87V1246.56H1385.39C1405.23 1246.56 1413.36 1239.27 1413.36 1228.42C1413.36 1217.57 1404.55 1210.08 1392.36 1210.08C1386.94 1209.79 1381.52 1211.52 1377.45 1215.07C1373.29 1218.63 1370.77 1223.62 1370.29 1228.99H1338.05C1339.21 1209.99 1354.31 1182.72 1392.16 1182.72C1422.56 1182.72 1443.56 1199.91 1443.56 1224.1C1443.56 1231.87 1441.14 1239.46 1436.5 1245.7C1431.85 1251.94 1425.37 1256.64 1417.91 1258.95V1259.43C1426.62 1260.96 1434.46 1265.57 1439.98 1272.39C1445.5 1279.2 1448.4 1287.74 1448.11 1296.58C1448.11 1322.78 1423.91 1340.06 1392.65 1340.06C1359.45 1340.26 1335.73 1321.54 1333.31 1293.5Z" fill="#8F69FF"/>
<path d="M1506.48 1185.33H1530.78V1337.87H1499.42V1220.85L1469.22 1241.2V1210.38L1506.48 1185.33Z" fill="#8F69FF"/>
<path fill-rule="evenodd" clip-rule="evenodd" d="M755.414 659.545H1483.64C1536.11 659.545 1578.6 701.687 1578.6 753.718V1078.19H1383.35V845.3C1383.35 804.789 1350.25 772.047 1309.5 772.047H660.453V753.718C660.453 701.687 702.948 659.545 755.414 659.545Z" fill="url(#paint1_linear_11864_192496)"/>
<defs>
<radialGradient id="paint0_radial_11864_192496" cx="0" cy="0" r="1" gradientUnits="userSpaceOnUse" gradientTransform="translate(1543.49 30.867) scale(1874.62 1592.06)">
<stop offset="0.5563" stop-color="#6D4AFF"/>
<stop offset="0.9944" stop-color="#06B8FF"/>
</radialGradient>
<linearGradient id="paint1_linear_11864_192496" x1="1431.78" y1="1174.65" x2="863.953" y2="385.008" gradientUnits="userSpaceOnUse">
<stop stop-color="#BFE8FF"/>
<stop offset="0.3075" stop-color="#BFABFF"/>
<stop offset="1" stop-color="#7341FF"/>
</linearGradient>
</defs>
</svg>
