<svg width="874" height="512" viewBox="0 0 874 512" fill="none" xmlns="http://www.w3.org/2000/svg">
<path d="M116.487 397.698V322.116H161.53V331.675H126.941V355.461H159.973V365.02H126.941V397.698H116.487Z" fill="white"/>
<path d="M191.616 398.81C176.268 398.81 164.702 386.917 164.702 371.689C164.702 356.461 176.268 344.568 191.616 344.568C206.964 344.568 218.531 356.461 218.531 371.689C218.531 386.917 206.964 398.81 191.616 398.81ZM191.616 389.473C201.181 389.473 208.299 382.026 208.299 371.689C208.299 361.352 201.181 353.905 191.616 353.905C182.052 353.905 174.934 361.352 174.934 371.689C174.934 382.026 182.052 389.473 191.616 389.473Z" fill="white"/>
<path d="M250.667 398.81C236.987 398.81 228.535 389.473 228.535 376.469V345.68H238.767V375.691C238.767 384.138 242.659 389.251 250.667 389.251C258.675 389.251 262.567 384.138 262.567 375.691V345.68H272.799V376.469C272.799 389.473 264.347 398.81 250.667 398.81Z" fill="white"/>
<path d="M286.099 366.91C286.099 353.905 294.774 344.568 308.676 344.568C322.578 344.568 331.253 353.905 331.253 366.91V397.698H321.021V367.688C321.021 359.129 316.906 353.905 308.676 353.905C300.446 353.905 296.331 359.129 296.331 367.688V397.698H286.099V366.91Z" fill="white"/>
<path d="M385.124 397.698L384.234 389.807C380.452 395.698 373.779 398.81 366.328 398.81C353.204 398.81 341.304 388.917 341.304 371.689C341.304 354.461 353.204 344.568 366.328 344.568C373.557 344.568 380.119 347.458 383.9 353.016V322.116H394.132V397.698H385.124ZM367.774 389.473C376.449 389.473 384.234 382.693 384.234 371.689C384.234 360.685 376.449 353.905 367.774 353.905C358.987 353.905 351.536 360.352 351.536 371.689C351.536 383.026 358.987 389.473 367.774 389.473Z" fill="white"/>
<path d="M431.065 398.81C417.83 398.81 405.819 388.917 405.819 371.689C405.819 354.461 417.83 344.568 431.065 344.568C438.183 344.568 445.301 347.68 449.194 353.683L450.084 345.68H459.092V397.698H450.084L449.194 389.696C445.301 395.698 438.183 398.81 431.065 398.81ZM432.734 389.473C441.186 389.473 449.194 382.693 449.194 371.689C449.194 360.685 441.186 353.905 432.734 353.905C424.059 353.905 416.051 360.352 416.051 371.689C416.051 383.026 424.059 389.473 432.734 389.473Z" fill="white"/>
<path d="M495.136 398.365C485.015 398.365 477.229 392.03 477.229 380.915L477.118 354.35H467.887V345.68H477.118V328.229H487.462V345.68H502.587V354.35H487.462V379.692C487.462 387.028 490.909 389.14 497.916 389.14L501.809 389.029V397.587C499.473 398.143 497.249 398.365 495.136 398.365Z" fill="white"/>
<path d="M512.23 397.698V345.68H522.462V397.698H512.23ZM517.346 335.676C513.676 335.676 510.673 332.786 510.673 329.118C510.673 325.339 513.676 322.449 517.346 322.449C521.016 322.449 524.019 325.339 524.019 329.118C524.019 332.786 521.016 335.676 517.346 335.676Z" fill="white"/>
<path d="M559.483 398.81C544.135 398.81 532.568 386.917 532.568 371.689C532.568 356.461 544.135 344.568 559.483 344.568C574.831 344.568 586.398 356.461 586.398 371.689C586.398 386.917 574.831 398.81 559.483 398.81ZM559.483 389.473C569.048 389.473 576.166 382.026 576.166 371.689C576.166 361.352 569.048 353.905 559.483 353.905C549.918 353.905 542.8 361.352 542.8 371.689C542.8 382.026 549.918 389.473 559.483 389.473Z" fill="white"/>
<path d="M596.401 366.91C596.401 353.905 605.076 344.568 618.979 344.568C632.881 344.568 641.556 353.905 641.556 366.91V397.698H631.324V367.688C631.324 359.129 627.209 353.905 618.979 353.905C610.748 353.905 606.633 359.129 606.633 367.688V397.698H596.401V366.91Z" fill="white"/>
<path d="M247.521 274.307V210.378C247.521 184.297 262.731 163.525 293.155 163.525C298.038 163.454 302.911 163.996 307.66 165.139V191.439C304.203 191.209 301.213 191.209 299.827 191.209C283.71 191.209 276.78 198.592 276.78 213.594V274.307H247.521Z" fill="white"/>
<path d="M316.419 220.086C316.419 188.005 340.618 163.541 374.269 163.541C407.92 163.541 432.111 187.989 432.111 220.086C432.111 252.183 407.912 276.844 374.265 276.844C340.618 276.844 316.419 252.151 316.419 220.086ZM403.307 220.086C403.307 201.852 391.091 188.929 374.269 188.929C357.447 188.929 345.227 201.84 345.227 220.086C345.227 238.549 357.443 251.243 374.269 251.243C391.095 251.243 403.303 238.533 403.303 220.086H403.307Z" fill="white"/>
<path d="M516.92 189.142H485.348V229.531C485.348 243.609 490.417 250.073 504.938 250.073C506.32 250.073 509.773 250.073 514.156 249.843V273.616C508.165 275.23 502.875 276.154 497.101 276.154C472.672 276.154 456.076 261.383 456.076 233.457V189.142H436.487V165.833H441.37C443.303 165.833 445.216 165.451 447.002 164.71C448.787 163.969 450.409 162.883 451.775 161.514C453.141 160.144 454.223 158.519 454.962 156.73C455.7 154.942 456.079 153.025 456.076 151.089V129.136H485.348V165.833H516.92V189.142Z" fill="white"/>
<path d="M525.676 220.086C525.676 188.005 549.875 163.541 583.526 163.541C617.177 163.541 641.372 187.989 641.372 220.086C641.372 252.183 617.173 276.86 583.526 276.86C549.879 276.86 525.676 252.151 525.676 220.086ZM612.56 220.086C612.56 201.852 600.344 188.929 583.522 188.929C566.7 188.929 554.48 201.84 554.48 220.086C554.48 238.549 566.696 251.243 583.522 251.243C600.348 251.243 612.56 238.533 612.56 220.086Z" fill="white"/>
<path d="M656.582 274.307V212.686C656.582 184.067 674.79 163.525 707.285 163.525C739.55 163.525 757.757 184.067 757.757 212.686V274.307H728.72V214.994C728.72 199.073 721.572 189.147 707.285 189.147C692.997 189.147 685.85 199.073 685.85 214.994V274.307H656.582Z" fill="white"/>
<path d="M115.365 232.052V273.925H144.734V233.866C144.734 229.968 146.282 226.23 149.036 223.474C151.79 220.717 155.526 219.168 159.422 219.166H189.545C203.593 219.166 217.065 213.584 226.999 203.646C236.932 193.709 242.513 180.231 242.513 166.178V166.178C242.504 152.127 236.921 138.655 226.99 128.719C217.058 118.784 203.59 113.198 189.545 113.19H115.39V165.555H144.741V140.8H187.57C194.22 140.8 200.598 143.443 205.301 148.147C210.003 152.852 212.645 159.232 212.645 165.885V165.885C212.643 172.538 210.001 178.917 205.299 183.621C200.597 188.325 194.219 190.969 187.57 190.97H156.456C151.061 190.966 145.718 192.026 140.732 194.089C135.747 196.151 131.216 199.177 127.4 202.992C123.584 206.807 120.557 211.338 118.492 216.324C116.427 221.31 115.365 226.654 115.365 232.052Z" fill="white"/>
<path d="M159.422 219.166C153.636 219.166 147.906 220.306 142.561 222.522C137.215 224.737 132.358 227.984 128.267 232.077C124.176 236.171 120.931 241.03 118.717 246.378C116.503 251.726 115.365 257.458 115.365 263.246V273.925H144.734V233.866C144.734 229.968 146.282 226.23 149.036 223.474C151.79 220.717 155.526 219.168 159.422 219.166Z" fill="url(#paint0_linear_1406_373)"/>
<defs>
<linearGradient id="paint0_linear_1406_373" x1="137.394" y1="266.001" x2="137.394" y2="178.39" gradientUnits="userSpaceOnUse">
<stop stop-color="white"/>
<stop offset="1" stop-color="#1C0554"/>
</linearGradient>
</defs>
</svg>
