<svg width="200" height="197" viewBox="0 0 200 197" fill="none" xmlns="http://www.w3.org/2000/svg">
<path d="M46.1038 62.5963C46.1038 52.6818 54.1411 44.6445 64.0556 44.6445H135.863C145.777 44.6445 153.815 52.6818 153.815 62.5964V134.404C153.815 144.318 145.777 152.355 135.863 152.355H64.0556C54.1411 152.355 46.1038 144.318 46.1038 134.404V62.5963Z" fill="url(#paint0_radial_4041_859)"/>
<rect x="99.9592" y="44.6445" width="26.9277" height="26.9277" fill="#85D4F5"/>
<path d="M126.885 44.6445H135.861C145.775 44.6445 153.813 52.6818 153.813 62.5964V71.5723H126.885V44.6445Z" fill="#D6F1FC"/>
<rect x="126.885" y="71.5723" width="26.9277" height="26.9277" fill="#85D4F5"/>
<path fill-rule="evenodd" clip-rule="evenodd" d="M104.448 129.916C104.448 132.394 102.439 134.404 99.9605 134.404H68.5448C66.0662 134.404 64.0569 132.394 64.0569 129.916V129.916C64.0569 127.437 66.0662 125.428 68.5448 125.428H99.9605C102.439 125.428 104.448 127.437 104.448 129.916V129.916Z" fill="white"/>
<path fill-rule="evenodd" clip-rule="evenodd" d="M90.9846 111.961C90.9846 114.439 88.9753 116.449 86.4967 116.449H68.5448C66.0662 116.449 64.0569 114.439 64.0569 111.961V111.961C64.0569 109.482 66.0662 107.473 68.5448 107.473H86.4967C88.9753 107.473 90.9846 109.482 90.9846 111.961V111.961Z" fill="white"/>
<defs>
<radialGradient id="paint0_radial_4041_859" cx="0" cy="0" r="1" gradientUnits="userSpaceOnUse" gradientTransform="translate(38.6555 173.866) rotate(-53.1504) scale(127.102)">
<stop stop-color="#6D4AFF"/>
<stop offset="1" stop-color="#34B8EE"/>
</radialGradient>
</defs>
</svg>
