<svg width="5813" height="753" viewBox="0 0 5813 753" fill="none" xmlns="http://www.w3.org/2000/svg">
<g clip-path="url(#clip0_11862_387838)">
<path d="M1248.02 487.65V607.579H1331.76V492.888C1331.76 481.756 1336.13 470.998 1344.04 463.14C1351.86 455.282 1362.56 450.791 1373.63 450.791H1459.51C1499.52 450.791 1537.94 434.795 1566.23 406.262C1594.51 377.824 1610.42 339.188 1610.42 298.962C1610.42 258.736 1594.51 220.101 1566.23 191.568C1537.94 163.13 1499.52 147.133 1459.42 147.133H1248.02V296.998H1331.76V226.368H1453.83C1472.81 226.368 1490.96 233.946 1504.36 247.417C1517.75 260.888 1525.29 279.13 1525.29 298.214C1525.29 317.298 1517.75 335.54 1504.36 349.011C1490.96 362.482 1472.81 370.059 1453.83 370.059H1365.16C1349.81 370.059 1334.55 373.053 1320.41 379.04C1306.17 384.933 1293.34 393.633 1282.45 404.578C1271.56 415.524 1263 428.527 1257.05 442.746C1251.09 456.872 1248.02 472.214 1248.02 487.65Z" fill="#1B1340"/>
<path d="M1623.45 607.579V424.878C1623.45 350.32 1666.71 291.01 1753.34 291.01C1767.2 290.823 1781.06 292.32 1794.65 295.594V370.714C1784.78 370.059 1776.32 370.059 1772.32 370.059C1726.45 370.059 1706.72 391.201 1706.72 434.046V607.579H1623.45Z" fill="#1B1340"/>
<path d="M1819.58 452.655C1819.58 360.977 1888.43 291.097 1984.27 291.097C2080.1 291.097 2148.95 360.977 2148.95 452.655C2148.95 544.333 2080.1 614.868 1984.27 614.868C1888.43 614.868 1819.58 544.239 1819.58 452.655ZM2066.89 452.655C2066.89 400.548 2032.09 363.597 1984.27 363.597C1936.35 363.597 1901.65 400.455 1901.65 452.655C1901.65 505.416 1936.44 541.713 1984.27 541.713C2032.09 541.713 2066.89 505.323 2066.89 452.655Z" fill="#1B1340"/>
<path d="M2415.15 452.655C2415.15 360.977 2484 291.097 2579.83 291.097C2675.57 291.097 2744.43 360.977 2744.43 452.655C2744.43 544.333 2675.57 614.868 2579.83 614.868C2484 614.868 2415.15 544.239 2415.15 452.655ZM2662.45 452.655C2662.45 400.548 2627.66 363.597 2579.83 363.597C2532.01 363.597 2497.21 400.455 2497.21 452.655C2497.21 505.416 2532.01 541.713 2579.83 541.713C2627.66 541.713 2662.45 505.323 2662.45 452.655Z" fill="#1B1340"/>
<path d="M2787.69 607.58V431.522C2787.69 349.76 2839.51 291.012 2932 291.012C3023.83 291.012 3075.66 349.667 3075.66 431.522V607.58H2993.03V438.07C2993.03 392.605 2972.66 364.167 2932 364.167C2891.34 364.167 2870.96 392.512 2870.96 438.07V607.58H2787.69Z" fill="#1B1340"/>
<path d="M2390.21 364.256H2300.33V479.694C2300.33 519.92 2314.76 538.349 2356.07 538.349C2359.97 538.349 2369.84 538.349 2382.3 537.695V605.611C2365.28 610.195 2350.2 612.908 2333.74 612.908C2264.23 612.908 2216.97 570.717 2216.97 490.92V364.256H2161.14V297.649H2175.01C2180.49 297.649 2185.98 296.526 2191.01 294.468C2196.13 292.317 2200.69 289.23 2204.59 285.301C2208.5 281.372 2211.57 276.788 2213.71 271.643C2215.85 266.497 2216.87 261.072 2216.87 255.552V192.781H2300.15V297.649H2390.03V364.256H2390.21Z" fill="#1B1340"/>
<path d="M3354.43 584.15C3319.37 564.316 3290.32 535.22 3270.59 500.137C3250.66 463.557 3240.23 422.58 3240.23 380.948C3240.23 339.316 3250.66 298.339 3270.59 261.759C3290.32 226.676 3319.27 197.674 3354.43 177.747C3390.8 157.164 3432.06 146.593 3473.98 147.154C3508.1 146.873 3541.94 153.703 3573.14 167.268C3601.72 179.524 3627 198.329 3646.93 222.092C3666.67 245.761 3680.39 273.828 3687.06 303.859H3598.9C3588.93 281.499 3572.67 262.601 3552 249.41C3528.97 236.031 3502.84 228.921 3476.14 228.828C3449.45 228.734 3423.23 235.564 3400.11 248.755C3377.92 261.946 3359.69 280.844 3347.38 303.485C3334.59 327.435 3328.01 354.098 3328.01 381.229C3328.01 408.36 3334.69 435.023 3347.38 458.973C3359.69 481.613 3378.02 500.511 3400.39 513.609C3422.76 526.707 3448.23 533.349 3474.17 533.069C3501.62 534.004 3528.59 526.894 3552 512.58C3572.67 499.295 3588.93 480.397 3598.9 458.037H3687.06C3680.39 488.256 3666.57 516.509 3646.74 540.366C3626.91 564.222 3601.72 583.027 3573.14 595.283C3541.84 608.661 3508.01 615.397 3473.98 614.836C3432.06 615.491 3390.8 604.825 3354.43 584.15Z" fill="#6D4AFF"/>
<path d="M3957.76 308.358C3982.57 321.268 4003.06 341.102 4016.78 365.426C4031.45 391.809 4038.78 421.653 4038.12 451.871V607.36H3963.21L3957.85 560.676C3948.07 577.609 3933.79 591.362 3916.49 600.624C3897.98 610.166 3877.3 614.938 3856.43 614.563C3829.74 614.844 3803.52 607.734 3780.58 594.075C3757.46 580.135 3738.66 560.114 3726.26 536.258C3712.53 509.969 3705.67 480.78 3706.24 451.123C3705.86 422.027 3713.38 393.306 3727.95 368.046C3742.14 343.441 3762.72 323.233 3787.63 309.574C3813.67 295.354 3842.99 288.243 3872.69 288.805C3902.21 288.15 3931.44 294.886 3957.76 308.358ZM3930.31 517.64C3946.57 502.11 3954.65 480.031 3954.65 451.216C3955.69 427.36 3947.32 404.158 3931.25 386.476C3923.83 378.337 3914.71 371.975 3904.65 367.672C3894.5 363.368 3883.6 361.31 3872.6 361.591C3861.51 361.31 3850.51 363.462 3840.27 367.859C3830.02 372.162 3820.9 378.711 3813.39 386.85C3798.16 405 3789.79 427.921 3789.79 451.497C3789.79 475.073 3798.16 497.994 3813.39 516.144C3820.9 524.189 3830.12 530.551 3840.36 534.854C3850.61 539.064 3861.6 541.123 3872.69 540.748C3883.32 540.936 3893.94 538.971 3903.8 534.948C3913.67 530.925 3922.7 525.031 3930.31 517.64Z" fill="#6D4AFF"/>
<path d="M4177.7 607.358H4093.29V154.084H4177.7V607.358Z" fill="#6D4AFF"/>
<path d="M4538.91 479.746H4301.86C4305.62 498.644 4315.77 515.671 4330.62 528.02C4345.47 539.528 4363.89 545.515 4382.69 545.047C4397.73 545.609 4412.77 542.989 4426.78 537.376C4437.87 532.324 4446.98 523.81 4452.81 513.145H4531.01C4522.83 544.205 4503.38 571.056 4476.31 588.55C4449.05 606.045 4417.28 615.214 4384.85 614.746C4355.15 615.401 4325.73 608.197 4299.79 593.883C4275.45 580.318 4255.52 560.203 4242.36 535.785C4228.55 509.964 4221.59 481.056 4222.06 451.773C4221.59 422.49 4228.64 393.582 4242.65 367.761C4255.99 343.436 4275.92 323.322 4300.07 309.663C4325.36 295.536 4353.84 288.332 4382.88 288.894C4411.27 288.519 4439.18 295.91 4463.71 310.131C4487.49 324.164 4506.95 344.372 4519.92 368.602C4533.64 394.143 4540.69 422.677 4540.32 451.679C4540.22 460.941 4539.85 470.39 4538.91 479.746ZM4329.96 375.432C4315.58 387.126 4305.43 403.311 4301.2 421.368H4460.52C4458.07 403.592 4448.86 387.407 4434.76 376.087C4420.01 364.018 4401.4 357.657 4382.32 358.218C4363.42 357.657 4344.91 363.738 4329.96 375.432Z" fill="#6D4AFF"/>
<path d="M4570.96 429.885C4570.21 411.08 4573.21 392.276 4579.89 374.594C4586.56 356.912 4596.8 340.82 4609.96 327.255C4636 301.527 4671.9 288.71 4717.68 288.71C4763.45 288.71 4799.26 301.808 4825.2 327.91C4838.27 341.569 4848.42 357.66 4855.09 375.342C4861.77 393.024 4864.77 411.735 4863.93 430.633V607.92H4779.52V436.527C4780.84 417.161 4775.58 397.982 4764.49 382.078C4758.47 375.903 4751.23 370.945 4743.34 367.577C4735.44 364.209 4726.79 362.432 4718.15 362.432C4709.5 362.432 4700.95 364.209 4692.96 367.577C4684.97 370.945 4677.82 375.903 4671.72 382.078C4660.34 397.982 4654.8 417.348 4655.93 436.808V607.639H4571.52L4570.96 429.885Z" fill="#6D4AFF"/>
<path d="M5139.51 154.084H5223.92V607.358H5147.12L5141.2 559.271C5131.99 576.392 5117.89 590.518 5100.79 599.874C5081.52 609.978 5060.09 614.936 5038.38 614.469C5013.85 614.562 4989.69 608.107 4968.54 595.851C4945.8 582.566 4927.28 563.2 4915.15 539.905C4900.96 512.681 4893.91 482.275 4894.76 451.589C4893.91 420.997 4900.96 390.685 4915.15 363.554C4927.28 340.259 4945.8 320.893 4968.54 307.608C4989.78 295.352 5013.85 288.897 5038.38 288.991C5059.43 288.523 5080.2 293.107 5099.1 302.369C5116.01 310.508 5130.11 323.606 5139.51 339.885V154.084ZM5116.11 517.358C5124.29 508.471 5130.58 497.993 5134.53 486.672C5138.57 475.352 5140.17 463.284 5139.42 451.215C5139.42 422.868 5131.52 401.07 5115.83 385.914C5108.31 378.429 5099.28 372.535 5089.41 368.606C5079.55 364.583 5069.02 362.618 5058.3 362.712C5047.59 362.806 5037.16 364.957 5027.29 369.167C5017.51 373.284 5008.58 379.365 5001.16 386.943C4993.17 395.643 4986.96 405.934 4983.02 416.974C4978.97 428.107 4977.28 439.895 4977.85 451.683C4976.62 475.633 4984.99 499.115 5001.16 516.984C5008.68 524.936 5017.79 531.205 5027.94 535.321C5038.09 539.531 5049 541.496 5059.9 541.215C5070.43 541.309 5080.77 539.157 5090.45 535.134C5100.22 530.924 5108.96 524.936 5116.11 517.358Z" fill="#6D4AFF"/>
<path d="M5516.04 308.358C5540.85 321.268 5561.34 341.102 5575.07 365.426C5589.73 391.809 5597.06 421.653 5596.4 451.871V607.36H5521.4L5516.04 560.676C5506.17 577.516 5491.88 591.362 5474.59 600.624C5456.07 610.166 5435.4 614.938 5414.53 614.563C5387.84 614.844 5361.61 607.734 5338.77 594.075C5315.65 580.135 5296.76 560.114 5284.35 536.258C5270.63 509.969 5263.77 480.78 5264.33 451.123C5263.95 422.027 5271.47 393.306 5286.04 368.046C5300.24 343.534 5320.82 323.327 5345.63 309.668C5371.76 295.447 5401.09 288.243 5430.88 288.805C5460.49 288.15 5489.72 294.886 5516.04 308.358ZM5488.69 517.64C5504.95 502.11 5513.03 480.031 5513.03 451.216C5514.07 427.453 5505.7 404.158 5489.72 386.476C5482.11 378.524 5472.99 372.256 5462.84 367.952C5452.69 363.649 5441.79 361.404 5430.79 361.404C5419.79 361.404 5408.89 363.649 5398.74 367.952C5388.59 372.256 5379.47 378.524 5371.86 386.476C5356.63 404.626 5348.36 427.547 5348.36 451.123C5348.36 474.699 5356.72 497.62 5371.86 515.769C5379.38 523.909 5388.49 530.27 5398.64 534.574C5408.8 538.877 5419.79 540.936 5430.88 540.655C5441.6 540.842 5452.13 538.877 5462.09 534.948C5472.05 530.925 5481.07 525.031 5488.69 517.64Z" fill="#6D4AFF"/>
<path d="M5638.51 423.229C5637.01 387.678 5649.32 352.876 5672.91 326.026C5695.75 301.14 5728.37 288.697 5770.66 288.697C5784.86 288.604 5798.95 290.194 5812.77 293.375V369.154C5806.1 369.154 5798.48 368.5 5790.12 368.5C5767 368.5 5750.08 373.832 5739.36 384.497C5733.63 391.14 5729.21 398.811 5726.39 407.138C5723.67 415.464 5722.63 424.258 5723.29 432.959V607.72H5638.89L5638.51 423.229Z" fill="#6D4AFF"/>
<path fill-rule="evenodd" clip-rule="evenodd" d="M649.77 112.385H0.726562V659.283C0.726562 711.316 43.2217 753.456 95.6872 753.456H581.138H417.547V709.584C417.547 687.218 425.581 665.523 440.199 648.531L607.469 453.848V453.944C607.371 454.04 607.274 454.232 607.081 454.328C626.441 432.344 654.9 418.521 686.554 418.521H723.532V185.631C723.628 145.216 690.62 112.385 649.77 112.385Z" fill="url(#paint0_radial_11862_387838)"/>
<path fill-rule="evenodd" clip-rule="evenodd" d="M607.565 453.948C591.108 472.379 581.139 496.666 581.139 523.162L581.138 753.456H417.547V709.584C417.547 687.218 425.581 665.523 440.199 648.531L607.469 453.848L607.565 453.948Z" fill="#B8D7FF"/>
<path d="M673.582 633.842H706.978C708.333 639.603 711.721 644.69 716.561 648.242C721.304 651.794 727.209 653.618 733.211 653.33C748.312 653.33 758.282 645.074 758.282 632.979C758.282 620.883 747.925 614.163 727.403 614.163H714.141V586.9H725.661C745.505 586.9 753.635 579.604 753.635 568.756C753.635 557.908 744.827 550.421 732.631 550.421C727.209 550.133 721.789 551.861 717.723 555.413C713.561 558.964 711.044 563.956 710.56 569.332H678.326C679.487 550.325 694.588 523.062 732.437 523.062C762.832 523.062 783.837 540.245 783.837 564.436C783.837 572.212 781.417 579.796 776.771 586.036C772.125 592.276 765.639 596.979 758.185 599.283V599.763C766.897 601.299 774.738 605.907 780.256 612.723C785.773 619.539 788.677 628.082 788.387 636.915C788.387 663.122 764.187 680.402 732.921 680.402C699.719 680.593 676.003 661.874 673.582 633.842Z" fill="#8F69FF"/>
<path d="M846.757 525.667H871.052V678.207H839.691V561.187L809.489 581.538V550.722L846.757 525.667Z" fill="#8F69FF"/>
<path fill-rule="evenodd" clip-rule="evenodd" d="M95.6872 -0.117188H823.913C876.379 -0.117188 918.874 42.0253 918.874 94.0561V418.528H723.628V185.638C723.628 145.127 690.523 112.385 649.77 112.385H0.726562V94.0561C0.726562 42.0253 43.2217 -0.117188 95.6872 -0.117188Z" fill="url(#paint1_linear_11862_387838)"/>
</g>
<defs>
<radialGradient id="paint0_radial_11862_387838" cx="0" cy="0" r="1" gradientUnits="userSpaceOnUse" gradientTransform="translate(883.762 -628.795) scale(1874.62 1592.06)">
<stop offset="0.5563" stop-color="#6D4AFF"/>
<stop offset="0.9944" stop-color="#06B8FF"/>
</radialGradient>
<linearGradient id="paint1_linear_11862_387838" x1="772.051" y1="514.988" x2="204.226" y2="-274.655" gradientUnits="userSpaceOnUse">
<stop stop-color="#BFE8FF"/>
<stop offset="0.3075" stop-color="#BFABFF"/>
<stop offset="1" stop-color="#7341FF"/>
</linearGradient>
<clipPath id="clip0_11862_387838">
<rect width="5812" height="753" fill="white" transform="translate(0.726562)"/>
</clipPath>
</defs>
</svg>
