<svg width="7133" height="2064" viewBox="0 0 7133 2064" fill="none" xmlns="http://www.w3.org/2000/svg">
<rect width="7132" height="2064" transform="translate(0.726562)" fill="white"/>
<path d="M1908.02 1138.65V1258.58H1991.76V1143.89C1991.76 1132.76 1996.13 1122 2004.04 1114.14C2011.86 1106.28 2022.56 1101.79 2033.63 1101.79H2119.51C2159.52 1101.79 2197.94 1085.79 2226.23 1057.26C2254.51 1028.82 2270.42 990.188 2270.42 949.962C2270.42 909.736 2254.51 871.101 2226.23 842.568C2197.94 814.13 2159.52 798.133 2119.42 798.133H1908.02V947.998H1991.76V877.368H2113.83C2132.81 877.368 2150.96 884.946 2164.36 898.417C2177.75 911.888 2185.29 930.13 2185.29 949.214C2185.29 968.298 2177.75 986.54 2164.36 1000.01C2150.96 1013.48 2132.81 1021.06 2113.83 1021.06H2025.16C2009.81 1021.06 1994.55 1024.05 1980.41 1030.04C1966.17 1035.93 1953.34 1044.63 1942.45 1055.58C1931.56 1066.52 1923 1079.53 1917.05 1093.75C1911.09 1107.87 1908.02 1123.21 1908.02 1138.65Z" fill="#1B1340"/>
<path d="M2283.45 1258.58V1075.88C2283.45 1001.32 2326.71 942.01 2413.34 942.01C2427.2 941.823 2441.06 943.32 2454.65 946.594V1021.71C2444.78 1021.06 2436.32 1021.06 2432.32 1021.06C2386.45 1021.06 2366.72 1042.2 2366.72 1085.05V1258.58H2283.45Z" fill="#1B1340"/>
<path d="M2479.58 1103.65C2479.58 1011.98 2548.43 942.097 2644.27 942.097C2740.1 942.097 2808.95 1011.98 2808.95 1103.65C2808.95 1195.33 2740.1 1265.87 2644.27 1265.87C2548.43 1265.87 2479.58 1195.24 2479.58 1103.65ZM2726.89 1103.65C2726.89 1051.55 2692.09 1014.6 2644.27 1014.6C2596.35 1014.6 2561.65 1051.45 2561.65 1103.65C2561.65 1156.42 2596.44 1192.71 2644.27 1192.71C2692.09 1192.71 2726.89 1156.32 2726.89 1103.65Z" fill="#1B1340"/>
<path d="M3075.15 1103.65C3075.15 1011.98 3144 942.097 3239.83 942.097C3335.57 942.097 3404.43 1011.98 3404.43 1103.65C3404.43 1195.33 3335.57 1265.87 3239.83 1265.87C3144 1265.87 3075.15 1195.24 3075.15 1103.65ZM3322.45 1103.65C3322.45 1051.55 3287.66 1014.6 3239.83 1014.6C3192.01 1014.6 3157.21 1051.45 3157.21 1103.65C3157.21 1156.42 3192.01 1192.71 3239.83 1192.71C3287.66 1192.71 3322.45 1156.32 3322.45 1103.65Z" fill="#1B1340"/>
<path d="M3447.69 1258.58V1082.52C3447.69 1000.76 3499.51 942.012 3592 942.012C3683.83 942.012 3735.66 1000.67 3735.66 1082.52V1258.58H3653.03V1089.07C3653.03 1043.61 3632.66 1015.17 3592 1015.17C3551.34 1015.17 3530.96 1043.51 3530.96 1089.07V1258.58H3447.69Z" fill="#1B1340"/>
<path d="M3050.21 1015.26H2960.33V1130.69C2960.33 1170.92 2974.76 1189.35 3016.07 1189.35C3019.97 1189.35 3029.84 1189.35 3042.3 1188.69V1256.61C3025.28 1261.19 3010.2 1263.91 2993.74 1263.91C2924.23 1263.91 2876.97 1221.72 2876.97 1141.92V1015.26H2821.14V948.649H2835.01C2840.49 948.649 2845.98 947.526 2851.01 945.468C2856.13 943.317 2860.69 940.23 2864.59 936.301C2868.5 932.372 2871.57 927.788 2873.71 922.643C2875.85 917.497 2876.87 912.072 2876.87 906.552V843.781H2960.15V948.649H3050.03V1015.26H3050.21Z" fill="#1B1340"/>
<path d="M4014.43 1235.15C3979.37 1215.32 3950.32 1186.22 3930.59 1151.14C3910.66 1114.56 3900.23 1073.58 3900.23 1031.95C3900.23 990.316 3910.66 949.339 3930.59 912.759C3950.32 877.676 3979.27 848.674 4014.43 828.747C4050.8 808.164 4092.06 797.593 4133.98 798.154C4168.1 797.873 4201.94 804.703 4233.14 818.268C4261.72 830.524 4287 849.329 4306.93 873.092C4326.67 896.761 4340.39 924.828 4347.06 954.859H4258.9C4248.93 932.499 4232.67 913.601 4212 900.41C4188.97 887.031 4162.84 879.921 4136.14 879.828C4109.45 879.734 4083.23 886.564 4060.11 899.755C4037.92 912.946 4019.69 931.844 4007.38 954.485C3994.59 978.435 3988.01 1005.1 3988.01 1032.23C3988.01 1059.36 3994.69 1086.02 4007.38 1109.97C4019.69 1132.61 4038.02 1151.51 4060.39 1164.61C4082.76 1177.71 4108.23 1184.35 4134.17 1184.07C4161.62 1185 4188.59 1177.89 4212 1163.58C4232.67 1150.3 4248.93 1131.4 4258.9 1109.04H4347.06C4340.39 1139.26 4326.57 1167.51 4306.74 1191.37C4286.91 1215.22 4261.72 1234.03 4233.14 1246.28C4201.84 1259.66 4168.01 1266.4 4133.98 1265.84C4092.06 1266.49 4050.8 1255.83 4014.43 1235.15Z" fill="#6D4AFF"/>
<path d="M4617.76 959.358C4642.57 972.268 4663.06 992.102 4676.78 1016.43C4691.45 1042.81 4698.78 1072.65 4698.12 1102.87V1258.36H4623.21L4617.85 1211.68C4608.07 1228.61 4593.79 1242.36 4576.49 1251.62C4557.98 1261.17 4537.3 1265.94 4516.43 1265.56C4489.74 1265.84 4463.52 1258.73 4440.58 1245.07C4417.46 1231.14 4398.66 1211.11 4386.26 1187.26C4372.53 1160.97 4365.67 1131.78 4366.24 1102.12C4365.86 1073.03 4373.38 1044.31 4387.95 1019.05C4402.14 994.441 4422.72 974.233 4447.63 960.574C4473.67 946.354 4502.99 939.243 4532.69 939.805C4562.21 939.15 4591.44 945.886 4617.76 959.358ZM4590.31 1168.64C4606.57 1153.11 4614.65 1131.03 4614.65 1102.22C4615.69 1078.36 4607.32 1055.16 4591.25 1037.48C4583.83 1029.34 4574.71 1022.98 4564.65 1018.67C4554.5 1014.37 4543.6 1012.31 4532.6 1012.59C4521.51 1012.31 4510.51 1014.46 4500.27 1018.86C4490.02 1023.16 4480.9 1029.71 4473.39 1037.85C4458.16 1056 4449.79 1078.92 4449.79 1102.5C4449.79 1126.07 4458.16 1148.99 4473.39 1167.14C4480.9 1175.19 4490.12 1181.55 4500.36 1185.85C4510.61 1190.06 4521.6 1192.12 4532.69 1191.75C4543.32 1191.94 4553.94 1189.97 4563.8 1185.95C4573.67 1181.93 4582.7 1176.03 4590.31 1168.64Z" fill="#6D4AFF"/>
<path d="M4837.7 1258.36H4753.29V805.084H4837.7V1258.36Z" fill="#6D4AFF"/>
<path d="M5198.91 1130.75H4961.86C4965.62 1149.64 4975.77 1166.67 4990.62 1179.02C5005.47 1190.53 5023.89 1196.52 5042.69 1196.05C5057.73 1196.61 5072.77 1193.99 5086.78 1188.38C5097.87 1183.32 5106.98 1174.81 5112.81 1164.15H5191.01C5182.83 1195.21 5163.38 1222.06 5136.31 1239.55C5109.05 1257.05 5077.28 1266.21 5044.85 1265.75C5015.15 1266.4 4985.73 1259.2 4959.79 1244.88C4935.45 1231.32 4915.52 1211.2 4902.36 1186.79C4888.55 1160.96 4881.59 1132.06 4882.06 1102.77C4881.59 1073.49 4888.64 1044.58 4902.65 1018.76C4915.99 994.436 4935.92 974.322 4960.07 960.663C4985.36 946.536 5013.84 939.332 5042.88 939.894C5071.27 939.519 5099.18 946.91 5123.71 961.131C5147.49 975.164 5166.95 995.372 5179.92 1019.6C5193.64 1045.14 5200.69 1073.68 5200.32 1102.68C5200.22 1111.94 5199.85 1121.39 5198.91 1130.75ZM4989.96 1026.43C4975.58 1038.13 4965.43 1054.31 4961.2 1072.37H5120.52C5118.07 1054.59 5108.86 1038.41 5094.76 1027.09C5080.01 1015.02 5061.4 1008.66 5042.32 1009.22C5023.42 1008.66 5004.91 1014.74 4989.96 1026.43Z" fill="#6D4AFF"/>
<path d="M5230.96 1080.88C5230.21 1062.08 5233.21 1043.28 5239.89 1025.59C5246.56 1007.91 5256.8 991.82 5269.96 978.255C5296 952.527 5331.9 939.71 5377.68 939.71C5423.45 939.71 5459.26 952.808 5485.2 978.91C5498.27 992.569 5508.42 1008.66 5515.09 1026.34C5521.77 1044.02 5524.77 1062.74 5523.93 1081.63V1258.92H5439.52V1087.53C5440.84 1068.16 5435.58 1048.98 5424.49 1033.08C5418.47 1026.9 5411.23 1021.95 5403.34 1018.58C5395.44 1015.21 5386.79 1013.43 5378.15 1013.43C5369.5 1013.43 5360.95 1015.21 5352.96 1018.58C5344.97 1021.95 5337.82 1026.9 5331.72 1033.08C5320.34 1048.98 5314.8 1068.35 5315.93 1087.81V1258.64H5231.52L5230.96 1080.88Z" fill="#6D4AFF"/>
<path d="M5799.51 805.084H5883.92V1258.36H5807.12L5801.2 1210.27C5791.99 1227.39 5777.89 1241.52 5760.79 1250.87C5741.52 1260.98 5720.09 1265.94 5698.38 1265.47C5673.85 1265.56 5649.69 1259.11 5628.54 1246.85C5605.8 1233.57 5587.28 1214.2 5575.15 1190.91C5560.96 1163.68 5553.91 1133.28 5554.76 1102.59C5553.91 1072 5560.96 1041.68 5575.15 1014.55C5587.28 991.259 5605.8 971.893 5628.54 958.608C5649.78 946.352 5673.85 939.897 5698.38 939.991C5719.43 939.523 5740.2 944.107 5759.1 953.369C5776.01 961.508 5790.11 974.606 5799.51 990.885V805.084ZM5776.11 1168.36C5784.29 1159.47 5790.58 1148.99 5794.53 1137.67C5798.57 1126.35 5800.17 1114.28 5799.42 1102.22C5799.42 1073.87 5791.52 1052.07 5775.83 1036.91C5768.31 1029.43 5759.28 1023.54 5749.41 1019.61C5739.55 1015.58 5729.02 1013.62 5718.3 1013.71C5707.59 1013.81 5697.16 1015.96 5687.29 1020.17C5677.51 1024.28 5668.58 1030.36 5661.16 1037.94C5653.17 1046.64 5646.96 1056.93 5643.02 1067.97C5638.97 1079.11 5637.28 1090.89 5637.85 1102.68C5636.62 1126.63 5644.99 1150.12 5661.16 1167.98C5668.68 1175.94 5677.79 1182.2 5687.94 1186.32C5698.09 1190.53 5709 1192.5 5719.9 1192.21C5730.43 1192.31 5740.77 1190.16 5750.45 1186.13C5760.22 1181.92 5768.96 1175.94 5776.11 1168.36Z" fill="#6D4AFF"/>
<path d="M6176.04 959.358C6200.85 972.268 6221.34 992.102 6235.07 1016.43C6249.73 1042.81 6257.06 1072.65 6256.4 1102.87V1258.36H6181.4L6176.04 1211.68C6166.17 1228.52 6151.88 1242.36 6134.59 1251.62C6116.07 1261.17 6095.4 1265.94 6074.53 1265.56C6047.84 1265.84 6021.61 1258.73 5998.77 1245.07C5975.65 1231.14 5956.76 1211.11 5944.35 1187.26C5930.63 1160.97 5923.77 1131.78 5924.33 1102.12C5923.95 1073.03 5931.47 1044.31 5946.04 1019.05C5960.24 994.534 5980.82 974.327 6005.63 960.668C6031.76 946.447 6061.09 939.243 6090.88 939.805C6120.49 939.15 6149.72 945.886 6176.04 959.358ZM6148.69 1168.64C6164.95 1153.11 6173.03 1131.03 6173.03 1102.22C6174.07 1078.45 6165.7 1055.16 6149.72 1037.48C6142.11 1029.52 6132.99 1023.26 6122.84 1018.95C6112.69 1014.65 6101.79 1012.4 6090.79 1012.4C6079.79 1012.4 6068.89 1014.65 6058.74 1018.95C6048.59 1023.26 6039.47 1029.52 6031.86 1037.48C6016.63 1055.63 6008.36 1078.55 6008.36 1102.12C6008.36 1125.7 6016.72 1148.62 6031.86 1166.77C6039.38 1174.91 6048.49 1181.27 6058.64 1185.57C6068.8 1189.88 6079.79 1191.94 6090.88 1191.65C6101.6 1191.84 6112.13 1189.88 6122.09 1185.95C6132.05 1181.93 6141.07 1176.03 6148.69 1168.64Z" fill="#6D4AFF"/>
<path d="M6298.51 1074.23C6297.01 1038.68 6309.32 1003.88 6332.91 977.026C6355.75 952.14 6388.37 939.697 6430.66 939.697C6444.86 939.604 6458.95 941.194 6472.77 944.375V1020.15C6466.1 1020.15 6458.48 1019.5 6450.12 1019.5C6427 1019.5 6410.08 1024.83 6399.36 1035.5C6393.63 1042.14 6389.21 1049.81 6386.39 1058.14C6383.67 1066.46 6382.63 1075.26 6383.29 1083.96V1258.72H6298.89L6298.51 1074.23Z" fill="#6D4AFF"/>
<path fill-rule="evenodd" clip-rule="evenodd" d="M1309.77 763.385H660.727V1310.28C660.727 1362.32 703.222 1404.46 755.687 1404.46H1241.14H1077.55V1360.58C1077.55 1338.22 1085.58 1316.52 1100.2 1299.53L1267.47 1104.85V1104.94C1267.37 1105.04 1267.27 1105.23 1267.08 1105.33C1286.44 1083.34 1314.9 1069.52 1346.55 1069.52H1383.53V836.631C1383.63 796.216 1350.62 763.385 1309.77 763.385Z" fill="url(#paint0_radial_11860_363301)"/>
<path fill-rule="evenodd" clip-rule="evenodd" d="M1267.56 1104.95C1251.11 1123.38 1241.14 1147.67 1241.14 1174.16L1241.14 1404.46H1077.55V1360.58C1077.55 1338.22 1085.58 1316.52 1100.2 1299.53L1267.47 1104.85L1267.56 1104.95Z" fill="#B8D7FF"/>
<path d="M1333.58 1284.84H1366.98C1368.33 1290.6 1371.72 1295.69 1376.56 1299.24C1381.3 1302.79 1387.21 1304.62 1393.21 1304.33C1408.31 1304.33 1418.28 1296.07 1418.28 1283.98C1418.28 1271.88 1407.92 1265.16 1387.4 1265.16H1374.14V1237.9H1385.66C1405.5 1237.9 1413.64 1230.6 1413.64 1219.76C1413.64 1208.91 1404.83 1201.42 1392.63 1201.42C1387.21 1201.13 1381.79 1202.86 1377.72 1206.41C1373.56 1209.96 1371.04 1214.96 1370.56 1220.33H1338.33C1339.49 1201.32 1354.59 1174.06 1392.44 1174.06C1422.83 1174.06 1443.84 1191.25 1443.84 1215.44C1443.84 1223.21 1441.42 1230.8 1436.77 1237.04C1432.12 1243.28 1425.64 1247.98 1418.19 1250.28V1250.76C1426.9 1252.3 1434.74 1256.91 1440.26 1263.72C1445.77 1270.54 1448.68 1279.08 1448.39 1287.91C1448.39 1314.12 1424.19 1331.4 1392.92 1331.4C1359.72 1331.59 1336 1312.87 1333.58 1284.84Z" fill="#8F69FF"/>
<path d="M1506.76 1176.67H1531.05V1329.21H1499.69V1212.19L1469.49 1232.54V1201.72L1506.76 1176.67Z" fill="#8F69FF"/>
<path fill-rule="evenodd" clip-rule="evenodd" d="M755.687 650.883H1483.91C1536.38 650.883 1578.87 693.025 1578.87 745.056V1069.53H1383.63V836.638C1383.63 796.127 1350.52 763.385 1309.77 763.385H660.727V745.056C660.727 693.025 703.222 650.883 755.687 650.883Z" fill="url(#paint1_linear_11860_363301)"/>
<defs>
<radialGradient id="paint0_radial_11860_363301" cx="0" cy="0" r="1" gradientUnits="userSpaceOnUse" gradientTransform="translate(1543.76 22.2049) scale(1874.62 1592.06)">
<stop offset="0.5563" stop-color="#6D4AFF"/>
<stop offset="0.9944" stop-color="#06B8FF"/>
</radialGradient>
<linearGradient id="paint1_linear_11860_363301" x1="1432.05" y1="1165.99" x2="864.226" y2="376.345" gradientUnits="userSpaceOnUse">
<stop stop-color="#BFE8FF"/>
<stop offset="0.3075" stop-color="#BFABFF"/>
<stop offset="1" stop-color="#7341FF"/>
</linearGradient>
</defs>
</svg>
