<svg width="2670" height="1599" viewBox="0 0 2670 1599" fill="none" xmlns="http://www.w3.org/2000/svg">
<g clip-path="url(#clip0_11891_190691)">
<path d="M353.57 717.047V845.228H443.525V722.593C443.525 710.662 448.264 699.219 456.699 690.783C465.134 682.346 476.574 677.606 488.503 677.606H580.738C623.765 677.593 665.026 660.489 695.448 630.054C725.87 599.619 742.962 558.346 742.965 515.309V515.309C742.965 472.267 725.871 430.986 695.444 400.548C665.016 370.11 623.747 353.007 580.713 353H353.57V513.226H443.525V437.686H574.65C595.01 437.686 614.536 445.774 628.935 460.171C643.333 474.568 651.426 494.095 651.432 514.459V514.459C651.432 534.827 643.343 554.361 628.943 568.763C614.544 583.166 595.014 591.257 574.65 591.257H479.323C462.805 591.249 446.448 594.497 431.187 600.816C415.925 607.134 402.059 616.4 390.38 628.082C378.701 639.765 369.439 653.635 363.123 668.9C356.807 684.165 353.561 700.526 353.57 717.047V717.047Z" fill="#6D4AFF"/>
<path d="M488.478 677.607C452.699 677.611 418.387 691.828 393.088 717.133C367.788 742.437 353.574 776.757 353.57 812.543V845.229H443.525V722.594C443.525 710.667 448.261 699.228 456.69 690.792C465.12 682.356 476.554 677.614 488.478 677.607V677.607Z" fill="url(#paint0_linear_11891_190691)"/>
<path d="M756.914 845.239V649.96C756.914 570.291 803.432 506.841 896.48 506.841C911.415 506.624 926.318 508.28 940.841 511.771V592.106C930.268 591.404 921.125 591.404 916.874 591.404C867.583 591.404 846.388 613.959 846.388 659.784V845.239H756.914Z" fill="#6D4AFF"/>
<path d="M967.656 679.616C967.656 581.619 1041.67 506.892 1144.58 506.892C1247.5 506.892 1321.5 581.569 1321.5 679.616C1321.5 777.662 1247.49 852.993 1144.58 852.993C1041.68 852.993 967.656 777.563 967.656 679.616ZM1233.41 679.616C1233.41 623.919 1196.04 584.441 1144.6 584.441C1093.15 584.441 1055.78 623.882 1055.78 679.616C1055.78 736.015 1093.14 774.79 1144.6 774.79C1196.06 774.79 1233.41 735.966 1233.41 679.616Z" fill="#6D4AFF"/>
<path d="M1607.66 679.616C1607.66 581.619 1681.67 506.892 1784.58 506.892C1887.5 506.892 1961.5 581.569 1961.5 679.616C1961.5 777.662 1887.49 853.042 1784.58 853.042C1681.68 853.042 1607.66 777.563 1607.66 679.616ZM1873.39 679.616C1873.39 623.919 1836.03 584.441 1784.58 584.441C1733.14 584.441 1695.76 623.882 1695.76 679.616C1695.76 736.015 1733.13 774.79 1784.58 774.79C1836.04 774.79 1873.39 735.966 1873.39 679.616V679.616Z" fill="#6D4AFF"/>
<path d="M2008.02 845.24V657.011C2008.02 569.589 2063.7 506.842 2163.08 506.842C2261.76 506.842 2317.45 569.589 2317.45 657.011V845.24H2228.64V664.061C2228.64 615.426 2206.78 585.106 2163.08 585.106C2119.39 585.106 2097.53 615.426 2097.53 664.061V845.24H2008.02Z" fill="#6D4AFF"/>
<path d="M1580.9 585.094H1484.32V708.468C1484.32 751.471 1499.82 771.216 1544.23 771.216C1548.46 771.216 1559.02 771.215 1572.43 770.513V843.133C1554.1 848.063 1537.92 850.885 1520.26 850.885C1445.55 850.934 1394.83 805.763 1394.83 720.461V585.094H1334.88V513.892H1349.83C1355.74 513.895 1361.6 512.732 1367.06 510.47C1372.52 508.207 1377.49 504.89 1381.67 500.707C1385.85 496.524 1389.16 491.558 1391.42 486.092C1393.68 480.627 1394.84 474.77 1394.83 468.856V401.795H1484.34V513.892H1580.9V585.094Z" fill="#6D4AFF"/>
<path d="M353 1195.82V1020.49H422.36C437.66 1020.49 450.55 1025.47 461.03 1035.44C471.52 1045.41 476.76 1057.61 476.76 1072.05C476.76 1086.49 471.52 1098.52 461.03 1108.66C450.54 1118.8 437.65 1123.87 422.36 1123.87H377.24V1195.81H353V1195.82ZM377.24 1101.71H417.2C428.89 1101.71 437.57 1098.87 443.24 1093.2C449.08 1087.36 452.01 1080.31 452.01 1072.06C452.01 1063.81 449.17 1056.85 443.5 1051.18C438 1045.51 429.49 1042.67 417.97 1042.67H377.24V1101.71ZM497.94 1119.5C497.94 1104.89 502.07 1093.46 510.32 1085.21C518.57 1076.79 529.4 1072.58 542.81 1072.58C547.11 1072.58 551.49 1073.18 555.96 1074.38V1096.04C554.41 1095.87 551.32 1095.78 546.68 1095.78C538.6 1095.78 532.41 1098.01 528.12 1102.48C523.82 1106.95 521.67 1114.51 521.67 1125.17V1195.82H497.95V1119.5H497.94ZM579.53 1195.82V1075.15H603.25V1195.82H579.53ZM580.3 1047.57C577.38 1044.65 575.92 1041.04 575.92 1036.74C575.92 1032.44 577.38 1028.83 580.3 1025.91C583.39 1022.82 587.09 1021.27 591.39 1021.27C595.69 1021.27 599.3 1022.82 602.22 1025.91C605.31 1028.83 606.86 1032.44 606.86 1036.74C606.86 1041.04 605.31 1044.65 602.22 1047.57C599.3 1050.49 595.69 1051.95 591.39 1051.95C587.09 1051.95 583.4 1050.49 580.3 1047.57ZM667.93 1195.82L620.49 1075.15H646.53L673.86 1150.95C675.92 1156.62 677.47 1161.61 678.5 1165.9H679.02C680.05 1161.6 681.6 1156.62 683.66 1150.95L710.99 1075.15H737.29L689.85 1195.82H667.93V1195.82ZM803.04 1198.4C786.88 1198.4 773.05 1192.73 761.53 1181.38C750.19 1170.04 744.51 1154.74 744.51 1135.49C744.51 1116.24 750.18 1100.94 761.53 1089.6C773.05 1078.26 786.88 1072.58 803.04 1072.58C811.63 1072.58 819.63 1074.47 827.02 1078.25C834.58 1081.86 840.6 1087.02 845.07 1093.72L847.13 1075.16H868.01V1195.83H847.13L845.07 1177.27C840.6 1183.97 834.58 1189.22 827.02 1193C819.63 1196.61 811.64 1198.41 803.04 1198.41V1198.4ZM779.58 1105.58C772.02 1112.97 768.24 1122.94 768.24 1135.49C768.24 1148.04 772.02 1158.09 779.58 1165.66C787.14 1173.05 796.25 1176.75 806.91 1176.75C817.57 1176.75 826.16 1172.97 833.72 1165.41C841.28 1157.68 845.06 1147.71 845.06 1135.5C845.06 1123.29 841.28 1113.41 833.72 1105.85C826.16 1098.12 817.22 1094.25 806.91 1094.25C796.6 1094.25 787.14 1098.03 779.58 1105.59V1105.58ZM955.96 1198.4C938.08 1198.4 923.3 1192.56 911.61 1180.87C899.92 1169.01 894.08 1153.88 894.08 1135.49C894.08 1117.1 899.92 1102.06 911.61 1090.37C923.3 1078.51 938.08 1072.58 955.96 1072.58C970.57 1072.58 983.03 1076.71 993.35 1084.96C1003.66 1093.21 1010.28 1103.7 1013.2 1116.42H988.71C982.52 1101.64 971.61 1094.25 955.97 1094.25C944.97 1094.25 935.86 1098.12 928.64 1105.85C921.42 1113.58 917.81 1123.47 917.81 1135.5C917.81 1147.53 921.42 1157.42 928.64 1165.15C935.86 1172.88 944.97 1176.75 955.97 1176.75C971.27 1176.75 982.18 1169.36 988.71 1154.58H1013.2C1010.28 1167.3 1003.66 1177.78 993.35 1186.04C983.04 1194.29 970.57 1198.42 955.96 1198.42V1198.4ZM1077.12 1168.75C1077.98 1163.25 1079.53 1157.49 1081.76 1151.48L1109.86 1075.16H1135.13L1068.09 1246.36H1042.56L1063.7 1194.28L1017.55 1075.16H1043.85L1071.95 1151.48C1074.18 1157.5 1075.73 1163.25 1076.59 1168.75H1077.11H1077.12ZM1279.08 1198.4C1260.34 1198.4 1246.51 1191.44 1237.57 1177.52L1235.51 1195.83H1214.63V1020.5H1238.35V1092.18C1247.29 1079.12 1260.87 1072.58 1279.09 1072.58C1295.08 1072.58 1308.74 1078.25 1320.09 1089.6C1331.43 1100.94 1337.11 1116.24 1337.11 1135.49C1337.11 1154.74 1331.44 1170.04 1320.09 1181.38C1308.75 1192.72 1295.08 1198.4 1279.09 1198.4H1279.08ZM1248.66 1105.58C1241.27 1113.14 1237.57 1123.11 1237.57 1135.49C1237.57 1147.87 1241.27 1157.84 1248.66 1165.4C1256.22 1172.96 1265.25 1176.74 1275.73 1176.74C1286.21 1176.74 1295.33 1173.04 1302.54 1165.65C1309.75 1158.26 1313.37 1148.2 1313.37 1135.48C1313.37 1122.76 1309.76 1112.7 1302.54 1105.31C1295.32 1097.92 1286.38 1094.22 1275.73 1094.22C1265.08 1094.22 1256.22 1098 1248.66 1105.56V1105.58ZM1403.44 1168.75C1404.3 1163.25 1405.85 1157.49 1408.08 1151.48L1436.18 1075.16H1461.45L1394.41 1246.36H1368.88L1390.02 1194.28L1343.87 1075.16H1370.17L1398.27 1151.48C1400.5 1157.5 1402.05 1163.25 1402.91 1168.75H1403.43H1403.44ZM1630.93 1195.82L1628.87 1177.51C1619.93 1191.43 1606.09 1198.39 1587.36 1198.39C1571.37 1198.39 1557.72 1192.72 1546.37 1181.37C1535.02 1170.03 1529.35 1154.73 1529.35 1135.48C1529.35 1116.23 1535.02 1100.93 1546.37 1089.59C1557.72 1078.25 1571.38 1072.57 1587.36 1072.57C1605.58 1072.57 1619.16 1079.1 1628.1 1092.17V1020.49H1651.82V1195.82H1630.93V1195.82ZM1563.89 1105.32C1556.67 1112.71 1553.06 1122.77 1553.06 1135.49C1553.06 1148.21 1556.67 1158.27 1563.89 1165.66C1571.11 1173.05 1580.05 1176.75 1590.71 1176.75C1601.37 1176.75 1610.14 1172.97 1617.52 1165.41C1625.09 1157.85 1628.87 1147.88 1628.87 1135.5C1628.87 1123.12 1625.09 1113.15 1617.52 1105.59C1610.14 1098.03 1601.19 1094.25 1590.71 1094.25C1580.23 1094.25 1571.11 1097.95 1563.89 1105.34V1105.32ZM1739.76 1198.4C1722.05 1198.4 1707.44 1192.56 1695.93 1180.87C1684.58 1169.18 1678.91 1154.06 1678.91 1135.49C1678.91 1116.92 1684.58 1101.8 1695.93 1090.11C1707.27 1078.42 1721.88 1072.58 1739.76 1072.58C1755.74 1072.58 1769.32 1078.68 1780.5 1090.89C1791.84 1102.92 1797.51 1117.79 1797.51 1135.5C1797.51 1139.28 1797.35 1142.38 1796.99 1144.78H1703.4C1705.12 1154.58 1709.24 1162.4 1715.77 1168.24C1722.47 1173.91 1730.46 1176.75 1739.75 1176.75C1754.7 1176.75 1764.84 1171.08 1770.17 1159.73H1794.4C1790.8 1171.42 1784 1180.79 1774.03 1187.83C1764.23 1194.88 1752.8 1198.4 1739.75 1198.4H1739.76ZM1703.66 1125.18H1773.02C1772.16 1116.76 1768.63 1109.54 1762.45 1103.52C1756.26 1097.33 1748.7 1094.24 1739.76 1094.24C1730.82 1094.24 1722.57 1097.08 1716.04 1102.75C1709.68 1108.25 1705.55 1115.73 1703.67 1125.18H1703.66ZM1826.9 1060.46C1826.9 1047.57 1830.5 1037.43 1837.73 1030.04C1844.95 1022.65 1854.22 1018.95 1865.57 1018.95C1870.39 1018.95 1874.94 1019.55 1879.24 1020.75V1040.35C1876.48 1040.01 1874.08 1039.83 1872.01 1039.83C1857.75 1039.83 1850.62 1046.88 1850.62 1060.97V1075.15H1884.4V1095.26H1850.62V1195.81H1826.9V1095.26H1803.7V1075.15H1826.9V1060.45V1060.46ZM1952.71 1198.4C1936.56 1198.4 1922.71 1192.73 1911.2 1181.38C1899.86 1170.04 1894.19 1154.74 1894.19 1135.49C1894.19 1116.24 1899.86 1100.94 1911.2 1089.6C1922.71 1078.26 1936.56 1072.58 1952.71 1072.58C1961.3 1072.58 1969.3 1074.47 1976.69 1078.25C1984.25 1081.86 1990.26 1087.02 1994.74 1093.72L1996.8 1075.16H2017.69V1195.83H1996.8L1994.74 1177.27C1990.27 1183.97 1984.25 1189.22 1976.69 1193C1969.3 1196.61 1961.3 1198.41 1952.71 1198.41V1198.4ZM1929.25 1105.58C1921.69 1112.97 1917.91 1122.94 1917.91 1135.49C1917.91 1148.04 1921.69 1158.09 1929.25 1165.66C1936.82 1173.05 1945.92 1176.75 1956.59 1176.75C1967.26 1176.75 1975.84 1172.97 1983.4 1165.41C1990.97 1157.68 1994.75 1147.71 1994.75 1135.5C1994.75 1123.29 1990.97 1113.41 1983.4 1105.85C1975.84 1098.12 1966.91 1094.25 1956.59 1094.25C1946.27 1094.25 1936.82 1098.03 1929.25 1105.59V1105.58ZM2140.18 1183.96C2130.9 1193.59 2118.43 1198.4 2102.8 1198.4C2087.17 1198.4 2074.7 1193.59 2065.41 1183.96C2056.13 1174.33 2051.49 1161.87 2051.49 1146.57V1075.15H2075.2V1144.76C2075.2 1154.73 2077.53 1162.46 2082.17 1167.96C2086.81 1173.46 2093.68 1176.21 2102.8 1176.21C2111.92 1176.21 2118.79 1173.46 2123.43 1167.96C2128.07 1162.46 2130.39 1154.72 2130.39 1144.76V1075.15H2154.11V1146.57C2154.11 1161.87 2149.47 1174.33 2140.18 1183.96ZM2189.84 1195.82V1020.49H2213.55V1195.82H2189.84ZM2299.15 1197.37C2287.12 1197.37 2277.15 1193.76 2269.25 1186.54C2261.51 1179.32 2257.64 1169.44 2257.64 1156.89L2257.38 1095.27H2235.99V1075.16H2257.38V1034.68H2281.36V1075.16H2316.43V1095.27H2281.36V1154.06C2281.36 1162.31 2283.26 1168.07 2287.03 1171.33C2290.99 1174.42 2297.17 1175.97 2305.6 1175.97C2308 1175.97 2311.02 1175.88 2314.62 1175.71V1195.56C2309.64 1196.76 2304.48 1197.36 2299.15 1197.36V1197.37Z" fill="#6D4AFF"/>
</g>
<defs>
<linearGradient id="paint0_linear_11891_190691" x1="421.024" y1="820.985" x2="421.024" y2="632.633" gradientUnits="userSpaceOnUse">
<stop stop-color="#6D4BFD"/>
<stop offset="1" stop-color="#1C0554"/>
</linearGradient>
<clipPath id="clip0_11891_190691">
<rect width="1964.27" height="893.39" fill="white" transform="translate(353 352.968)"/>
</clipPath>
</defs>
</svg>
