<svg width="9266" height="1460" viewBox="0 0 9266 1460" fill="none" xmlns="http://www.w3.org/2000/svg">
<path d="M8554.09 1156.53C8466.46 1156.53 8395.57 1129.05 8341.4 1074.09C8287.23 1018.32 8260.15 947.827 8260.15 862.592C8260.15 778.154 8287.23 708.055 8341.4 652.294C8395.57 596.533 8464.87 568.653 8549.31 568.653C8633.74 568.653 8702.65 596.533 8756.02 652.294C8809.39 708.055 8836.08 778.154 8836.08 862.592C8836.08 883.303 8835.68 901.227 8834.88 916.362H8413.09C8430.62 988.054 8476.42 1023.9 8550.5 1023.9C8607.86 1023.9 8647.68 1007.17 8669.99 973.716H8819.35C8802.62 1035.05 8769.56 1080.86 8720.17 1111.13C8670.79 1141.4 8615.42 1156.53 8554.09 1156.53ZM8411.9 806.433H8685.52C8679.95 776.163 8664.41 751.469 8638.92 732.351C8613.43 712.436 8583.56 702.479 8549.31 702.479C8514.26 702.479 8484.39 712.038 8459.69 731.156C8435.79 749.477 8419.86 774.57 8411.9 806.433Z" fill="white"/>
<path d="M8031.66 1143.39V328.483H8196.55V1143.39H8031.66Z" fill="white"/>
<path d="M7748.2 1143.39V328.483H7913.09V1143.39H7748.2Z" fill="white"/>
<path d="M6179.23 1143.39L5941.45 328.484H6113.52L6237.78 801.654C6251.32 855.026 6260.88 900.032 6266.46 936.675H6268.85C6275.22 896.846 6285.18 851.043 6298.72 799.265L6428.96 328.484H6646.43L6776.67 799.265C6791.81 852.636 6802.16 898.439 6807.74 936.675H6810.13C6817.3 888.084 6826.46 843.077 6837.61 801.654L6961.88 328.484H7133.94L6896.16 1143.39H6710.95L6558.01 573.433C6547.65 533.604 6541.28 499.351 6538.89 470.674H6536.5C6534.11 499.351 6527.74 533.604 6517.38 573.433L6364.44 1143.39H6179.23Z" fill="white"/>
<path d="M9265.44 701.762H9102.35V911.229C9102.35 984.22 9128.52 1017.66 9203.48 1017.66C9210.57 1017.66 9228.46 1017.66 9251.09 1016.47V1139.71C9220.19 1148.03 9192.84 1152.95 9162.96 1152.95C9036.84 1152.95 8951.07 1076.39 8951.07 931.599V701.762H8849.78V580.903H8875.1C8885.06 580.903 8895.02 578.866 8904.14 575.131C8913.43 571.227 8921.7 565.626 8928.79 558.496C8935.88 551.367 8941.45 543.049 8945.33 533.713C8949.22 524.377 8951.07 514.532 8951.07 504.517V390.617H9102.18V580.903H9265.27V701.762H9265.44Z" fill="white"/>
<path d="M7517.91 606.738C7562.23 629.973 7598.91 665.59 7623.53 709.177C7649.85 756.496 7663.1 810.09 7662.08 864.193V1143.36H7527.92L7518.42 1059.57C7500.92 1089.93 7475.28 1114.69 7444.38 1131.32C7411.26 1148.45 7374.25 1157.1 7336.89 1156.25C7289.17 1156.76 7242.3 1144.04 7201.38 1119.44C7159.94 1094.34 7126.32 1058.39 7103.9 1015.65C7079.45 968.498 7067.23 916.091 7068.24 863.006C7067.57 810.769 7080.98 759.379 7106.96 713.926C7132.43 669.83 7169.28 633.535 7213.94 608.943C7260.13 583.333 7312.09 570.104 7364.91 570.782C7418.06 569.765 7470.7 582.146 7517.91 606.738ZM7468.83 982.236C7498.04 954.421 7512.47 915.243 7512.47 863.006C7514.34 820.266 7499.23 778.544 7470.7 746.829C7457.11 732.582 7440.81 721.389 7422.64 713.587C7404.47 705.785 7385.11 701.885 7365.42 701.885C7345.72 701.885 7326.19 705.785 7308.19 713.587C7290.02 721.389 7273.72 732.582 7260.13 746.829C7232.96 779.393 7218.02 820.436 7218.02 862.836C7218.02 905.237 7232.96 946.281 7260.13 978.844C7273.55 993.43 7289.85 1004.79 7308.19 1012.59C7326.36 1020.23 7346.06 1024.13 7365.75 1023.62C7384.77 1023.96 7403.79 1020.4 7421.62 1013.27C7439.11 1006.32 7455.25 995.635 7468.83 982.236Z" fill="white"/>
<path d="M2283.44 924.426V1143.21H2436.2V933.983C2436.2 913.675 2444.18 894.049 2458.61 879.714C2472.86 865.379 2492.38 857.187 2512.58 857.187H2669.25C2742.24 857.187 2812.34 828.005 2863.94 775.955C2915.54 724.075 2944.56 653.594 2944.56 580.211C2944.56 506.829 2915.54 436.348 2863.94 384.297C2812.34 332.418 2742.24 303.235 2669.08 303.235H2283.44V576.628H2436.2V447.782H2658.89C2693.52 447.782 2726.62 461.605 2751.06 486.179C2775.5 510.754 2789.25 544.032 2789.25 578.846C2789.25 613.66 2775.5 646.938 2751.06 671.513C2726.62 696.087 2693.52 709.91 2658.89 709.91H2497.14C2469.13 709.91 2441.29 715.372 2415.49 726.294C2389.52 737.045 2366.1 752.916 2346.24 772.883C2326.38 792.85 2310.77 816.571 2299.9 842.511C2289.04 868.28 2283.44 896.268 2283.44 924.426Z" fill="white"/>
<path d="M2968.16 1143.21V809.915C2968.16 673.902 3047.08 565.705 3205.11 565.705C3230.4 565.364 3255.69 568.094 3280.47 574.067V711.105C3262.48 709.91 3247.03 709.91 3239.73 709.91C3156.05 709.91 3120.07 748.479 3120.07 826.639V1143.21H2968.16Z" fill="white"/>
<path d="M3325.95 860.603C3325.95 693.359 3451.56 565.878 3626.39 565.878C3801.22 565.878 3926.82 693.359 3926.82 860.603C3926.82 1027.85 3801.22 1156.52 3626.39 1156.52C3451.56 1156.52 3325.95 1027.68 3325.95 860.603ZM3777.11 860.603C3777.11 765.547 3713.63 698.137 3626.39 698.137C3538.97 698.137 3475.66 765.376 3475.66 860.603C3475.66 956.853 3539.14 1023.07 3626.39 1023.07C3713.8 1023.07 3777.11 956.682 3777.11 860.603Z" fill="white"/>
<path d="M4412.61 860.603C4412.61 693.359 4538.22 565.878 4713.05 565.878C4887.7 565.878 5013.31 693.359 5013.31 860.603C5013.31 1027.85 4887.7 1156.52 4713.05 1156.52C4538.22 1156.52 4412.61 1027.68 4412.61 860.603ZM4863.6 860.603C4863.6 765.547 4800.12 698.137 4712.88 698.137C4625.63 698.137 4562.15 765.376 4562.15 860.603C4562.15 956.853 4625.63 1023.07 4712.88 1023.07C4800.12 1023.07 4863.6 956.682 4863.6 860.603Z" fill="white"/>
<path d="M5092.24 1143.21V822.034C5092.24 672.88 5186.78 565.708 5355.5 565.708C5523.03 565.708 5617.57 672.71 5617.57 822.034V1143.21H5466.85V833.98C5466.85 751.041 5429.68 699.161 5355.5 699.161C5281.33 699.161 5244.15 750.87 5244.15 833.98V1143.21H5092.24Z" fill="white"/>
<path d="M4367.12 699.324H4203.16V909.914C4203.16 983.297 4229.47 1016.92 4304.83 1016.92C4311.96 1016.92 4329.95 1016.92 4352.7 1015.72V1139.62C4321.63 1147.98 4294.14 1152.93 4264.09 1152.93C4137.3 1152.93 4051.07 1075.96 4051.07 930.393V699.324H3949.23V577.816H3974.69C3984.71 577.816 3994.72 575.768 4003.89 572.014C4013.22 568.089 4021.54 562.457 4028.67 555.289C4035.8 548.122 4041.4 539.759 4045.3 530.373C4049.21 520.987 4051.07 511.089 4051.07 501.02V386.51H4202.99V577.816H4366.95V699.324H4367.12Z" fill="white"/>
<path fill-rule="evenodd" clip-rule="evenodd" d="M333.319 1112.82C261.409 1112.82 203.111 1054.52 203.111 982.614C203.111 910.704 261.409 852.406 333.319 852.406C405.229 852.406 463.537 910.704 463.537 982.614C463.537 1054.52 405.239 1112.82 333.319 1112.82Z" fill="url(#paint0_linear_3766_734)"/>
<path fill-rule="evenodd" clip-rule="evenodd" d="M1682.53 712.736V1306.79C1682.53 1391.18 1614.11 1459.6 1529.72 1459.6H248.509L251.519 1456.13L512.455 1155.34C513.745 1153.98 515.016 1152.6 516.266 1151.2H516.276C555.741 1107.23 580.005 1047.55 580.005 981.823C580.005 846.685 477.45 737.109 350.973 737.109H-0.00585938V152.968C-0.00585938 68.5767 68.4136 0.157227 152.805 0.157227H969.949C1363.49 0.157227 1682.53 319.191 1682.53 712.736Z" fill="url(#paint1_linear_3766_734)"/>
<path fill-rule="evenodd" clip-rule="evenodd" d="M1327.42 773.665V1459.6H248.509L251.519 1456.13L512.455 1155.34C513.745 1153.98 515.016 1152.6 516.266 1151.2H516.276C555.741 1107.23 580.005 1047.55 580.005 981.824C580.005 846.685 477.45 737.11 350.973 737.11H-0.00585938V240.531H794.284C1088.73 240.531 1327.42 479.224 1327.42 773.665Z" fill="#6D4AFF"/>
<path fill-rule="evenodd" clip-rule="evenodd" d="M1327.42 773.665V1459.6H248.509L251.519 1456.13L512.455 1155.34C513.745 1153.98 515.016 1152.6 516.266 1151.2H516.276C555.741 1107.23 580.005 1047.55 580.005 981.824C580.005 846.685 477.45 737.11 350.973 737.11H-0.00585938V240.531H794.284C1088.73 240.531 1327.42 479.224 1327.42 773.665Z" fill="url(#paint2_linear_3766_734)" fill-opacity="0.9"/>
<path d="M516.046 1151.2L512.455 1155.34L251.519 1456.13L248.509 1459.6H152.805C68.4136 1459.6 -0.00585938 1391.18 -0.00585938 1306.79V1223.82L297.845 1226.13L350.973 1226.54C352.923 1226.54 354.873 1226.51 356.814 1226.46C358.714 1226.41 360.604 1226.33 362.484 1226.23C362.544 1226.23 362.594 1226.23 362.654 1226.22C363.595 1226.17 364.535 1226.11 365.475 1226.05C424.543 1222.04 477.53 1194.09 516.036 1151.2H516.046Z" fill="#FFBB93"/>
<defs>
<linearGradient id="paint0_linear_3766_734" x1="248.534" y1="1074.54" x2="432.469" y2="912.563" gradientUnits="userSpaceOnUse">
<stop stop-color="#EA777D"/>
<stop offset="0.479" stop-color="#DC6E8E"/>
<stop offset="0.764" stop-color="#D2699A"/>
<stop offset="1" stop-color="#C864A6"/>
</linearGradient>
<linearGradient id="paint1_linear_3766_734" x1="-210.798" y1="170.006" x2="1871.67" y2="979.013" gradientUnits="userSpaceOnUse">
<stop stop-color="#957AFD"/>
<stop offset="1" stop-color="#FFC6C6"/>
</linearGradient>
<linearGradient id="paint2_linear_3766_734" x1="1252.32" y1="425.506" x2="619.247" y2="1730.27" gradientUnits="userSpaceOnUse">
<stop offset="0.149916" stop-color="#FA528E" stop-opacity="0"/>
<stop offset="0.720842" stop-color="#FF8065"/>
<stop offset="1" stop-color="#FFA51F"/>
</linearGradient>
</defs>
</svg>
