<svg width="9751" height="2164" viewBox="0 0 9751 2164" fill="none" xmlns="http://www.w3.org/2000/svg">
<path d="M9029.79 1520.18C8940.99 1520.18 8869.15 1492.33 8814.26 1436.63C8759.37 1380.13 8731.92 1308.69 8731.92 1222.32C8731.92 1136.75 8759.37 1065.72 8814.26 1009.21C8869.15 952.705 8939.38 924.453 9024.94 924.453C9110.51 924.453 9180.33 952.705 9234.41 1009.21C9288.5 1065.72 9315.54 1136.75 9315.54 1222.32C9315.54 1243.3 9315.14 1261.47 9314.33 1276.8H8886.91C8904.67 1349.45 8951.08 1385.78 9026.15 1385.78C9084.27 1385.78 9124.63 1368.83 9147.24 1334.92H9298.59C9281.64 1397.08 9248.14 1443.49 9198.09 1474.17C9148.04 1504.84 9091.94 1520.18 9029.79 1520.18ZM8885.7 1165.41H9162.98C9157.33 1134.73 9141.58 1109.71 9115.75 1090.34C9089.92 1070.16 9059.65 1060.07 9024.94 1060.07C8989.42 1060.07 8959.15 1069.75 8934.13 1089.12C8909.91 1107.69 8893.77 1133.12 8885.7 1165.41Z" fill="white"/>
<path d="M8500.38 1506.86V681.077H8667.48V1506.86H8500.38Z" fill="white"/>
<path d="M8213.14 1506.86V681.077H8380.23V1506.86H8213.14Z" fill="white"/>
<path d="M6623.23 1506.86L6382.28 681.077H6556.64L6682.56 1160.56C6696.28 1214.65 6705.97 1260.26 6711.62 1297.39H6714.04C6720.5 1257.03 6730.59 1210.61 6744.31 1158.14L6876.29 681.077H7096.66L7228.64 1158.14C7243.98 1212.23 7254.48 1258.64 7260.13 1297.39H7262.55C7269.81 1248.15 7279.1 1202.54 7290.4 1160.56L7416.32 681.077H7590.68L7349.73 1506.86H7162.05L7007.06 929.296C6996.57 888.935 6990.11 854.225 6987.69 825.165H6985.27C6982.85 854.225 6976.39 888.935 6965.9 929.296L6810.91 1506.86H6623.23Z" fill="white"/>
<path d="M9750.63 1059.34H9585.36V1271.6C9585.36 1345.57 9611.88 1379.45 9687.84 1379.45C9695.03 1379.45 9713.16 1379.45 9736.09 1378.25V1503.13C9704.78 1511.56 9677.07 1516.55 9646.78 1516.55C9518.98 1516.55 9432.07 1438.97 9432.07 1292.24V1059.34H9329.42V936.866H9355.08C9365.18 936.866 9375.27 934.802 9384.51 931.018C9393.92 927.061 9402.3 921.385 9409.49 914.16C9416.68 906.936 9422.32 898.507 9426.26 889.047C9430.19 879.586 9432.07 869.609 9432.07 859.46V744.04H9585.19V936.866H9750.46V1059.34H9750.63Z" fill="white"/>
<path d="M7979.77 963.046C8024.69 986.592 8061.86 1022.68 8086.81 1066.85C8113.48 1114.8 8126.9 1169.11 8125.87 1223.94V1506.83H7989.93L7980.29 1421.93C7962.57 1452.69 7936.58 1477.78 7905.26 1494.63C7871.71 1511.98 7834.19 1520.75 7796.34 1519.89C7747.98 1520.41 7700.49 1507.52 7659.02 1482.6C7617.03 1457.16 7582.96 1420.72 7560.25 1377.41C7535.47 1329.64 7523.08 1276.53 7524.11 1222.74C7523.42 1169.8 7537.02 1117.73 7563.34 1071.67C7589.16 1026.98 7626.5 990.201 7671.75 965.28C7718.56 939.329 7771.21 925.923 7824.73 926.611C7878.59 925.579 7931.94 938.126 7979.77 963.046ZM7930.04 1343.56C7959.64 1315.37 7974.27 1275.67 7974.27 1222.74C7976.16 1179.42 7960.85 1137.15 7931.94 1105.01C7918.17 1090.57 7901.65 1079.23 7883.24 1071.32C7864.82 1063.42 7845.21 1059.46 7825.25 1059.46C7805.29 1059.46 7785.5 1063.42 7767.26 1071.32C7748.84 1079.23 7732.32 1090.57 7718.56 1105.01C7691.03 1138.01 7675.88 1179.6 7675.88 1222.56C7675.88 1265.53 7691.03 1307.12 7718.56 1340.12C7732.15 1354.9 7748.67 1366.41 7767.26 1374.32C7785.67 1382.05 7805.63 1386.01 7825.59 1385.49C7844.86 1385.84 7864.14 1382.23 7882.2 1375.01C7899.93 1367.96 7916.28 1357.13 7930.04 1343.56Z" fill="white"/>
<path d="M2764.17 1286.54V1506.78H2917.94V1296.16C2917.94 1275.72 2925.97 1255.97 2940.5 1241.53C2954.85 1227.1 2974.5 1218.86 2994.83 1218.86H3152.54C3226.01 1218.86 3296.57 1189.48 3348.51 1137.09C3400.46 1084.86 3429.67 1013.92 3429.67 940.047C3429.67 866.178 3400.46 795.23 3348.51 742.835C3296.57 690.611 3226.01 661.235 3152.37 661.235H2764.17V936.44H2917.94V806.74H3142.11C3176.97 806.74 3210.29 820.654 3234.89 845.392C3259.5 870.129 3273.34 903.628 3273.34 938.673C3273.34 973.718 3259.5 1007.22 3234.89 1031.95C3210.29 1056.69 3176.97 1070.61 3142.11 1070.61H2979.28C2951.09 1070.61 2923.07 1076.1 2897.1 1087.1C2870.96 1097.92 2847.38 1113.9 2827.39 1134C2807.4 1154.09 2791.68 1177.97 2780.74 1204.09C2769.81 1230.03 2764.17 1258.2 2764.17 1286.54Z" fill="white"/>
<path d="M3453.42 1506.78V1171.27C3453.42 1034.36 3532.88 925.445 3691.95 925.445C3717.41 925.101 3742.86 927.85 3767.81 933.862V1071.81C3749.7 1070.61 3734.15 1070.61 3726.8 1070.61C3642.57 1070.61 3606.35 1109.43 3606.35 1188.11V1506.78H3453.42Z" fill="white"/>
<path d="M3813.59 1222.3C3813.59 1053.94 3940.03 925.619 4116.02 925.619C4292.01 925.619 4418.44 1053.94 4418.44 1222.3C4418.44 1390.65 4292.01 1520.18 4116.02 1520.18C3940.03 1520.18 3813.59 1390.48 3813.59 1222.3ZM4267.75 1222.3C4267.75 1126.61 4203.84 1058.75 4116.02 1058.75C4028.03 1058.75 3964.29 1126.44 3964.29 1222.3C3964.29 1319.19 4028.2 1385.84 4116.02 1385.84C4204.01 1385.84 4267.75 1319.01 4267.75 1222.3Z" fill="white"/>
<path d="M4907.46 1222.3C4907.46 1053.94 5033.89 925.619 5209.88 925.619C5385.7 925.619 5512.13 1053.94 5512.13 1222.3C5512.13 1390.65 5385.7 1520.18 5209.88 1520.18C5033.89 1520.18 4907.46 1390.48 4907.46 1222.3ZM5361.43 1222.3C5361.43 1126.61 5297.53 1058.75 5209.71 1058.75C5121.89 1058.75 5057.98 1126.44 5057.98 1222.3C5057.98 1319.19 5121.89 1385.84 5209.71 1385.84C5297.53 1385.84 5361.43 1319.01 5361.43 1222.3Z" fill="white"/>
<path d="M5591.59 1506.78V1183.47C5591.59 1033.33 5686.76 925.447 5856.59 925.447C6025.23 925.447 6120.4 1033.16 6120.4 1183.47V1506.78H5968.68V1195.5C5968.68 1112.01 5931.26 1059.79 5856.59 1059.79C5781.93 1059.79 5744.51 1111.84 5744.51 1195.5V1506.78H5591.59Z" fill="white"/>
<path d="M4861.66 1059.95H4696.61V1271.94C4696.61 1345.8 4723.1 1379.65 4798.96 1379.65C4806.13 1379.65 4824.25 1379.65 4847.14 1378.44V1503.16C4815.87 1511.58 4788.19 1516.56 4757.95 1516.56C4630.32 1516.56 4543.52 1439.08 4543.52 1292.55V1059.95H4441V937.636H4466.63C4476.71 937.636 4486.79 935.574 4496.02 931.795C4505.42 927.844 4513.79 922.175 4520.97 914.96C4528.14 907.745 4533.78 899.327 4537.71 889.879C4541.64 880.43 4543.52 870.467 4543.52 860.331V745.062H4696.44V937.636H4861.49V1059.95H4861.66Z" fill="white"/>
<path d="M0 601.145C0 269.274 269.035 0.23877 600.906 0.23877H1562.36C1894.23 0.23877 2163.26 269.274 2163.26 601.145V1562.59C2163.26 1894.47 1894.23 2163.5 1562.36 2163.5H600.906C269.035 2163.5 0 1894.47 0 1562.59V601.145Z" fill="white"/>
<path fill-rule="evenodd" clip-rule="evenodd" d="M728.393 1367.79C674.962 1367.79 631.645 1324.48 631.645 1271.05C631.645 1217.61 674.962 1174.3 728.393 1174.3C781.824 1174.3 825.148 1217.61 825.148 1271.05C825.148 1324.48 781.831 1367.79 728.393 1367.79Z" fill="url(#paint0_linear_3766_737)"/>
<path fill-rule="evenodd" clip-rule="evenodd" d="M1730.89 1070.52V1511.92C1730.89 1574.62 1680.05 1625.46 1617.35 1625.46H665.376L667.612 1622.88L861.495 1399.38C862.454 1398.37 863.398 1397.35 864.326 1396.31H864.334C893.658 1363.64 911.686 1319.3 911.686 1270.46C911.686 1170.05 835.486 1088.63 741.509 1088.63H480.723V654.597C480.723 591.892 531.56 541.054 594.266 541.054H1201.43C1493.84 541.054 1730.89 778.105 1730.89 1070.52Z" fill="url(#paint1_linear_3766_737)"/>
<path fill-rule="evenodd" clip-rule="evenodd" d="M1467.03 1115.79V1625.46H665.376L667.612 1622.88L861.495 1399.38C862.454 1398.37 863.398 1397.35 864.326 1396.31H864.334C893.658 1363.64 911.686 1319.3 911.686 1270.46C911.686 1170.05 835.486 1088.63 741.509 1088.63H480.723V719.658H1070.9C1289.68 719.658 1467.03 897.013 1467.03 1115.79Z" fill="#6D4AFF"/>
<path fill-rule="evenodd" clip-rule="evenodd" d="M1467.03 1115.79V1625.46H665.376L667.612 1622.88L861.495 1399.38C862.454 1398.37 863.398 1397.35 864.326 1396.31H864.334C893.658 1363.64 911.686 1319.3 911.686 1270.46C911.686 1170.05 835.486 1088.63 741.509 1088.63H480.723V719.658H1070.9C1289.68 719.658 1467.03 897.013 1467.03 1115.79Z" fill="url(#paint2_linear_3766_737)" fill-opacity="0.9"/>
<path d="M864.163 1396.31L861.495 1399.38L667.612 1622.88L665.376 1625.46H594.266C531.56 1625.46 480.723 1574.62 480.723 1511.92V1450.27L702.034 1451.98L741.509 1452.29C742.958 1452.29 744.408 1452.26 745.849 1452.23C747.261 1452.19 748.666 1452.13 750.063 1452.06C750.107 1452.06 750.145 1452.06 750.189 1452.05C750.888 1452.01 751.586 1451.97 752.285 1451.92C796.174 1448.94 835.545 1428.18 864.156 1396.31H864.163Z" fill="#FFBB93"/>
<defs>
<linearGradient id="paint0_linear_3766_737" x1="665.395" y1="1339.35" x2="802.064" y2="1219" gradientUnits="userSpaceOnUse">
<stop stop-color="#EA777D"/>
<stop offset="0.479" stop-color="#DC6E8E"/>
<stop offset="0.764" stop-color="#D2699A"/>
<stop offset="1" stop-color="#C864A6"/>
</linearGradient>
<linearGradient id="paint1_linear_3766_737" x1="324.098" y1="667.257" x2="1871.43" y2="1268.37" gradientUnits="userSpaceOnUse">
<stop stop-color="#957AFD"/>
<stop offset="1" stop-color="#FFC6C6"/>
</linearGradient>
<linearGradient id="paint2_linear_3766_737" x1="1411.23" y1="857.099" x2="940.845" y2="1826.57" gradientUnits="userSpaceOnUse">
<stop offset="0.149916" stop-color="#FA528E" stop-opacity="0"/>
<stop offset="0.720842" stop-color="#FF8065"/>
<stop offset="1" stop-color="#FFA51F"/>
</linearGradient>
</defs>
</svg>
