<svg width="9751" height="2164" viewBox="0 0 9751 2164" fill="none" xmlns="http://www.w3.org/2000/svg">
<path d="M9029.79 1519.95C8940.99 1519.95 8869.15 1492.1 8814.26 1436.4C8759.37 1379.9 8731.92 1308.46 8731.92 1222.08C8731.92 1136.52 8759.37 1065.48 8814.26 1008.98C8869.15 952.474 8939.38 924.222 9024.94 924.222C9110.51 924.222 9180.33 952.474 9234.41 1008.98C9288.5 1065.48 9315.54 1136.52 9315.54 1222.08C9315.54 1243.07 9315.14 1261.23 9314.33 1276.57H8886.91C8904.67 1349.22 8951.08 1385.55 9026.15 1385.55C9084.27 1385.55 9124.63 1368.59 9147.24 1334.69H9298.59C9281.64 1396.85 9248.14 1443.26 9198.09 1473.94C9148.04 1504.61 9091.94 1519.95 9029.79 1519.95ZM8885.7 1165.18H9162.98C9157.33 1134.5 9141.58 1109.48 9115.75 1090.1C9089.92 1069.92 9059.65 1059.83 9024.94 1059.83C8989.42 1059.83 8959.15 1069.52 8934.13 1088.89C8909.91 1107.46 8893.77 1132.89 8885.7 1165.18Z" fill="#6D4AFF"/>
<path d="M8500.38 1506.63V680.846H8667.48V1506.63H8500.38Z" fill="#6D4AFF"/>
<path d="M8213.14 1506.63V680.846H8380.23V1506.63H8213.14Z" fill="#6D4AFF"/>
<path d="M6623.23 1506.63L6382.28 680.846H6556.64L6682.56 1160.33C6696.28 1214.42 6705.97 1260.02 6711.62 1297.16H6714.04C6720.5 1256.8 6730.59 1210.38 6744.31 1157.91L6876.29 680.846H7096.66L7228.64 1157.91C7243.98 1211.99 7254.48 1258.41 7260.13 1297.16H7262.55C7269.81 1247.92 7279.1 1202.31 7290.4 1160.33L7416.32 680.846H7590.68L7349.73 1506.63H7162.05L7007.06 929.065C6996.57 888.705 6990.11 853.994 6987.69 824.934H6985.27C6982.85 853.994 6976.39 888.705 6965.9 929.065L6810.91 1506.63H6623.23Z" fill="#6D4AFF"/>
<path d="M9750.63 1059.11H9585.36V1271.37C9585.36 1345.34 9611.88 1379.22 9687.84 1379.22C9695.03 1379.22 9713.16 1379.22 9736.09 1378.02V1502.9C9704.78 1511.33 9677.07 1516.32 9646.78 1516.32C9518.98 1516.32 9432.07 1438.74 9432.07 1292.01V1059.11H9329.42V936.635H9355.08C9365.18 936.635 9375.27 934.571 9384.51 930.787C9393.92 926.83 9402.3 921.154 9409.49 913.929C9416.68 906.705 9422.32 898.276 9426.26 888.816C9430.19 879.355 9432.07 869.378 9432.07 859.229V743.809H9585.19V936.635H9750.46V1059.11H9750.63Z" fill="#6D4AFF"/>
<path d="M7979.77 962.815C8024.69 986.361 8061.86 1022.45 8086.81 1066.62C8113.48 1114.57 8126.9 1168.88 8125.87 1223.71V1506.6H7989.93L7980.29 1421.7C7962.57 1452.46 7936.58 1477.55 7905.26 1494.4C7871.71 1511.75 7834.19 1520.52 7796.34 1519.66C7747.98 1520.18 7700.49 1507.29 7659.02 1482.36C7617.03 1456.93 7582.96 1420.49 7560.25 1377.18C7535.47 1329.4 7523.08 1276.3 7524.11 1222.5C7523.42 1169.57 7537.02 1117.49 7563.34 1071.43C7589.16 1026.75 7626.5 989.97 7671.75 965.049C7718.56 939.098 7771.21 925.692 7824.73 926.38C7878.59 925.348 7931.94 937.895 7979.77 962.815ZM7930.04 1343.33C7959.64 1315.14 7974.27 1275.44 7974.27 1222.5C7976.16 1179.19 7960.85 1136.92 7931.94 1104.78C7918.17 1090.34 7901.65 1079 7883.24 1071.09C7864.82 1063.18 7845.21 1059.23 7825.25 1059.23C7805.29 1059.23 7785.5 1063.18 7767.26 1071.09C7748.84 1079 7732.32 1090.34 7718.56 1104.78C7691.03 1137.77 7675.88 1179.37 7675.88 1222.33C7675.88 1265.3 7691.03 1306.89 7718.56 1339.89C7732.15 1354.67 7748.67 1366.18 7767.26 1374.09C7785.67 1381.82 7805.63 1385.78 7825.59 1385.26C7844.86 1385.6 7864.14 1382 7882.2 1374.78C7899.93 1367.73 7916.28 1356.9 7930.04 1343.33Z" fill="#6D4AFF"/>
<path d="M2764.17 1286.32V1506.55H2917.94V1295.94C2917.94 1275.5 2925.97 1255.74 2940.5 1241.31C2954.85 1226.88 2974.5 1218.64 2994.83 1218.64H3152.54C3226.01 1218.64 3296.57 1189.26 3348.51 1136.86C3400.46 1084.64 3429.67 1013.69 3429.67 939.824C3429.67 865.955 3400.46 795.006 3348.51 742.611C3296.57 690.387 3226.01 661.012 3152.37 661.012H2764.17V936.216H2917.94V806.516H3142.11C3176.97 806.516 3210.29 820.431 3234.89 845.168C3259.5 869.906 3273.34 903.405 3273.34 938.449C3273.34 973.494 3259.5 1006.99 3234.89 1031.73C3210.29 1056.47 3176.97 1070.38 3142.11 1070.38H2979.28C2951.09 1070.38 2923.07 1075.88 2897.1 1086.87C2870.96 1097.7 2847.38 1113.67 2827.39 1133.77C2807.4 1153.87 2791.68 1177.75 2780.74 1203.86C2769.81 1229.8 2764.17 1257.97 2764.17 1286.32Z" fill="#1B1340"/>
<path d="M3453.42 1506.55V1171.05C3453.42 1034.13 3532.88 925.221 3691.95 925.221C3717.41 924.878 3742.86 927.626 3767.81 933.639V1071.58C3749.7 1070.38 3734.15 1070.38 3726.8 1070.38C3642.57 1070.38 3606.35 1109.21 3606.35 1187.89V1506.55H3453.42Z" fill="#1B1340"/>
<path d="M3813.59 1222.07C3813.59 1053.72 3940.03 925.395 4116.02 925.395C4292.01 925.395 4418.44 1053.72 4418.44 1222.07C4418.44 1390.43 4292.01 1519.95 4116.02 1519.95C3940.03 1519.95 3813.59 1390.25 3813.59 1222.07ZM4267.75 1222.07C4267.75 1126.39 4203.84 1058.53 4116.02 1058.53C4028.03 1058.53 3964.29 1126.22 3964.29 1222.07C3964.29 1318.96 4028.2 1385.62 4116.02 1385.62C4204.01 1385.62 4267.75 1318.79 4267.75 1222.07Z" fill="#1B1340"/>
<path d="M4907.46 1222.07C4907.46 1053.72 5033.89 925.395 5209.88 925.395C5385.7 925.395 5512.13 1053.72 5512.13 1222.07C5512.13 1390.43 5385.7 1519.95 5209.88 1519.95C5033.89 1519.95 4907.46 1390.25 4907.46 1222.07ZM5361.43 1222.07C5361.43 1126.39 5297.53 1058.53 5209.71 1058.53C5121.89 1058.53 5057.98 1126.22 5057.98 1222.07C5057.98 1318.96 5121.89 1385.62 5209.71 1385.62C5297.53 1385.62 5361.43 1318.79 5361.43 1222.07Z" fill="#1B1340"/>
<path d="M5591.59 1506.55V1183.25C5591.59 1033.11 5686.76 925.224 5856.59 925.224C6025.23 925.224 6120.4 1032.93 6120.4 1183.25V1506.55H5968.68V1195.27C5968.68 1111.79 5931.26 1059.56 5856.59 1059.56C5781.93 1059.56 5744.51 1111.61 5744.51 1195.27V1506.55H5591.59Z" fill="#1B1340"/>
<path d="M4861.66 1059.73H4696.61V1271.71C4696.61 1345.58 4723.1 1379.42 4798.96 1379.42C4806.13 1379.42 4824.25 1379.42 4847.14 1378.22V1502.94C4815.87 1511.36 4788.19 1516.34 4757.95 1516.34C4630.32 1516.34 4543.52 1438.86 4543.52 1292.33V1059.73H4441V937.412H4466.63C4476.71 937.412 4486.79 935.351 4496.02 931.572C4505.42 927.62 4513.79 921.951 4520.97 914.736C4528.14 907.521 4533.78 899.104 4537.71 889.655C4541.64 880.207 4543.52 870.243 4543.52 860.108V744.838H4696.44V937.412H4861.49V1059.73H4861.66Z" fill="#1B1340"/>
<path d="M0 600.921C0 269.05 269.035 0.0151367 600.906 0.0151367H1562.36C1894.23 0.0151367 2163.26 269.05 2163.26 600.921V1562.37C2163.26 1894.24 1894.23 2163.28 1562.36 2163.28H600.906C269.035 2163.28 0 1894.24 0 1562.37V600.921Z" fill="white"/>
<path fill-rule="evenodd" clip-rule="evenodd" d="M728.393 1367.57C674.962 1367.57 631.645 1324.25 631.645 1270.82C631.645 1217.39 674.962 1174.07 728.393 1174.07C781.824 1174.07 825.148 1217.39 825.148 1270.82C825.148 1324.25 781.831 1367.57 728.393 1367.57Z" fill="url(#paint0_linear_3766_736)"/>
<path fill-rule="evenodd" clip-rule="evenodd" d="M1730.89 1070.3V1511.69C1730.89 1574.4 1680.05 1625.24 1617.35 1625.24H665.376L667.612 1622.66L861.495 1399.16C862.454 1398.15 863.398 1397.12 864.326 1396.08H864.334C893.658 1363.42 911.686 1319.07 911.686 1270.24C911.686 1169.82 835.486 1088.41 741.509 1088.41H480.723V654.373C480.723 591.668 531.56 540.831 594.266 540.831H1201.43C1493.84 540.831 1730.89 777.882 1730.89 1070.3Z" fill="url(#paint1_linear_3766_736)"/>
<path fill-rule="evenodd" clip-rule="evenodd" d="M1467.03 1115.57V1625.24H665.376L667.612 1622.66L861.495 1399.16C862.454 1398.15 863.398 1397.12 864.326 1396.08H864.334C893.658 1363.42 911.686 1319.07 911.686 1270.23C911.686 1169.82 835.486 1088.41 741.509 1088.41H480.723V719.434H1070.9C1289.68 719.434 1467.03 896.79 1467.03 1115.57Z" fill="#6D4AFF"/>
<path fill-rule="evenodd" clip-rule="evenodd" d="M1467.03 1115.57V1625.24H665.376L667.612 1622.66L861.495 1399.16C862.454 1398.15 863.398 1397.12 864.326 1396.08H864.334C893.658 1363.42 911.686 1319.07 911.686 1270.23C911.686 1169.82 835.486 1088.41 741.509 1088.41H480.723V719.434H1070.9C1289.68 719.434 1467.03 896.79 1467.03 1115.57Z" fill="url(#paint2_linear_3766_736)" fill-opacity="0.9"/>
<path d="M864.163 1396.08L861.495 1399.16L667.612 1622.66L665.376 1625.24H594.266C531.56 1625.24 480.723 1574.4 480.723 1511.69V1450.04L702.034 1451.76L741.509 1452.06C742.958 1452.06 744.408 1452.04 745.849 1452C747.261 1451.97 748.666 1451.91 750.063 1451.83C750.107 1451.83 750.145 1451.83 750.189 1451.83C750.888 1451.79 751.586 1451.74 752.285 1451.7C796.174 1448.72 835.545 1427.96 864.156 1396.08H864.163Z" fill="#FFBB93"/>
<defs>
<linearGradient id="paint0_linear_3766_736" x1="665.395" y1="1339.12" x2="802.064" y2="1218.77" gradientUnits="userSpaceOnUse">
<stop stop-color="#EA777D"/>
<stop offset="0.479" stop-color="#DC6E8E"/>
<stop offset="0.764" stop-color="#D2699A"/>
<stop offset="1" stop-color="#C864A6"/>
</linearGradient>
<linearGradient id="paint1_linear_3766_736" x1="324.098" y1="667.033" x2="1871.43" y2="1268.15" gradientUnits="userSpaceOnUse">
<stop stop-color="#957AFD"/>
<stop offset="1" stop-color="#FFC6C6"/>
</linearGradient>
<linearGradient id="paint2_linear_3766_736" x1="1411.23" y1="856.876" x2="940.845" y2="1826.35" gradientUnits="userSpaceOnUse">
<stop offset="0.149916" stop-color="#FA528E" stop-opacity="0"/>
<stop offset="0.720842" stop-color="#FF8065"/>
<stop offset="1" stop-color="#FFA51F"/>
</linearGradient>
</defs>
</svg>
