<svg width="9266" height="1461" viewBox="0 0 9266 1461" fill="none" xmlns="http://www.w3.org/2000/svg">
<path d="M8554.09 1155.32C8466.46 1155.32 8395.57 1127.84 8341.4 1072.88C8287.23 1017.12 8260.15 946.618 8260.15 861.383C8260.15 776.946 8287.23 706.846 8341.4 651.085C8395.57 595.325 8464.87 567.444 8549.31 567.444C8633.74 567.444 8702.65 595.325 8756.02 651.085C8809.39 706.846 8836.08 776.946 8836.08 861.383C8836.08 882.095 8835.68 900.018 8834.88 915.153H8413.09C8430.62 986.845 8476.42 1022.69 8550.5 1022.69C8607.86 1022.69 8647.68 1005.96 8669.99 972.507H8819.35C8802.62 1033.84 8769.56 1079.65 8720.17 1109.92C8670.79 1140.19 8615.42 1155.32 8554.09 1155.32ZM8411.9 805.224H8685.52C8679.95 774.954 8664.41 750.26 8638.92 731.142C8613.43 711.227 8583.56 701.27 8549.31 701.27C8514.26 701.27 8484.39 710.829 8459.69 729.947C8435.79 748.269 8419.86 773.361 8411.9 805.224Z" fill="#6D4AFF"/>
<path d="M8031.66 1142.18V327.274H8196.55V1142.18H8031.66Z" fill="#6D4AFF"/>
<path d="M7748.2 1142.18V327.274H7913.09V1142.18H7748.2Z" fill="#6D4AFF"/>
<path d="M6179.23 1142.18L5941.45 327.275H6113.52L6237.78 800.446C6251.32 853.817 6260.88 898.824 6266.46 935.466H6268.85C6275.22 895.637 6285.18 849.834 6298.72 798.056L6428.96 327.275H6646.43L6776.67 798.056C6791.81 851.427 6802.16 897.23 6807.74 935.466H6810.13C6817.3 886.875 6826.46 841.868 6837.61 800.446L6961.88 327.275H7133.94L6896.16 1142.18H6710.95L6558.01 572.224C6547.65 532.395 6541.28 498.142 6538.89 469.465H6536.5C6534.11 498.142 6527.74 532.395 6517.38 572.224L6364.44 1142.18H6179.23Z" fill="#6D4AFF"/>
<path d="M9265.44 700.553H9102.35V910.02C9102.35 983.011 9128.52 1016.45 9203.48 1016.45C9210.57 1016.45 9228.46 1016.45 9251.09 1015.26V1138.5C9220.19 1146.82 9192.84 1151.74 9162.96 1151.74C9036.84 1151.74 8951.07 1075.18 8951.07 930.39V700.553H8849.78V579.694H8875.1C8885.06 579.694 8895.02 577.657 8904.14 573.922C8913.43 570.018 8921.7 564.417 8928.79 557.287C8935.88 550.158 8941.45 541.84 8945.33 532.504C8949.22 523.168 8951.07 513.323 8951.07 503.308V389.408H9102.18V579.694H9265.27V700.553H9265.44Z" fill="#6D4AFF"/>
<path d="M7517.91 605.529C7562.23 628.765 7598.91 664.381 7623.53 707.969C7649.85 755.287 7663.1 808.882 7662.08 862.984V1142.15H7527.92L7518.42 1058.37C7500.92 1088.72 7475.28 1113.49 7444.38 1130.11C7411.26 1147.24 7374.25 1155.89 7336.89 1155.04C7289.17 1155.55 7242.3 1142.83 7201.38 1118.23C7159.94 1093.13 7126.32 1057.18 7103.9 1014.44C7079.45 967.289 7067.23 914.883 7068.24 861.797C7067.57 809.56 7080.98 758.171 7106.96 712.717C7132.43 668.621 7169.28 632.326 7213.94 607.734C7260.13 582.124 7312.09 568.895 7364.91 569.574C7418.06 568.556 7470.7 580.937 7517.91 605.529ZM7468.83 981.027C7498.04 953.212 7512.47 914.035 7512.47 861.797C7514.34 819.058 7499.23 777.336 7470.7 745.62C7457.11 731.374 7440.81 720.18 7422.64 712.378C7404.47 704.576 7385.11 700.676 7365.42 700.676C7345.72 700.676 7326.19 704.576 7308.19 712.378C7290.02 720.18 7273.72 731.374 7260.13 745.62C7232.96 778.184 7218.02 819.227 7218.02 861.628C7218.02 904.028 7232.96 945.072 7260.13 977.635C7273.55 992.221 7289.85 1003.58 7308.19 1011.39C7326.36 1019.02 7346.06 1022.92 7365.75 1022.41C7384.77 1022.75 7403.79 1019.19 7421.62 1012.06C7439.11 1005.11 7455.25 994.426 7468.83 981.027Z" fill="#6D4AFF"/>
<path d="M2283.44 923.203V1141.98H2436.2V932.759C2436.2 912.451 2444.18 892.826 2458.61 878.491C2472.86 864.155 2492.38 855.964 2512.58 855.964H2669.25C2742.24 855.964 2812.34 826.782 2863.94 774.731C2915.54 722.851 2944.56 652.37 2944.56 578.988C2944.56 505.605 2915.54 435.124 2863.94 383.074C2812.34 331.194 2742.24 302.012 2669.08 302.012H2283.44V575.404H2436.2V446.558H2658.89C2693.52 446.558 2726.62 460.381 2751.06 484.956C2775.5 509.53 2789.25 542.809 2789.25 577.623C2789.25 612.437 2775.5 645.715 2751.06 670.289C2726.62 694.864 2693.52 708.687 2658.89 708.687H2497.14C2469.13 708.687 2441.29 714.148 2415.49 725.07C2389.52 735.821 2366.1 751.693 2346.24 771.659C2326.38 791.626 2310.77 815.348 2299.9 841.287C2289.04 867.057 2283.44 895.044 2283.44 923.203Z" fill="#1B1340"/>
<path d="M2968.16 1141.98V808.691C2968.16 672.678 3047.08 564.482 3205.11 564.482C3230.4 564.14 3255.69 566.871 3280.47 572.844V709.881C3262.48 708.687 3247.03 708.687 3239.73 708.687C3156.05 708.687 3120.07 747.255 3120.07 825.416V1141.98H2968.16Z" fill="#1B1340"/>
<path d="M3325.95 859.379C3325.95 692.135 3451.56 564.655 3626.39 564.655C3801.22 564.655 3926.82 692.135 3926.82 859.379C3926.82 1026.62 3801.22 1155.3 3626.39 1155.3C3451.56 1155.3 3325.95 1026.45 3325.95 859.379ZM3777.11 859.379C3777.11 764.323 3713.63 696.914 3626.39 696.914C3538.97 696.914 3475.66 764.153 3475.66 859.379C3475.66 955.63 3539.14 1021.84 3626.39 1021.84C3713.8 1021.84 3777.11 955.459 3777.11 859.379Z" fill="#1B1340"/>
<path d="M4412.61 859.379C4412.61 692.135 4538.22 564.655 4713.05 564.655C4887.7 564.655 5013.31 692.135 5013.31 859.379C5013.31 1026.62 4887.7 1155.3 4713.05 1155.3C4538.22 1155.3 4412.61 1026.45 4412.61 859.379ZM4863.6 859.379C4863.6 764.323 4800.12 696.914 4712.88 696.914C4625.63 696.914 4562.15 764.153 4562.15 859.379C4562.15 955.63 4625.63 1021.84 4712.88 1021.84C4800.12 1021.84 4863.6 955.459 4863.6 859.379Z" fill="#1B1340"/>
<path d="M5092.24 1141.99V820.811C5092.24 671.657 5186.78 564.484 5355.5 564.484C5523.03 564.484 5617.57 671.486 5617.57 820.811V1141.99H5466.85V832.757C5466.85 749.817 5429.68 697.938 5355.5 697.938C5281.33 697.938 5244.15 749.647 5244.15 832.757V1141.99H5092.24Z" fill="#1B1340"/>
<path d="M4367.12 698.1H4203.16V908.691C4203.16 982.073 4229.47 1015.69 4304.83 1015.69C4311.96 1015.69 4329.95 1015.69 4352.7 1014.5V1138.39C4321.63 1146.76 4294.14 1151.71 4264.09 1151.71C4137.3 1151.71 4051.07 1074.74 4051.07 929.169V698.1H3949.23V576.592H3974.69C3984.71 576.592 3994.72 574.545 4003.89 570.79C4013.22 566.865 4021.54 561.233 4028.67 554.066C4035.8 546.898 4041.4 538.536 4045.3 529.15C4049.21 519.764 4051.07 509.866 4051.07 499.797V385.286H4202.99V576.592H4366.95V698.1H4367.12Z" fill="#1B1340"/>
<path fill-rule="evenodd" clip-rule="evenodd" d="M333.319 1113.3C261.409 1113.3 203.111 1055 203.111 983.09C203.111 911.18 261.409 852.882 333.319 852.882C405.229 852.882 463.537 911.18 463.537 983.09C463.537 1055 405.239 1113.3 333.319 1113.3Z" fill="url(#paint0_linear_3766_733)"/>
<path fill-rule="evenodd" clip-rule="evenodd" d="M1682.53 713.213V1307.26C1682.53 1391.66 1614.11 1460.08 1529.72 1460.08H248.509L251.519 1456.61L512.455 1155.81C513.745 1154.45 515.016 1153.07 516.266 1151.67H516.276C555.741 1107.71 580.005 1048.03 580.005 982.3C580.005 847.161 477.45 737.586 350.973 737.586H-0.00585938V153.445C-0.00585938 69.0533 68.4136 0.633789 152.805 0.633789H969.949C1363.49 0.633789 1682.53 319.668 1682.53 713.213Z" fill="url(#paint1_linear_3766_733)"/>
<path fill-rule="evenodd" clip-rule="evenodd" d="M1327.42 774.141V1460.08H248.509L251.519 1456.61L512.455 1155.81C513.745 1154.45 515.016 1153.07 516.266 1151.67H516.276C555.741 1107.71 580.005 1048.03 580.005 982.3C580.005 847.161 477.45 737.586 350.973 737.586H-0.00585938V241.007H794.284C1088.73 241.007 1327.42 479.7 1327.42 774.141Z" fill="#6D4AFF"/>
<path fill-rule="evenodd" clip-rule="evenodd" d="M1327.42 774.141V1460.08H248.509L251.519 1456.61L512.455 1155.81C513.745 1154.45 515.016 1153.07 516.266 1151.67H516.276C555.741 1107.71 580.005 1048.03 580.005 982.3C580.005 847.161 477.45 737.586 350.973 737.586H-0.00585938V241.007H794.284C1088.73 241.007 1327.42 479.7 1327.42 774.141Z" fill="url(#paint2_linear_3766_733)" fill-opacity="0.9"/>
<path d="M516.046 1151.67L512.455 1155.81L251.519 1456.61L248.509 1460.08H152.805C68.4136 1460.08 -0.00585938 1391.66 -0.00585938 1307.26V1224.29L297.845 1226.6L350.973 1227.01C352.923 1227.01 354.873 1226.98 356.814 1226.93C358.714 1226.88 360.604 1226.8 362.484 1226.7C362.544 1226.7 362.594 1226.7 362.654 1226.69C363.595 1226.64 364.535 1226.58 365.475 1226.52C424.543 1222.51 477.53 1194.57 516.036 1151.67H516.046Z" fill="#FFBB93"/>
<defs>
<linearGradient id="paint0_linear_3766_733" x1="248.534" y1="1075.01" x2="432.469" y2="913.04" gradientUnits="userSpaceOnUse">
<stop stop-color="#EA777D"/>
<stop offset="0.479" stop-color="#DC6E8E"/>
<stop offset="0.764" stop-color="#D2699A"/>
<stop offset="1" stop-color="#C864A6"/>
</linearGradient>
<linearGradient id="paint1_linear_3766_733" x1="-210.798" y1="170.483" x2="1871.67" y2="979.49" gradientUnits="userSpaceOnUse">
<stop stop-color="#957AFD"/>
<stop offset="1" stop-color="#FFC6C6"/>
</linearGradient>
<linearGradient id="paint2_linear_3766_733" x1="1252.32" y1="425.982" x2="619.247" y2="1730.75" gradientUnits="userSpaceOnUse">
<stop offset="0.149916" stop-color="#FA528E" stop-opacity="0"/>
<stop offset="0.720842" stop-color="#FF8065"/>
<stop offset="1" stop-color="#FFA51F"/>
</linearGradient>
</defs>
</svg>
