<svg width="1965" height="500" viewBox="0 0 1965 500" fill="none" xmlns="http://www.w3.org/2000/svg">
<g clip-path="url(#clip0_11415_192970)">
<path d="M1.2969 364.079V492.26H91.2702V369.625C91.2702 357.694 96.0099 346.251 104.446 337.815C112.883 329.378 124.326 324.638 136.257 324.638H228.51C271.547 324.625 312.816 307.521 343.244 277.086C373.672 246.651 390.767 205.378 390.77 162.341V162.341C390.77 119.299 373.673 78.0182 343.24 47.58C312.806 17.1418 271.529 0.0385194 228.486 0.0319824L1.2969 0.0319824V160.258H91.2702V84.7178H222.422C242.785 84.7178 262.316 92.8056 276.717 107.203C291.119 121.6 299.213 141.127 299.219 161.491V161.491C299.219 181.859 291.128 201.393 276.726 215.795C262.324 230.198 242.79 238.289 222.422 238.289H127.075C110.554 238.281 94.1937 241.529 78.9292 247.848C63.6646 254.166 49.7952 263.432 38.1139 275.114C26.4326 286.797 17.1684 300.667 10.8511 315.932C4.53379 331.197 1.28718 347.558 1.2969 364.079V364.079Z" fill="white"/>
<path d="M136.232 324.638C100.446 324.642 66.1267 338.859 40.8221 364.164C15.5175 389.468 1.30014 423.788 1.29688 459.574L1.29688 492.26H91.2702V369.625C91.2702 357.698 96.0064 346.259 104.438 337.823C112.869 329.387 124.305 324.645 136.232 324.638V324.638Z" fill="url(#paint0_linear_11415_192970)"/>
<path d="M404.719 492.272V296.993C404.719 217.324 451.246 153.874 544.313 153.874C559.251 153.656 574.157 155.313 588.683 158.804V239.139C578.108 238.437 568.963 238.437 564.711 238.437C515.411 238.437 494.211 260.991 494.211 306.816V492.272H404.719Z" fill="white"/>
<path d="M615.508 326.647C615.508 228.65 689.532 153.923 792.472 153.923C895.411 153.923 969.423 228.601 969.423 326.647C969.423 424.694 895.399 500.025 792.472 500.025C689.545 500.025 615.508 424.595 615.508 326.647ZM881.311 326.647C881.311 270.95 843.941 231.473 792.484 231.473C741.027 231.473 703.645 270.913 703.645 326.647C703.645 383.047 741.014 421.822 792.484 421.822C843.954 421.822 881.311 382.998 881.311 326.647Z" fill="white"/>
<path d="M1255.63 326.647C1255.63 228.65 1329.66 153.923 1432.6 153.923C1535.54 153.923 1609.55 228.601 1609.55 326.647C1609.55 424.694 1535.52 500.074 1432.6 500.074C1329.67 500.074 1255.63 424.595 1255.63 326.647ZM1521.42 326.647C1521.42 270.95 1484.05 231.473 1432.6 231.473C1381.14 231.473 1343.76 270.913 1343.76 326.647C1343.76 383.047 1381.13 421.822 1432.6 421.822C1484.07 421.822 1521.42 382.998 1521.42 326.647V326.647Z" fill="white"/>
<path d="M1656.08 492.272V304.043C1656.08 216.621 1711.78 153.874 1811.18 153.874C1909.88 153.874 1965.57 216.621 1965.57 304.043V492.272H1876.75V311.093C1876.75 262.458 1854.88 232.138 1811.18 232.138C1767.47 232.138 1745.61 262.458 1745.61 311.093V492.272H1656.08Z" fill="white"/>
<path d="M1228.88 232.126H1132.27V355.501C1132.27 398.503 1147.78 418.248 1192.2 418.248C1196.42 418.248 1206.99 418.248 1220.4 417.545V490.165C1202.07 495.095 1185.89 497.917 1168.22 497.917C1093.5 497.967 1042.77 452.795 1042.77 367.493V232.126H982.805V160.924H997.755C1003.67 160.927 1009.53 159.764 1014.99 157.502C1020.45 155.24 1025.42 151.922 1029.6 147.739C1033.78 143.556 1037.09 138.59 1039.35 133.125C1041.61 127.659 1042.77 121.802 1042.77 115.888V48.8271H1132.3V160.924H1228.88V232.126Z" fill="white"/>
</g>
<defs>
<linearGradient id="paint0_linear_11415_192970" x1="68.7645" y1="468.006" x2="68.7645" y2="199.819" gradientUnits="userSpaceOnUse">
<stop stop-color="white"/>
<stop offset="1" stop-color="#1C0554"/>
</linearGradient>
<clipPath id="clip0_11415_192970">
<rect width="1964" height="500" fill="white" transform="translate(0.726562)"/>
</clipPath>
</defs>
</svg>
