<svg width="4574" height="754" viewBox="0 0 4574 754" fill="none" xmlns="http://www.w3.org/2000/svg">
<g clip-path="url(#clip0_11864_192205)">
<path d="M3507.34 180.584C3541.55 199.576 3569.9 227.55 3589.38 261.605C3608.68 296.408 3618.84 335.609 3618.84 375.465C3618.84 415.32 3608.68 454.521 3589.38 489.324C3569.99 523.566 3541.55 551.727 3507.34 570.813C3470.7 591.021 3429.39 601.219 3387.63 600.377H3240.23V150.926H3387.63C3429.39 150.084 3470.7 160.376 3507.34 180.584ZM3392.57 520.292C3417.55 520.759 3442.17 514.304 3463.8 501.674C3485.33 489.043 3503.05 470.613 3514.89 448.627C3526.73 426.079 3532.98 401.006 3532.98 375.558C3532.98 350.11 3526.82 325.037 3514.89 302.49C3503.23 280.971 3486.08 263.008 3465.01 250.472C3443.1 237.467 3418.02 230.918 3392.47 231.292H3324.23V519.73L3392.57 520.292Z" fill="white"/>
<path d="M3655.67 417.564C3654.18 382.293 3666.3 347.864 3689.51 321.2C3712.26 296.594 3744.24 284.245 3785.64 284.245C3799.53 284.151 3813.42 285.742 3827.03 288.829V363.862C3820.5 363.862 3813.05 363.207 3804.75 363.207C3782 363.207 3765.31 368.446 3754.78 379.018C3749.09 385.567 3744.8 393.239 3742.1 401.472C3739.39 409.705 3738.37 418.406 3739.02 427.107V600.282H3656.14L3655.67 417.564Z" fill="white"/>
<path d="M3860.69 226.333C3855.75 221.749 3851.83 216.229 3849.13 210.054C3846.42 203.879 3845.12 197.237 3845.21 190.501C3845.12 183.671 3846.52 177.028 3849.13 170.76C3851.83 164.492 3855.75 158.878 3860.69 154.294C3865.53 149.429 3871.22 145.593 3877.56 142.973C3883.9 140.354 3890.71 139.044 3897.51 139.137C3904.32 139.044 3911.03 140.354 3917.28 142.973C3923.52 145.593 3929.21 149.429 3933.97 154.294C3938.91 158.878 3942.82 164.492 3945.53 170.76C3948.23 177.028 3949.54 183.764 3949.44 190.501C3949.54 197.237 3948.23 203.879 3945.53 210.054C3942.82 216.229 3938.91 221.749 3933.97 226.333C3929.21 231.105 3923.52 234.847 3917.28 237.373C3911.03 239.899 3904.32 241.209 3897.61 241.115C3890.8 241.209 3883.99 239.993 3877.75 237.466C3871.31 234.847 3865.53 231.105 3860.69 226.333ZM3939.09 599.908H3856.21V290.42H3939.09V599.908Z" fill="white"/>
<path d="M4072.32 599.907L3954.85 290.419H4042.12L4095.91 448.531C4104.21 476.224 4109.06 492.784 4110.36 498.585H4111.67C4115.58 483.709 4120.9 466.962 4126.77 448.531L4180.57 290.419H4268.48L4151.01 599.907H4072.32Z" fill="white"/>
<path d="M4572.89 473.508H4339.99C4343.63 492.219 4353.7 509.153 4368.33 521.316C4382.97 532.73 4401.06 538.717 4419.52 538.156C4434.34 538.717 4449.07 536.098 4462.78 530.578C4473.59 525.339 4482.36 516.825 4488.04 506.159H4564.77C4556.76 536.94 4537.55 563.604 4510.98 580.818C4484.22 598.22 4452.99 607.201 4421.1 606.827C4391.92 607.482 4363.02 600.278 4337.47 586.151C4313.61 572.772 4294.03 552.751 4280.98 528.519C4267.46 502.885 4260.56 474.35 4261.02 445.347C4260.56 416.344 4267.55 387.622 4281.35 362.174C4294.4 338.036 4313.98 318.109 4337.75 304.543C4362.74 290.603 4390.9 283.679 4419.33 284.334C4447.21 283.96 4474.71 291.257 4498.77 305.385C4522.17 319.231 4541.28 339.253 4554.05 363.297C4567.57 388.557 4574.47 416.905 4574.1 445.534C4574.28 454.89 4573.82 464.245 4572.89 473.508ZM4367.5 370.127C4353.32 381.728 4343.44 397.726 4339.34 415.595H4495.97C4493.55 398.007 4484.5 381.915 4470.7 370.781C4456.25 358.9 4437.98 352.538 4419.24 353.006C4400.5 352.444 4382.23 358.525 4367.5 370.127Z" fill="white"/>
<path d="M1248.02 479.643V599.57H1331.76V484.882C1331.76 473.75 1336.13 462.992 1344.04 455.134C1351.86 447.276 1362.56 442.786 1373.63 442.786H1459.51C1499.52 442.786 1537.94 426.789 1566.23 398.258C1594.51 369.819 1610.42 331.184 1610.42 290.959C1610.42 250.734 1594.51 212.099 1566.23 183.568C1537.94 155.129 1499.52 139.133 1459.42 139.133H1248.02V288.995H1331.76V218.367H1453.83C1472.81 218.367 1490.96 225.944 1504.36 239.415C1517.75 252.886 1525.29 271.127 1525.29 290.211C1525.29 309.294 1517.75 327.536 1504.36 341.007C1490.96 354.478 1472.81 362.055 1453.83 362.055H1365.16C1349.81 362.055 1334.55 365.048 1320.41 371.035C1306.17 376.929 1293.34 385.629 1282.45 396.574C1271.56 407.519 1263 420.522 1257.05 434.741C1251.09 448.866 1248.02 464.208 1248.02 479.643Z" fill="white"/>
<path d="M1623.36 599.57V416.873C1623.36 342.316 1666.62 283.008 1753.24 283.008C1767.11 282.82 1780.97 284.317 1794.55 287.591V362.71C1784.69 362.055 1776.23 362.055 1772.22 362.055C1726.35 362.055 1706.63 383.196 1706.63 426.041V599.57H1623.36Z" fill="white"/>
<path d="M1819.49 444.658C1819.49 352.982 1888.34 283.102 1984.17 283.102C2080.01 283.102 2148.86 352.982 2148.86 444.658C2148.86 536.334 2080.01 606.868 1984.17 606.868C1888.34 606.868 1819.49 536.24 1819.49 444.658ZM2066.79 444.658C2066.79 392.552 2032 355.601 1984.17 355.601C1936.26 355.601 1901.55 392.459 1901.55 444.658C1901.55 497.418 1936.35 533.715 1984.17 533.715C2032.09 533.715 2066.79 497.325 2066.79 444.658Z" fill="white"/>
<path d="M2415.15 444.658C2415.15 352.982 2484 283.102 2579.83 283.102C2675.57 283.102 2744.42 352.982 2744.42 444.658C2744.42 536.334 2675.57 606.868 2579.83 606.868C2484 606.868 2415.15 536.24 2415.15 444.658ZM2662.36 444.658C2662.36 392.552 2627.56 355.601 2579.74 355.601C2531.91 355.601 2497.12 392.459 2497.12 444.658C2497.12 497.418 2531.91 533.715 2579.74 533.715C2627.56 533.715 2662.36 497.325 2662.36 444.658Z" fill="white"/>
<path d="M2787.69 599.572V423.516C2787.69 341.756 2839.51 283.009 2932 283.009C3023.83 283.009 3075.66 341.663 3075.66 423.516V599.572H2993.03V430.065C2993.03 384.601 2972.66 356.163 2932 356.163C2891.34 356.163 2870.96 384.507 2870.96 430.065V599.572H2787.69Z" fill="white"/>
<path d="M2390.21 356.252H2300.33V471.688C2300.33 511.914 2314.75 530.342 2356.06 530.342C2359.97 530.342 2369.83 530.342 2382.3 529.687V597.602C2365.28 602.186 2350.2 604.899 2333.73 604.899C2264.23 604.899 2216.97 562.71 2216.97 482.914V356.252H2161.14V289.646H2175.1C2180.59 289.646 2186.08 288.524 2191.1 286.466C2196.22 284.314 2200.78 281.227 2204.68 277.298C2208.59 273.369 2211.66 268.785 2213.8 263.64C2215.94 258.495 2216.97 253.069 2216.97 247.55V184.78H2300.24V289.646H2390.12V356.252H2390.21Z" fill="white"/>
<path d="M649.343 189.37L289.71 191.386C274.225 191.482 259.128 186.778 246.45 177.851L166.316 121.405C153.832 112.573 138.831 107.869 123.54 107.869H0.726562V659.946C0.726562 711.976 43.2128 754.118 95.6673 754.118H723.669V262.616C723.669 222.009 690.377 189.082 649.343 189.37Z" fill="url(#paint0_radial_11864_192205)"/>
<path fill-rule="evenodd" clip-rule="evenodd" d="M433.428 76.3823H823.933C876.387 76.3823 918.874 118.525 918.874 170.555V659.85C918.874 711.88 876.387 754.023 823.933 754.023H723.669V262.616C723.669 222.009 690.377 189.082 649.343 189.37L289.71 191.386C274.225 191.482 259.128 186.778 246.45 177.851L166.316 121.405C153.832 112.573 138.831 107.869 123.54 107.869H0.726562V94.7176C0.726562 42.6875 43.2128 0.544922 95.6673 0.544922H273.838C291.839 0.544922 309.356 6.20872 323.777 16.7684L383.393 60.1588C397.91 70.7185 415.427 76.3823 433.428 76.3823Z" fill="url(#paint1_linear_11864_192205)"/>
</g>
<defs>
<radialGradient id="paint0_radial_11864_192205" cx="0" cy="0" r="1" gradientUnits="userSpaceOnUse" gradientTransform="translate(995.775 -517.146) scale(1713.25 1560.31)">
<stop offset="0.5561" stop-color="#6D4AFF"/>
<stop offset="1" stop-color="#FF50C3"/>
</radialGradient>
<linearGradient id="paint1_linear_11864_192205" x1="-11.3774" y1="-392.727" x2="1125.9" y2="867.473" gradientUnits="userSpaceOnUse">
<stop stop-color="#7341FF"/>
<stop offset="0.3593" stop-color="#B487FF"/>
<stop offset="1" stop-color="#FFC8FF"/>
</linearGradient>
<clipPath id="clip0_11864_192205">
<rect width="4573" height="754" fill="white" transform="translate(0.726562)"/>
</clipPath>
</defs>
</svg>
