<svg width="2239" height="2064" viewBox="0 0 2239 2064" fill="none" xmlns="http://www.w3.org/2000/svg">
<g clip-path="url(#clip0_11864_192576)">
<path fill-rule="evenodd" clip-rule="evenodd" d="M1029.25 1398.59C1064.15 1461.32 1153.75 1464.72 1193.37 1404.81L1562.77 846.232C1601.95 786.996 1564.47 707.577 1493.53 699.506L767.459 616.892C690.049 608.084 634.933 689.708 672.584 757.396L1029.25 1398.59Z" fill="url(#paint0_linear_11864_192576)"/>
<path d="M1050.08 1340.08L1082.86 1291.18L1331.89 915.021C1353.66 882.133 1332.88 838.014 1293.49 833.491L675.477 762.539L995.623 1338.08C1007.31 1358.68 1036.85 1359.81 1050.08 1340.08Z" fill="url(#paint1_linear_11864_192576)"/>
</g>
<defs>
<linearGradient id="paint0_linear_11864_192576" x1="1490.72" y1="1398.55" x2="899.941" y2="379.734" gradientUnits="userSpaceOnUse">
<stop offset="0.0660125" stop-color="#8EFFEE"/>
<stop offset="0.4499" stop-color="#C9C7FF"/>
<stop offset="1" stop-color="#7341FF"/>
</linearGradient>
<linearGradient id="paint1_linear_11864_192576" x1="1544.76" y1="-293.44" x2="717.468" y2="1476.08" gradientUnits="userSpaceOnUse">
<stop offset="0.4799" stop-color="#6D4AFF"/>
<stop offset="0.9944" stop-color="#00F0C3"/>
</linearGradient>
<clipPath id="clip0_11864_192576">
<rect width="918.147" height="831.529" fill="white" transform="translate(660.453 616.234)"/>
</clipPath>
</defs>
</svg>
