<svg width="2674" height="1184" viewBox="0 0 2674 1184" fill="none" xmlns="http://www.w3.org/2000/svg">
<rect width="2673" height="1184" transform="translate(0.726562)" fill="white"/>
<path d="M759.953 838.109V642.848C759.953 563.186 806.428 499.742 899.39 499.742C914.311 499.523 929.2 501.179 943.71 504.672V584.999C933.147 584.297 924.012 584.297 919.777 584.297C870.532 584.297 849.357 606.85 849.357 652.67V838.109H759.953Z" fill="#6D4AFF"/>
<path d="M970.477 672.499C970.477 574.512 1044.42 499.791 1147.24 499.791C1250.06 499.791 1323.98 574.462 1323.98 672.499C1323.98 770.537 1250.04 845.861 1147.23 845.861C1044.42 845.861 970.477 770.438 970.477 672.499ZM1235.97 672.499C1235.97 616.807 1198.64 577.334 1147.24 577.334C1095.84 577.334 1058.5 616.77 1058.5 672.499C1058.5 728.894 1095.83 767.665 1147.24 767.665C1198.65 767.665 1235.95 728.845 1235.95 672.499H1235.97Z" fill="#6D4AFF"/>
<path d="M1583.12 577.987H1486.65V701.35C1486.65 744.348 1502.14 764.091 1546.51 764.091C1550.73 764.091 1561.28 764.091 1574.67 763.389V836.001C1556.37 840.931 1540.2 843.753 1522.56 843.753C1447.92 843.753 1397.21 798.635 1397.21 713.341V577.987H1337.35V506.791H1352.27C1358.18 506.791 1364.03 505.626 1369.48 503.363C1374.94 501.099 1379.89 497.781 1384.06 493.599C1388.24 489.417 1391.55 484.452 1393.8 478.989C1396.06 473.526 1397.21 467.671 1397.21 461.76V394.705H1486.65V506.791H1583.12V577.987Z" fill="#6D4AFF"/>
<path d="M1609.87 672.499C1609.87 574.512 1683.81 499.791 1786.63 499.791C1889.45 499.791 1963.38 574.462 1963.38 672.499C1963.38 770.537 1889.44 845.91 1786.63 845.91C1683.82 845.91 1609.87 770.438 1609.87 672.499ZM1875.35 672.499C1875.35 616.807 1838.02 577.334 1786.62 577.334C1735.22 577.334 1697.88 616.77 1697.88 672.499C1697.88 728.894 1735.21 767.665 1786.62 767.665C1838.03 767.665 1875.35 728.845 1875.35 672.499Z" fill="#6D4AFF"/>
<path d="M2009.86 838.109V649.897C2009.86 562.483 2065.49 499.742 2164.78 499.742C2263.37 499.742 2319.01 562.483 2319.01 649.897V838.109H2230.28V656.947C2230.28 608.316 2208.44 577.999 2164.78 577.999C2121.13 577.999 2099.29 608.316 2099.29 656.947V838.109H2009.86Z" fill="#6D4AFF"/>
<path d="M356.148 709.927V838.097H446.02V715.473C446.02 703.543 450.754 692.102 459.181 683.666C467.609 675.23 479.038 670.491 490.956 670.491H583.105C626.093 670.478 667.316 653.375 697.709 622.943C728.103 592.511 745.178 551.241 745.182 508.209C745.182 465.17 728.104 423.893 697.705 393.458C667.306 363.023 626.075 345.921 583.08 345.914H356.148V506.126H446.02V430.592H577.023C597.364 430.592 616.872 438.679 631.257 453.075C645.643 467.471 653.728 486.996 653.734 507.358C653.734 527.724 645.652 547.256 631.266 561.657C616.88 576.059 597.368 584.149 577.023 584.149H481.784C465.282 584.141 448.94 587.389 433.693 593.707C418.446 600.025 404.592 609.29 392.924 620.971C381.256 632.653 372.002 646.522 365.692 661.785C359.382 677.049 356.139 693.408 356.148 709.927Z" fill="#6D4AFF"/>
</svg>
