<svg width="3298" height="304" viewBox="0 0 3298 304" fill="none" xmlns="http://www.w3.org/2000/svg">
<g clip-path="url(#clip0_11905_191572)">
<g clip-path="url(#clip1_11905_191572)">
<path d="M209.266 253.972V153.218C209.266 112.112 233.35 79.3751 281.525 79.3751C289.258 79.2622 296.974 80.1168 304.493 81.9188V123.368C299.019 123.005 294.285 123.005 292.09 123.005C266.57 123.005 255.597 134.643 255.597 158.286V253.972H209.266Z" fill="white"/>
<path d="M318.359 168.518C318.359 117.956 356.677 79.4004 409.963 79.4004C463.248 79.4004 501.553 117.931 501.553 168.518C501.553 219.105 463.235 257.972 409.956 257.972C356.677 257.972 318.359 219.054 318.359 168.518ZM455.943 168.518C455.943 139.781 436.599 119.412 409.963 119.412C383.326 119.412 363.976 139.762 363.976 168.518C363.976 197.617 383.32 217.623 409.963 217.623C436.606 217.623 455.937 197.592 455.937 168.518H455.943Z" fill="white"/>
<path d="M635.847 119.749H585.854V183.405C585.854 205.592 593.88 215.779 616.873 215.779C619.062 215.779 624.529 215.779 631.471 215.417V252.885C621.984 255.428 613.607 256.885 604.464 256.885C565.783 256.885 539.504 233.604 539.504 189.592V119.749H508.484V83.0124H516.217C519.277 83.0124 522.307 82.4112 525.134 81.2431C527.961 80.0751 530.529 78.3631 532.692 76.2051C534.855 74.047 536.57 71.4853 537.738 68.6663C538.907 65.8472 539.507 62.8262 539.504 59.776V25.1758H585.854V83.0124H635.847V119.749Z" fill="white"/>
<path d="M649.711 168.518C649.711 117.956 688.029 79.4004 741.314 79.4004C794.6 79.4004 832.911 117.931 832.911 168.518C832.911 219.105 794.593 257.998 741.314 257.998C688.035 257.998 649.711 219.054 649.711 168.518ZM787.288 168.518C787.288 139.781 767.944 119.412 741.308 119.412C714.672 119.412 695.321 139.762 695.321 168.518C695.321 197.617 714.665 217.623 741.308 217.623C767.951 217.623 787.288 197.592 787.288 168.518Z" fill="white"/>
<path d="M856.992 253.972V156.855C856.992 111.75 885.823 79.375 937.278 79.375C988.368 79.375 1017.2 111.75 1017.2 156.855V253.972H971.219V160.493C971.219 135.399 959.901 119.756 937.278 119.756C914.654 119.756 903.336 135.399 903.336 160.493V253.972H856.992Z" fill="white"/>
<path d="M1.12644e-05 187.831V253.966H46.5737V190.692C46.5737 184.536 49.0271 178.633 53.3943 174.28C57.7614 169.927 63.6845 167.481 69.8605 167.481H117.615C139.892 167.475 161.255 158.649 177.005 142.947C192.756 127.244 201.605 105.949 201.607 83.7438V83.7438C201.607 61.5358 192.757 40.2372 177.003 24.5325C161.249 8.82785 139.882 0.00337278 117.602 0L1.12644e-05 0V82.6691H46.5737V43.6938H114.463C125.004 43.6938 135.113 47.8667 142.568 55.2949C150.023 62.7231 154.213 72.7983 154.216 83.3051V83.3051C154.216 93.814 150.028 103.893 142.573 111.323C135.118 118.754 125.006 122.929 114.463 122.929H65.1075C56.5557 122.925 48.087 124.601 40.1855 127.861C32.284 131.121 25.1046 135.902 19.0579 141.929C13.0112 147.957 8.21574 155.113 4.94565 162.989C1.67555 170.865 -0.00502021 179.307 1.12644e-05 187.831V187.831Z" fill="white"/>
<path d="M1198.59 79.3408H1178.49V257.805H1198.59V79.3408Z" fill="white"/>
<path d="M1366 254.376V81.5261H1434.24C1449.29 81.5261 1461.97 86.4395 1472.29 96.2713C1482.61 106.098 1487.77 118.131 1487.77 132.366C1487.77 146.601 1482.61 158.464 1472.29 168.461C1461.97 178.458 1449.29 183.459 1434.24 183.459H1389.85V254.381H1366V254.376ZM1389.85 161.594H1429.16C1440.66 161.594 1449.2 158.8 1454.79 153.206C1460.54 147.442 1463.41 140.497 1463.41 132.361C1463.41 124.225 1460.62 117.363 1455.04 111.769C1449.63 106.175 1441.26 103.381 1429.93 103.381H1389.85V161.594V161.594ZM1508.6 179.134C1508.6 164.729 1512.66 153.458 1520.78 145.328C1528.9 137.022 1539.55 132.872 1552.74 132.872C1556.97 132.872 1561.28 133.464 1565.68 134.65V156.005C1564.15 155.835 1561.11 155.753 1556.54 155.753C1548.6 155.753 1542.51 157.954 1538.28 162.362C1534.05 166.77 1531.94 174.225 1531.94 184.733V254.381H1508.6V179.139L1508.6 179.134ZM1588.87 254.376V135.413H1612.21V254.376H1588.87ZM1589.63 108.212C1586.76 105.33 1585.32 101.772 1585.32 97.5345C1585.32 93.2965 1586.76 89.7391 1589.63 86.8571C1592.68 83.8049 1596.31 82.284 1600.54 82.284C1604.77 82.284 1608.32 83.8101 1611.19 86.8571C1614.24 89.7391 1615.76 93.2965 1615.76 97.5345C1615.76 101.772 1614.23 105.33 1611.19 108.212C1608.32 111.094 1604.77 112.532 1600.54 112.532C1596.31 112.532 1592.68 111.094 1589.63 108.212ZM1675.85 254.376L1629.17 135.413H1654.79L1681.68 210.145C1683.71 215.739 1685.23 220.652 1686.24 224.89H1686.75C1687.77 220.652 1689.29 215.739 1691.32 210.145L1718.2 135.413H1744.08L1697.4 254.376H1675.84H1675.85ZM1808.78 256.917C1792.88 256.917 1779.27 251.324 1767.94 240.141C1756.78 228.958 1751.19 213.873 1751.19 194.895C1751.19 175.916 1756.78 160.831 1767.94 149.648C1779.27 138.465 1792.88 132.872 1808.78 132.872C1817.23 132.872 1825.1 134.738 1832.37 138.465C1839.81 142.023 1845.73 147.106 1850.12 153.716L1852.15 135.413H1872.7V254.376H1852.15L1850.12 236.073C1845.72 242.683 1839.81 247.849 1832.37 251.581C1825.1 255.139 1817.23 256.917 1808.78 256.917ZM1785.69 165.409C1778.25 172.694 1774.53 182.526 1774.53 194.895C1774.53 207.263 1778.25 217.177 1785.69 224.638C1793.13 231.923 1802.09 235.568 1812.58 235.568C1823.06 235.568 1831.52 231.84 1838.96 224.385C1846.4 216.76 1850.12 206.928 1850.12 194.9C1850.12 182.871 1846.4 173.122 1838.96 165.667C1831.52 158.042 1822.73 154.226 1812.58 154.226C1802.43 154.226 1793.13 157.954 1785.69 165.409ZM1959.22 256.917C1941.64 256.917 1927.09 251.153 1915.59 239.63C1904.09 227.937 1898.34 213.027 1898.34 194.895C1898.34 176.762 1904.09 161.934 1915.59 150.411C1927.09 138.718 1941.64 132.872 1959.22 132.872C1973.6 132.872 1985.86 136.939 1996 145.075C2006.15 153.211 2012.66 163.548 2015.53 176.087H1991.43C1985.35 161.511 1974.61 154.226 1959.22 154.226C1948.39 154.226 1939.43 158.042 1932.33 165.667C1925.22 173.292 1921.67 183.036 1921.67 194.9C1921.67 206.763 1925.22 216.507 1932.33 224.132C1939.43 231.758 1948.4 235.573 1959.22 235.573C1974.27 235.573 1985.01 228.288 1991.43 213.713H2015.53C2012.66 226.251 2006.15 236.589 1996 244.724C1985.86 252.86 1973.6 256.928 1959.22 256.928V256.917ZM2078.43 227.685C2079.27 222.261 2080.79 216.584 2082.99 210.655L2110.64 135.413H2135.5L2069.55 304.2H2044.43L2065.23 252.855L2019.83 135.418H2045.7L2073.35 210.661C2075.55 216.59 2077.07 222.271 2077.92 227.69H2078.43V227.685ZM2277.12 256.917C2258.69 256.917 2245.08 250.055 2236.28 236.326L2234.26 254.376H2213.71V81.5261H2237.05V152.19C2245.84 139.311 2259.2 132.872 2277.12 132.872C2292.85 132.872 2306.3 138.465 2317.46 149.648C2328.62 160.831 2334.2 175.916 2334.2 194.895C2334.2 213.873 2328.62 228.958 2317.46 240.141C2306.3 251.324 2292.85 256.917 2277.12 256.917V256.917ZM2247.19 165.409C2239.92 172.864 2236.28 182.696 2236.28 194.895C2236.28 207.093 2239.92 216.925 2247.19 224.38C2254.63 231.835 2263.51 235.563 2273.83 235.563C2284.14 235.563 2293.11 231.917 2300.21 224.633C2307.32 217.348 2310.87 207.433 2310.87 194.889C2310.87 182.346 2307.32 172.436 2300.21 165.146C2293.11 157.856 2284.31 154.216 2273.83 154.216C2263.34 154.216 2254.63 157.944 2247.19 165.399V165.409ZM2399.47 227.685C2400.32 222.261 2401.84 216.584 2404.04 210.655L2431.69 135.413H2456.55L2390.59 304.2H2365.48L2386.28 252.855L2340.88 135.418H2366.75L2394.4 210.661C2396.6 216.59 2398.12 222.271 2398.96 227.69H2399.47V227.685ZM2623.28 254.376L2621.26 236.326C2612.46 250.05 2598.85 256.917 2580.42 256.917C2564.69 256.917 2551.25 251.324 2540.08 240.141C2528.92 228.958 2523.34 213.873 2523.34 194.895C2523.34 175.916 2528.92 160.831 2540.08 149.648C2551.25 138.465 2564.69 132.872 2580.42 132.872C2598.35 132.872 2611.7 139.311 2620.5 152.19V81.5261H2643.83V254.376H2623.28V254.376ZM2557.33 165.151C2550.23 172.436 2546.68 182.351 2546.68 194.895C2546.68 207.438 2550.23 217.348 2557.33 224.638C2564.43 231.923 2573.23 235.568 2583.72 235.568C2594.2 235.568 2602.83 231.84 2610.09 224.385C2617.54 216.93 2621.26 207.098 2621.26 194.9C2621.26 182.701 2617.54 172.869 2610.09 165.414C2602.83 157.959 2594.02 154.232 2583.72 154.232C2573.41 154.232 2564.44 157.877 2557.33 165.162V165.151ZM2730.36 256.917C2712.94 256.917 2698.56 251.153 2687.23 239.63C2676.07 228.107 2670.48 213.192 2670.48 194.895C2670.48 176.597 2676.07 161.682 2687.23 150.159C2698.39 138.636 2712.76 132.872 2730.36 132.872C2746.07 132.872 2759.44 138.888 2770.44 150.922C2781.59 162.785 2787.17 177.443 2787.17 194.9C2787.17 198.627 2787.01 201.679 2786.66 204.051H2694.59C2696.28 213.713 2700.34 221.421 2706.76 227.185C2713.35 232.779 2721.22 235.573 2730.36 235.573C2745.07 235.573 2755.04 229.979 2760.28 218.796H2784.12C2780.58 230.319 2773.89 239.553 2764.08 246.503C2754.45 253.453 2743.2 256.923 2730.35 256.923L2730.36 256.917ZM2694.84 184.727H2763.07C2762.23 176.422 2758.75 169.307 2752.67 163.373C2746.58 157.273 2739.14 154.221 2730.35 154.221C2721.56 154.221 2713.44 157.016 2707.01 162.61C2700.76 168.033 2696.69 175.406 2694.84 184.722V184.727ZM2816.09 120.926C2816.09 108.217 2819.64 98.2202 2826.75 90.9301C2833.85 83.6451 2842.98 80 2854.14 80C2858.88 80 2863.36 80.5929 2867.59 81.7787V101.097C2864.88 100.757 2862.52 100.587 2860.48 100.587C2846.45 100.587 2839.43 107.537 2839.43 121.431V135.413H2872.66V155.242H2839.43V254.376H2816.09V155.242H2793.26V135.413H2816.09V120.926V120.926ZM2939.87 256.923C2923.98 256.923 2910.36 251.329 2899.03 240.146C2887.88 228.963 2882.29 213.878 2882.29 194.9C2882.29 175.922 2887.88 160.836 2899.03 149.653C2910.36 138.471 2923.98 132.877 2939.87 132.877C2948.32 132.877 2956.19 134.743 2963.47 138.471C2970.9 142.028 2976.82 147.112 2981.22 153.721L2983.25 135.418H3003.8V254.381H2983.25L2981.22 236.078C2976.82 242.688 2970.9 247.854 2963.47 251.586C2956.19 255.144 2948.33 256.923 2939.87 256.923ZM2916.78 165.414C2909.35 172.699 2905.63 182.531 2905.63 194.9C2905.63 207.268 2909.35 217.183 2916.78 224.643C2924.23 231.928 2933.19 235.573 2943.68 235.573C2954.18 235.573 2962.62 231.845 2970.06 224.39C2977.51 216.765 2981.22 206.933 2981.22 194.905C2981.22 182.877 2977.5 173.127 2970.06 165.672C2962.62 158.047 2953.83 154.232 2943.68 154.232C2933.54 154.232 2924.23 157.959 2916.78 165.414ZM3124.31 242.688C3115.18 252.179 3102.91 256.923 3087.53 256.923C3072.15 256.923 3059.88 252.179 3050.74 242.688C3041.62 233.196 3037.05 220.91 3037.05 205.83V135.418H3060.38V204.051C3060.38 213.878 3062.68 221.508 3067.24 226.927C3071.8 232.351 3078.57 235.062 3087.53 235.062C3096.49 235.062 3103.26 232.351 3107.82 226.927C3112.39 221.503 3114.67 213.878 3114.67 204.051V135.418H3138.01V205.83C3138.01 220.91 3133.45 233.196 3124.31 242.688ZM3173.16 254.381V81.5261H3196.49V254.376H3173.16V254.381ZM3280.71 255.907C3268.87 255.907 3259.06 252.349 3251.29 245.229C3243.68 238.109 3239.87 228.37 3239.87 215.997L3239.61 155.242H3218.56V135.413H3239.61V95.5032H3263.21V135.413H3297.71V155.242H3263.21V213.197C3263.21 221.333 3265.07 227.009 3268.79 230.226C3272.68 233.279 3278.76 234.8 3287.05 234.8C3289.42 234.8 3292.38 234.717 3295.93 234.547V254.118C3291.03 255.304 3285.96 255.897 3280.71 255.897V255.907Z" fill="white"/>
</g>
</g>
<defs>
<clipPath id="clip0_11905_191572">
<rect width="3298" height="304" fill="white"/>
</clipPath>
<clipPath id="clip1_11905_191572">
<rect width="3298" height="304" fill="white"/>
</clipPath>
</defs>
</svg>
