<svg width="1964" height="500" viewBox="0 0 1964 500" fill="none" xmlns="http://www.w3.org/2000/svg">
<g clip-path="url(#clip0_11394_191793)">
<path d="M0.296897 364.079V492.26H90.2702V369.625C90.2702 357.694 95.0099 346.251 103.446 337.814C111.883 329.378 123.326 324.638 135.257 324.638H227.51C270.547 324.625 311.816 307.521 342.244 277.086C372.672 246.651 389.767 205.378 389.77 162.341C389.77 119.298 372.673 78.018 342.24 47.5798C311.806 17.1416 270.529 0.0382753 227.486 0.0317383L0.296897 0.0317383V160.258H90.2702V84.7176H221.422C241.785 84.7176 261.316 92.8054 275.717 107.202C290.119 121.599 298.213 141.127 298.219 161.491C298.219 181.859 290.128 201.393 275.726 215.795C261.324 230.197 241.79 238.288 221.422 238.288H126.075C109.554 238.28 93.1937 241.529 77.9292 247.847C62.6646 254.166 48.7952 263.432 37.1139 275.114C25.4326 286.797 16.1684 300.667 9.85112 315.932C3.53379 331.197 0.287177 347.558 0.296897 364.079Z" fill="#6D4AFF"/>
<path d="M135.232 324.638C99.4461 324.641 65.1267 338.859 39.8221 364.163C14.5175 389.468 0.300143 423.787 0.296875 459.574L0.296875 492.26H90.2702V369.625C90.2702 357.698 95.0064 346.259 103.438 337.823C111.869 329.387 123.305 324.645 135.232 324.638Z" fill="url(#paint0_linear_11394_191793)"/>
<path d="M403.719 492.272V296.993C403.719 217.323 450.246 153.873 543.313 153.873C558.251 153.656 573.157 155.312 587.683 158.804V239.139C577.108 238.436 567.963 238.436 563.711 238.436C514.411 238.436 493.211 260.991 493.211 306.816V492.272H403.719Z" fill="#6D4AFF"/>
<path d="M614.508 326.647C614.508 228.65 688.532 153.923 791.472 153.923C894.411 153.923 968.423 228.601 968.423 326.647C968.423 424.693 894.399 500.024 791.472 500.024C688.545 500.024 614.508 424.595 614.508 326.647ZM880.311 326.647C880.311 270.95 842.941 231.472 791.484 231.472C740.027 231.472 702.645 270.913 702.645 326.647C702.645 383.047 740.014 421.821 791.484 421.821C842.954 421.821 880.311 382.997 880.311 326.647Z" fill="#6D4AFF"/>
<path d="M1254.63 326.647C1254.63 228.65 1328.66 153.923 1431.6 153.923C1534.54 153.923 1608.55 228.601 1608.55 326.647C1608.55 424.693 1534.52 500.074 1431.6 500.074C1328.67 500.074 1254.63 424.595 1254.63 326.647ZM1520.42 326.647C1520.42 270.95 1483.05 231.472 1431.6 231.472C1380.14 231.472 1342.76 270.913 1342.76 326.647C1342.76 383.047 1380.13 421.821 1431.6 421.821C1483.07 421.821 1520.42 382.997 1520.42 326.647Z" fill="#6D4AFF"/>
<path d="M1655.08 492.272V304.043C1655.08 216.621 1710.78 153.874 1810.18 153.874C1908.88 153.874 1964.57 216.621 1964.57 304.043V492.272H1875.75V311.093C1875.75 262.458 1853.88 232.138 1810.18 232.138C1766.47 232.138 1744.61 262.458 1744.61 311.093V492.272H1655.08Z" fill="#6D4AFF"/>
<path d="M1227.88 232.126H1131.27V355.5C1131.27 398.502 1146.78 418.247 1191.2 418.247C1195.42 418.247 1205.99 418.247 1219.4 417.545V490.164C1201.07 495.094 1184.89 497.917 1167.22 497.917C1092.5 497.966 1041.77 452.795 1041.77 367.492V232.126H981.805V160.924H996.755C1002.67 160.927 1008.53 159.764 1013.99 157.502C1019.45 155.239 1024.42 151.922 1028.6 147.739C1032.78 143.556 1036.09 138.589 1038.35 133.124C1040.61 127.659 1041.77 121.802 1041.77 115.888V48.8267H1131.3V160.924H1227.88V232.126Z" fill="#6D4AFF"/>
</g>
<defs>
<linearGradient id="paint0_linear_11394_191793" x1="67.7645" y1="468.016" x2="67.7645" y2="279.664" gradientUnits="userSpaceOnUse">
<stop stop-color="#6D4BFD"/>
<stop offset="1" stop-color="#1C0554"/>
</linearGradient>
<clipPath id="clip0_11394_191793">
<rect width="1964" height="500" fill="white"/>
</clipPath>
</defs>
</svg>
