<svg width="715" height="202" viewBox="0 0 715 202" fill="none" xmlns="http://www.w3.org/2000/svg">
<path d="M47 64.9518C47 55.0373 55.0373 47 64.9518 47H136.759C146.674 47 154.711 55.0373 154.711 64.9518V136.759C154.711 146.674 146.674 154.711 136.759 154.711H64.9518C55.0373 154.711 47 146.674 47 136.759V64.9518Z" fill="url(#paint0_radial_4081_588)"/>
<rect x="100.855" y="47" width="26.9277" height="26.9277" fill="#85D4F5"/>
<path d="M127.781 47H136.757C146.672 47 154.709 55.0373 154.709 64.9518V73.9277H127.781V47Z" fill="#D6F1FC"/>
<rect x="127.781" y="73.9277" width="26.9277" height="26.9277" fill="#85D4F5"/>
<path fill-rule="evenodd" clip-rule="evenodd" d="M105.345 132.271C105.345 134.75 103.335 136.759 100.857 136.759H69.4411C66.9625 136.759 64.9531 134.75 64.9531 132.271V132.271C64.9531 129.793 66.9625 127.783 69.4411 127.783H100.857C103.335 127.783 105.345 129.793 105.345 132.271V132.271Z" fill="white"/>
<path fill-rule="evenodd" clip-rule="evenodd" d="M91.8809 114.316C91.8809 116.795 89.8715 118.804 87.3929 118.804H69.4411C66.9625 118.804 64.9531 116.795 64.9531 114.316V114.316C64.9531 111.837 66.9625 109.828 69.4411 109.828H87.3929C89.8715 109.828 91.8809 111.837 91.8809 114.316V114.316Z" fill="white"/>
<path d="M199 114.209V131.312H210.942V114.956C210.942 113.368 211.566 111.834 212.694 110.713C213.808 109.593 215.334 108.952 216.913 108.952H229.161C234.867 108.952 240.347 106.671 244.381 102.602C248.414 98.5462 250.684 93.0363 250.684 87.2997C250.684 81.563 248.414 76.0531 244.381 71.984C240.347 67.9283 234.867 65.647 229.148 65.647H199V87.0195H210.942V76.9469H228.351C231.058 76.9469 233.646 78.0276 235.557 79.9487C237.467 81.8698 238.542 84.4713 238.542 87.1929C238.542 89.9145 237.467 92.516 235.557 94.4372C233.646 96.3583 231.058 97.4389 228.351 97.4389H215.706C213.517 97.4389 211.34 97.8658 209.323 98.7197C207.293 99.5602 205.462 100.801 203.91 102.362C202.357 103.923 201.136 105.777 200.287 107.805C199.438 109.82 199 112.007 199 114.209Z" fill="white"/>
<path d="M252.528 131.312V105.257C252.528 94.6239 258.698 86.1656 271.052 86.1656C273.029 86.1389 275.006 86.3524 276.943 86.8193V97.5323C275.537 97.4389 274.329 97.4389 273.759 97.4389C267.217 97.4389 264.404 100.454 264.404 106.564V131.312H252.528Z" fill="white"/>
<path d="M280.499 109.219C280.499 96.145 290.318 86.1792 303.986 86.1792C317.653 86.1792 327.472 96.145 327.472 109.219C327.472 122.294 317.653 132.353 303.986 132.353C290.318 132.353 280.499 122.28 280.499 109.219ZM315.769 109.219C315.769 101.788 310.806 96.5185 303.986 96.5185C297.152 96.5185 292.202 101.775 292.202 109.219C292.202 116.744 297.165 121.92 303.986 121.92C310.819 121.92 315.769 116.73 315.769 109.219Z" fill="white"/>
<path d="M365.449 109.219C365.449 96.145 375.268 86.1792 388.935 86.1792C402.589 86.1792 412.408 96.145 412.408 109.219C412.408 122.294 402.589 132.353 388.935 132.353C375.268 132.353 365.449 122.28 365.449 109.219ZM400.705 109.219C400.705 101.788 395.742 96.5185 388.922 96.5185C382.102 96.5185 377.139 101.775 377.139 109.219C377.139 116.744 382.102 121.92 388.922 121.92C395.742 121.92 400.705 116.73 400.705 109.219Z" fill="white"/>
<path d="M418.579 131.312V106.204C418.579 94.5441 425.97 86.1658 439.159 86.1658C452.256 86.1658 459.647 94.5307 459.647 106.204V131.312H447.864V107.138C447.864 100.654 444.958 96.5986 439.159 96.5986C433.361 96.5986 430.455 100.641 430.455 107.138V131.312H418.579Z" fill="white"/>
<path d="M361.893 96.6113H349.075V113.074C349.075 118.811 351.131 121.439 357.023 121.439C357.58 121.439 358.987 121.439 360.765 121.346V131.031C358.337 131.685 356.187 132.072 353.838 132.072C343.926 132.072 337.185 126.055 337.185 114.675V96.6113H329.224V87.1124H331.214C331.997 87.1124 332.78 86.9523 333.497 86.6588C334.226 86.3519 334.877 85.9117 335.434 85.3514C335.991 84.791 336.429 84.1373 336.734 83.4036C337.039 82.6698 337.185 81.896 337.185 81.1089V72.157H349.061V87.1124H361.879V96.6113H361.893Z" fill="white"/>
<path d="M482.201 132V68.3352H503.205C512.789 68.3352 520.661 71.3846 526.822 77.4835C532.984 83.5824 536.064 91.1437 536.064 100.168C536.064 109.191 532.984 116.753 526.822 122.852C520.661 128.95 512.789 132 503.205 132H482.201ZM494.15 120.611L503.858 120.705C509.646 120.705 514.407 118.744 518.141 114.824C521.937 110.841 523.835 105.955 523.835 100.168C523.835 94.3799 521.937 89.5257 518.141 85.605C514.407 81.6843 509.646 79.7239 503.858 79.7239H494.15V120.611Z" fill="white"/>
<path d="M578.407 126.492C573.989 130.849 568.388 133.027 561.604 133.027C554.821 133.027 549.22 130.849 544.801 126.492C540.383 122.074 538.173 116.597 538.173 110.063C538.173 103.528 540.383 98.0827 544.801 93.7264C549.22 89.3701 554.821 87.1919 561.604 87.1919C568.388 87.1919 573.989 89.3701 578.407 93.7264C582.826 98.0827 585.035 103.528 585.035 110.063C585.035 116.597 582.826 122.074 578.407 126.492ZM549.842 110.063C549.842 113.797 550.931 116.846 553.109 119.211C555.35 121.514 558.181 122.665 561.604 122.665C565.027 122.665 567.827 121.514 570.006 119.211C572.246 116.846 573.366 113.797 573.366 110.063C573.366 106.391 572.246 103.373 570.006 101.008C567.827 98.6428 565.027 97.4604 561.604 97.4604C558.181 97.4604 555.35 98.6428 553.109 101.008C550.931 103.373 549.842 106.391 549.842 110.063Z" fill="white"/>
<path d="M609.368 133.027C602.709 133.027 597.17 130.849 592.752 126.492C588.395 122.136 586.217 116.659 586.217 110.063C586.217 103.466 588.395 98.0205 592.752 93.7264C597.17 89.3701 602.709 87.1919 609.368 87.1919C615.031 87.1919 619.823 88.7477 623.744 91.8594C627.665 94.9088 630.061 98.9851 630.932 104.088H619.45C617.707 99.7319 614.44 97.5538 609.648 97.5538C606.225 97.5538 603.394 98.7362 601.153 101.101C598.975 103.404 597.886 106.391 597.886 110.063C597.886 113.734 598.975 116.753 601.153 119.118C603.394 121.482 606.225 122.665 609.648 122.665C614.378 122.665 617.645 120.456 619.45 116.037H630.932C630.061 121.14 627.665 125.248 623.744 128.359C619.823 131.471 615.031 133.027 609.368 133.027Z" fill="white"/>
<path d="M651.208 133.027C646.167 133.027 641.966 131.72 638.605 129.106C635.245 126.43 633.409 123.007 633.098 118.838H644.393C644.642 120.456 645.389 121.7 646.634 122.572C647.94 123.381 649.465 123.785 651.208 123.785C652.888 123.785 654.195 123.443 655.128 122.758C656.124 122.074 656.622 121.171 656.622 120.051C656.622 118.806 655.844 117.78 654.288 116.971C652.795 116.162 650.928 115.477 648.687 114.917C646.509 114.295 644.3 113.548 642.059 112.676C639.881 111.743 638.014 110.249 636.458 108.196C634.965 106.142 634.218 103.528 634.218 100.354C634.218 96.6203 635.649 93.5086 638.512 91.0193C641.437 88.4677 645.327 87.1919 650.181 87.1919C655.035 87.1297 658.956 88.3121 661.943 90.7392C664.992 93.1663 666.673 96.5269 666.984 100.821H655.875C655.626 99.5141 655.004 98.4561 654.008 97.6471C653.012 96.8381 651.737 96.4336 650.181 96.4336C648.687 96.4336 647.474 96.807 646.54 97.5538C645.607 98.3006 645.14 99.2341 645.14 100.354C645.14 101.599 645.918 102.626 647.474 103.435C649.03 104.182 650.897 104.866 653.075 105.489C655.315 106.111 657.555 106.889 659.796 107.822C662.036 108.694 663.934 110.187 665.49 112.303C667.046 114.357 667.824 116.939 667.824 120.051C667.824 123.847 666.206 126.959 662.97 129.386C659.734 131.813 655.813 133.027 651.208 133.027Z" fill="white"/>
<defs>
<radialGradient id="paint0_radial_4081_588" cx="0" cy="0" r="1" gradientUnits="userSpaceOnUse" gradientTransform="translate(39.5518 176.222) rotate(-53.1504) scale(127.102)">
<stop stop-color="#6D4AFF"/>
<stop offset="1" stop-color="#34B8EE"/>
</radialGradient>
</defs>
</svg>
