<svg width="1964" height="893" viewBox="0 0 1964 893" fill="none" xmlns="http://www.w3.org/2000/svg">
<g clip-path="url(#clip0_11905_191568)">
<g clip-path="url(#clip1_11905_191568)">
<path d="M0.570334 364.079V492.26H90.5254V369.625C90.5254 357.694 95.2641 346.251 103.699 337.814C112.134 329.378 123.574 324.638 135.503 324.638H227.738C270.765 324.625 312.026 307.521 342.448 277.086C372.87 246.651 389.962 205.378 389.965 162.341V162.341C389.965 119.298 372.871 78.018 342.444 47.5798C312.016 17.1416 270.747 0.0382753 227.713 0.0317383L0.570334 0.0317383V160.258H90.5254V84.7176H221.65C242.01 84.7176 261.536 92.8054 275.935 107.202C290.333 121.599 298.426 141.127 298.432 161.491V161.491C298.432 181.859 290.343 201.393 275.943 215.795C261.544 230.197 242.014 238.288 221.65 238.288H126.323C109.805 238.28 93.4483 241.529 78.1868 247.847C62.9254 254.166 49.0588 263.432 37.3799 275.114C25.7009 286.797 16.4387 300.667 10.1226 315.932C3.80657 331.197 0.560616 347.558 0.570334 364.079V364.079Z" fill="white"/>
<path d="M135.478 324.639C99.6994 324.642 65.387 338.859 40.0875 364.164C14.7881 389.468 0.57358 423.788 0.570312 459.574L0.570313 492.26H90.5254V369.625C90.5254 357.698 95.2607 346.26 103.69 337.824C112.12 329.388 123.554 324.645 135.478 324.639V324.639Z" fill="url(#paint0_linear_11905_191568)"/>
<path d="M403.914 492.272V296.993C403.914 217.323 450.432 153.873 543.48 153.873C558.415 153.656 573.318 155.312 587.841 158.804V239.139C577.268 238.436 568.125 238.436 563.874 238.436C514.583 238.436 493.388 260.991 493.388 306.816V492.272H403.914Z" fill="white"/>
<path d="M614.656 326.648C614.656 228.651 688.666 153.924 791.584 153.924C894.503 153.924 968.5 228.602 968.5 326.648C968.5 424.694 894.49 500.025 791.584 500.025C688.678 500.025 614.656 424.596 614.656 326.648ZM880.406 326.648C880.406 270.951 843.043 231.473 791.597 231.473C740.15 231.473 702.775 270.914 702.775 326.648C702.775 383.048 740.137 421.822 791.597 421.822C843.056 421.822 880.406 382.998 880.406 326.648Z" fill="white"/>
<path d="M1254.66 326.648C1254.66 228.651 1328.67 153.924 1431.58 153.924C1534.5 153.924 1608.5 228.602 1608.5 326.648C1608.5 424.694 1534.49 500.075 1431.58 500.075C1328.68 500.075 1254.66 424.596 1254.66 326.648ZM1520.39 326.648C1520.39 270.951 1483.03 231.473 1431.58 231.473C1380.14 231.473 1342.76 270.914 1342.76 326.648C1342.76 383.048 1380.13 421.822 1431.58 421.822C1483.04 421.822 1520.39 382.998 1520.39 326.648V326.648Z" fill="white"/>
<path d="M1655.02 492.272V304.043C1655.02 216.621 1710.7 153.874 1810.08 153.874C1908.76 153.874 1964.45 216.621 1964.45 304.043V492.272H1875.64V311.093C1875.64 262.458 1853.78 232.138 1810.08 232.138C1766.39 232.138 1744.53 262.458 1744.53 311.093V492.272H1655.02Z" fill="white"/>
<path d="M1227.9 232.126H1131.32V355.5C1131.32 398.502 1146.82 418.247 1191.23 418.247C1195.46 418.247 1206.02 418.247 1219.43 417.545V490.164C1201.1 495.094 1184.92 497.917 1167.26 497.917C1092.55 497.966 1041.83 452.795 1041.83 367.492V232.126H981.883V160.924H996.83C1002.74 160.927 1008.6 159.764 1014.06 157.502C1019.52 155.239 1024.49 151.922 1028.67 147.739C1032.85 143.556 1036.16 138.589 1038.42 133.124C1040.68 127.659 1041.84 121.802 1041.83 115.888V48.8267H1131.34V160.924H1227.9V232.126Z" fill="white"/>
<path d="M0 842.85V667.521H69.36C84.66 667.521 97.55 672.5 108.03 682.47C118.52 692.44 123.76 704.641 123.76 719.081C123.76 733.521 118.52 745.55 108.03 755.69C97.54 765.83 84.65 770.901 69.36 770.901H24.24V842.841H0V842.85ZM24.24 748.74H64.2C75.89 748.74 84.57 745.9 90.24 740.23C96.08 734.39 99.01 727.341 99.01 719.091C99.01 710.841 96.17 703.881 90.5 698.211C85 692.541 76.49 689.701 64.97 689.701H24.24V748.74ZM144.94 766.531C144.94 751.921 149.07 740.49 157.32 732.24C165.57 723.82 176.4 719.61 189.81 719.61C194.11 719.61 198.49 720.21 202.96 721.41V743.07C201.41 742.9 198.32 742.81 193.68 742.81C185.6 742.81 179.41 745.04 175.12 749.51C170.82 753.98 168.67 761.541 168.67 772.201V842.85H144.95V766.531H144.94ZM226.53 842.85V722.18H250.25V842.85H226.53ZM227.3 694.6C224.38 691.68 222.92 688.071 222.92 683.771C222.92 679.471 224.38 675.86 227.3 672.94C230.39 669.85 234.09 668.3 238.39 668.3C242.69 668.3 246.3 669.85 249.22 672.94C252.31 675.86 253.86 679.471 253.86 683.771C253.86 688.071 252.31 691.68 249.22 694.6C246.3 697.52 242.69 698.98 238.39 698.98C234.09 698.98 230.4 697.52 227.3 694.6ZM314.93 842.85L267.49 722.18H293.53L320.86 797.98C322.92 803.65 324.47 808.64 325.5 812.93H326.02C327.05 808.63 328.6 803.65 330.66 797.98L357.99 722.18H384.29L336.85 842.85H314.93V842.85ZM450.04 845.43C433.88 845.43 420.05 839.76 408.53 828.41C397.19 817.07 391.51 801.771 391.51 782.521C391.51 763.271 397.18 747.97 408.53 736.63C420.05 725.29 433.88 719.61 450.04 719.61C458.63 719.61 466.63 721.501 474.02 725.281C481.58 728.891 487.6 734.05 492.07 740.75L494.13 722.19H515.01V842.86H494.13L492.07 824.3C487.6 831 481.58 836.251 474.02 840.031C466.63 843.641 458.64 845.44 450.04 845.44V845.43ZM426.58 752.61C419.02 760 415.24 769.971 415.24 782.521C415.24 795.071 419.02 805.12 426.58 812.69C434.14 820.08 443.25 823.781 453.91 823.781C464.57 823.781 473.16 820 480.72 812.44C488.28 804.71 492.06 794.741 492.06 782.531C492.06 770.321 488.28 760.44 480.72 752.88C473.16 745.15 464.22 741.281 453.91 741.281C443.6 741.281 434.14 745.06 426.58 752.62V752.61ZM602.96 845.43C585.08 845.43 570.3 839.591 558.61 827.901C546.92 816.041 541.08 800.911 541.08 782.521C541.08 764.131 546.92 749.091 558.61 737.401C570.3 725.541 585.08 719.61 602.96 719.61C617.57 719.61 630.03 723.74 640.35 731.99C650.66 740.24 657.28 750.731 660.2 763.451H635.71C629.52 748.671 618.61 741.281 602.97 741.281C591.97 741.281 582.86 745.15 575.64 752.88C568.42 760.61 564.81 770.501 564.81 782.531C564.81 794.561 568.42 804.45 575.64 812.18C582.86 819.91 591.97 823.781 602.97 823.781C618.27 823.781 629.18 816.39 635.71 801.61H660.2C657.28 814.33 650.66 824.81 640.35 833.07C630.04 841.32 617.57 845.451 602.96 845.451V845.43ZM724.12 815.781C724.98 810.281 726.53 804.52 728.76 798.51L756.86 722.19H782.13L715.09 893.391H689.56L710.7 841.31L664.55 722.19H690.85L718.95 798.51C721.18 804.53 722.73 810.281 723.59 815.781H724.11H724.12ZM926.08 845.43C907.34 845.43 893.51 838.47 884.57 824.55L882.51 842.86H861.63V667.531H885.35V739.211C894.29 726.151 907.87 719.61 926.09 719.61C942.08 719.61 955.74 725.28 967.09 736.63C978.43 747.97 984.11 763.271 984.11 782.521C984.11 801.771 978.44 817.07 967.09 828.41C955.75 839.75 942.08 845.43 926.09 845.43H926.08ZM895.66 752.61C888.27 760.17 884.57 770.141 884.57 782.521C884.57 794.901 888.27 804.87 895.66 812.43C903.22 819.99 912.25 823.771 922.73 823.771C933.21 823.771 942.33 820.07 949.54 812.68C956.75 805.29 960.37 795.23 960.37 782.51C960.37 769.79 956.76 759.731 949.54 752.341C942.32 744.951 933.38 741.25 922.73 741.25C912.08 741.25 903.22 745.031 895.66 752.591V752.61ZM1050.44 815.781C1051.3 810.281 1052.85 804.52 1055.08 798.51L1083.18 722.19H1108.45L1041.41 893.391H1015.88L1037.02 841.31L990.87 722.19H1017.17L1045.27 798.51C1047.5 804.53 1049.05 810.281 1049.91 815.781H1050.43H1050.44ZM1277.93 842.85L1275.87 824.54C1266.93 838.46 1253.09 845.42 1234.36 845.42C1218.37 845.42 1204.72 839.751 1193.37 828.401C1182.02 817.061 1176.35 801.76 1176.35 782.51C1176.35 763.26 1182.02 747.96 1193.37 736.62C1204.72 725.28 1218.38 719.6 1234.36 719.6C1252.58 719.6 1266.16 726.131 1275.1 739.201V667.521H1298.82V842.85H1277.93V842.85ZM1210.89 752.35C1203.67 759.74 1200.06 769.801 1200.06 782.521C1200.06 795.241 1203.67 805.3 1210.89 812.69C1218.11 820.08 1227.05 823.781 1237.71 823.781C1248.37 823.781 1257.14 820 1264.52 812.44C1272.09 804.88 1275.87 794.911 1275.87 782.531C1275.87 770.151 1272.09 760.18 1264.52 752.62C1257.14 745.06 1248.19 741.281 1237.71 741.281C1227.23 741.281 1218.11 744.98 1210.89 752.37V752.35ZM1386.76 845.43C1369.05 845.43 1354.44 839.591 1342.93 827.901C1331.58 816.211 1325.91 801.091 1325.91 782.521C1325.91 763.951 1331.58 748.831 1342.93 737.141C1354.27 725.451 1368.88 719.61 1386.76 719.61C1402.74 719.61 1416.32 725.71 1427.5 737.92C1438.84 749.95 1444.51 764.821 1444.51 782.531C1444.51 786.311 1444.35 789.41 1443.99 791.81H1350.4C1352.12 801.61 1356.24 809.431 1362.77 815.271C1369.47 820.941 1377.46 823.781 1386.75 823.781C1401.7 823.781 1411.84 818.11 1417.17 806.76H1441.4C1437.8 818.45 1431 827.82 1421.03 834.86C1411.23 841.91 1399.8 845.43 1386.75 845.43H1386.76ZM1350.66 772.211H1420.02C1419.16 763.791 1415.63 756.57 1409.45 750.55C1403.26 744.36 1395.7 741.271 1386.76 741.271C1377.82 741.271 1369.57 744.111 1363.04 749.781C1356.68 755.281 1352.55 762.761 1350.67 772.211H1350.66ZM1473.9 707.49C1473.9 694.6 1477.5 684.46 1484.73 677.07C1491.95 669.68 1501.22 665.98 1512.57 665.98C1517.39 665.98 1521.94 666.581 1526.24 667.781V687.38C1523.48 687.04 1521.08 686.86 1519.01 686.86C1504.75 686.86 1497.62 693.91 1497.62 708V722.18H1531.4V742.29H1497.62V842.841H1473.9V742.29H1450.7V722.18H1473.9V707.48V707.49ZM1599.71 845.43C1583.56 845.43 1569.71 839.76 1558.2 828.41C1546.86 817.07 1541.19 801.771 1541.19 782.521C1541.19 763.271 1546.86 747.97 1558.2 736.63C1569.71 725.29 1583.56 719.61 1599.71 719.61C1608.3 719.61 1616.3 721.501 1623.69 725.281C1631.25 728.891 1637.26 734.05 1641.74 740.75L1643.8 722.19H1664.69V842.86H1643.8L1641.74 824.3C1637.27 831 1631.25 836.251 1623.69 840.031C1616.3 843.641 1608.3 845.44 1599.71 845.44V845.43ZM1576.25 752.61C1568.69 760 1564.91 769.971 1564.91 782.521C1564.91 795.071 1568.69 805.12 1576.25 812.69C1583.82 820.08 1592.92 823.781 1603.59 823.781C1614.26 823.781 1622.84 820 1630.4 812.44C1637.97 804.71 1641.75 794.741 1641.75 782.531C1641.75 770.321 1637.97 760.44 1630.4 752.88C1622.84 745.15 1613.91 741.281 1603.59 741.281C1593.27 741.281 1583.82 745.06 1576.25 752.62V752.61ZM1787.18 830.99C1777.9 840.62 1765.43 845.43 1749.8 845.43C1734.17 845.43 1721.7 840.62 1712.41 830.99C1703.13 821.36 1698.49 808.9 1698.49 793.6V722.18H1722.2V791.79C1722.2 801.76 1724.53 809.49 1729.17 814.99C1733.81 820.49 1740.68 823.24 1749.8 823.24C1758.92 823.24 1765.79 820.49 1770.43 814.99C1775.07 809.49 1777.39 801.75 1777.39 791.79V722.18H1801.11V793.6C1801.11 808.9 1796.47 821.36 1787.18 830.99ZM1836.84 842.85V667.521H1860.55V842.85H1836.84ZM1946.15 844.401C1934.12 844.401 1924.15 840.79 1916.25 833.57C1908.51 826.35 1904.64 816.47 1904.64 803.92L1904.38 742.3H1882.99V722.19H1904.38V681.711H1928.36V722.19H1963.43V742.3H1928.36V801.091C1928.36 809.341 1930.26 815.1 1934.03 818.36C1937.99 821.45 1944.17 823 1952.6 823C1955 823 1958.02 822.91 1961.62 822.74V842.591C1956.64 843.791 1951.48 844.391 1946.15 844.391V844.401Z" fill="white"/>
</g>
</g>
<defs>
<linearGradient id="paint0_linear_11905_191568" x1="68.0243" y1="468.006" x2="68.0243" y2="199.819" gradientUnits="userSpaceOnUse">
<stop stop-color="white"/>
<stop offset="1" stop-color="#1C0554"/>
</linearGradient>
<clipPath id="clip0_11905_191568">
<rect width="1964" height="893" fill="white"/>
</clipPath>
<clipPath id="clip1_11905_191568">
<rect width="1964.27" height="893.39" fill="white"/>
</clipPath>
</defs>
</svg>
