<svg width="1022" height="209" viewBox="0 0 1022 209" fill="none" xmlns="http://www.w3.org/2000/svg">
<rect x="0.436035" width="1021.44" height="208.694" rx="104.347" fill="#101517"/>
<path fill-rule="evenodd" clip-rule="evenodd" d="M148.766 102.959L132.015 151.396C148.32 141.888 159.28 124.226 159.28 103.991C159.28 94.4576 156.838 85.4836 152.56 77.6779C152.796 79.4305 152.932 81.3073 152.932 83.3209C152.932 88.8768 151.89 95.1287 148.766 102.959ZM118.264 77.7525C118.264 77.7525 115.289 78.1005 111.99 78.2745L112.003 78.2994L131.829 137.252L137.297 118.968C140.087 111.834 141.475 105.93 141.475 101.232C141.475 94.4451 139.033 89.7593 136.95 86.105C136.737 85.7597 136.525 85.4186 136.315 85.0809L136.312 85.0751L136.31 85.0718C133.774 80.9889 131.556 77.4165 131.556 73.2406C131.556 68.2067 135.375 63.5084 140.769 63.5084C140.91 63.5084 141.051 63.5219 141.193 63.5353L141.193 63.5353C141.287 63.5443 141.381 63.5532 141.475 63.5582C131.717 54.609 118.723 49.1525 104.439 49.1525C85.2704 49.1525 68.4201 58.9842 58.6001 73.8621C59.8896 73.8994 61.1047 73.9243 62.1338 73.9243C67.8746 73.9243 76.7523 73.2282 76.7523 73.2282C79.7032 73.0542 80.0504 77.4045 77.0994 77.7525C77.0994 77.7525 74.1361 78.1005 70.8255 78.2745L90.8004 137.687L102.803 101.691L94.2597 78.2745C91.3088 78.1005 88.5066 77.7525 88.5066 77.7525C85.5556 77.5785 85.8904 73.0542 88.8537 73.2282C88.8537 73.2282 97.905 73.9243 103.299 73.9243C109.039 73.9243 117.917 73.2282 117.917 73.2282C120.868 73.0542 121.215 77.4045 118.264 77.7525ZM88.9405 156.604C93.863 158.046 99.0582 158.842 104.439 158.842C110.825 158.842 116.95 157.735 122.654 155.734C122.505 155.498 122.368 155.25 122.257 154.976L105.394 108.789L88.9405 156.604ZM54.3348 81.6677C51.297 88.4915 49.586 96.0361 49.586 103.991C49.586 125.705 62.1958 144.461 80.4968 153.348L54.3348 81.6677ZM43.436 104.003C43.436 70.3695 70.8007 43 104.439 43C138.078 43 165.443 70.3695 165.443 104.003C165.443 137.637 138.078 165.007 104.439 165.007C70.8007 165.007 43.436 137.637 43.436 104.003ZM269.678 122.038L283.733 64.6795H298.924L276.925 142.675H262.983L247.367 87.9405H246.757L231.113 142.675H217.17L195.157 64.6795H210.348L224.404 121.995H225.127L240.133 64.6795H253.962L268.997 122.038H269.678ZM339.418 87.1908C335.234 84.6803 330.284 83.418 324.568 83.418C318.852 83.418 313.902 84.6803 309.718 87.1908C305.534 89.7013 302.286 93.2329 299.988 97.7717C297.69 102.31 296.542 107.615 296.542 113.657C296.542 119.699 297.69 124.976 299.988 129.5C302.286 134.025 305.534 137.542 309.718 140.053C313.902 142.563 318.852 143.825 324.568 143.825C330.284 143.825 335.234 142.563 339.418 140.053C343.602 137.542 346.85 134.025 349.148 129.5C351.446 124.976 352.595 119.699 352.595 113.657C352.595 107.615 351.446 102.325 349.148 97.7717C346.85 93.2329 343.602 89.7013 339.418 87.1908ZM337.078 123.288C336.057 126.181 334.497 128.479 332.412 130.195C330.327 131.911 327.745 132.762 324.639 132.762C321.533 132.762 318.838 131.911 316.739 130.195C314.64 128.479 313.079 126.181 312.058 123.288C311.023 120.394 310.512 117.175 310.512 113.615C310.512 110.055 311.023 106.792 312.058 103.885C313.079 100.977 314.654 98.6652 316.739 96.9348C318.838 95.2045 321.462 94.3393 324.639 94.3393C327.816 94.3393 330.327 95.2045 332.412 96.9348C334.497 98.6652 336.043 100.977 337.078 103.885C338.113 106.792 338.624 110.04 338.624 113.615C338.624 117.189 338.113 120.394 337.078 123.288ZM378.78 86.1193C381.389 84.2754 384.368 83.3535 387.715 83.3535L387.729 83.3677C388.481 83.3677 389.346 83.4102 390.297 83.467C391.247 83.5237 392.041 83.623 392.679 83.7507V96.4307C392.084 96.2321 391.176 96.0477 389.914 95.8775C388.665 95.7215 387.446 95.6364 386.283 95.6364C383.758 95.6364 381.517 96.1754 379.517 97.2533C377.517 98.3313 375.957 99.8205 374.808 101.721C373.659 103.636 373.092 105.834 373.092 108.316V142.697H359.306V84.2045H372.667V93.9486H373.276C374.34 90.5729 376.184 87.9632 378.78 86.1193ZM435.328 93.855H434.761C434.051 92.4366 433.044 90.919 431.754 89.3021C430.463 87.6852 428.704 86.3094 426.492 85.1463C424.279 83.9975 421.471 83.4159 418.038 83.4159C413.542 83.4159 409.471 84.5648 405.812 86.8625C402.153 89.1602 399.259 92.5501 397.118 97.0321C394.976 101.514 393.898 107.003 393.898 113.499C393.898 119.995 394.948 125.385 397.061 129.867C399.174 134.363 402.039 137.781 405.67 140.15C409.301 142.519 413.414 143.696 418.01 143.696C421.357 143.696 424.137 143.143 426.35 142.022C428.562 140.902 430.335 139.554 431.683 137.966C433.03 136.377 434.051 134.874 434.761 133.455H435.597V142.675H449.157V64.6795H435.328V93.855ZM433.995 123.371C432.931 126.208 431.371 128.434 429.314 130.023C427.258 131.611 424.775 132.406 421.854 132.406C418.932 132.406 416.294 131.583 414.223 129.952C412.152 128.321 410.592 126.066 409.542 123.215C408.493 120.364 407.968 117.102 407.968 113.442C407.968 109.783 408.493 106.592 409.528 103.769C410.564 100.947 412.124 98.7483 414.18 97.1456C416.237 95.5428 418.804 94.7485 421.868 94.7485C424.931 94.7485 427.343 95.5286 429.385 97.0746C431.428 98.6206 432.974 100.791 434.037 103.585C435.087 106.379 435.612 109.67 435.612 113.442C435.612 117.215 435.073 120.534 434.009 123.385L433.995 123.371ZM489.31 64.6797C495.309 64.6797 500.345 65.8002 504.415 68.027C508.486 70.2538 511.564 73.3174 513.663 77.2179C515.748 81.1184 516.797 85.4869 516.797 90.4936C516.797 95.5004 515.748 99.9398 513.635 103.826C511.521 107.712 508.415 110.762 504.302 112.989C500.189 115.215 495.125 116.322 489.111 116.322H474.19V142.675H460.063V64.6797H489.31ZM495.834 102.862C498.061 101.656 499.721 99.9682 500.798 97.8407L500.813 97.8549C501.891 95.7274 502.43 93.2878 502.43 90.5078C502.43 87.7279 501.891 85.3025 500.813 83.1891C499.735 81.0758 498.061 79.4305 495.82 78.2533C493.565 77.0761 490.686 76.4804 487.154 76.4804H474.204V104.691H487.225C490.728 104.691 493.593 104.081 495.834 102.862ZM550.737 83.3535C547.389 83.3535 544.411 84.2754 541.801 86.1193C539.206 87.9632 537.362 90.5729 536.298 93.9486H535.688V84.2045H522.327V142.697H536.113V108.316C536.113 105.834 536.681 103.636 537.83 101.721C538.979 99.8205 540.539 98.3313 542.539 97.2533C544.539 96.1754 546.78 95.6364 549.304 95.6364C550.467 95.6364 551.687 95.7215 552.935 95.8775C554.197 96.0477 555.105 96.2321 555.701 96.4307V83.7507C555.063 83.623 554.268 83.5237 553.318 83.467C552.368 83.4102 551.503 83.3677 550.751 83.3677L550.737 83.3535ZM594.423 85.1484C597.629 86.2972 600.465 88.0843 602.948 90.4955L602.962 90.5239C605.43 92.9351 607.387 95.9987 608.805 99.7148C610.224 103.445 610.933 107.856 610.933 112.991V117.217H570.198C570.24 120.465 570.836 123.274 572.042 125.614C573.29 128.039 575.02 129.897 577.261 131.174C579.488 132.464 582.112 133.103 585.105 133.103C587.104 133.103 588.92 132.833 590.551 132.252C592.182 131.67 593.586 130.833 594.778 129.713C595.969 128.592 596.877 127.202 597.487 125.557L610.351 127.004C609.543 130.408 607.997 133.372 605.727 135.897C603.458 138.422 600.565 140.365 597.033 141.755C593.501 143.13 589.459 143.825 584.92 143.825C579.048 143.825 573.999 142.606 569.744 140.152C565.503 137.698 562.227 134.223 559.943 129.713C557.66 125.203 556.511 119.784 556.511 113.771C556.511 107.757 557.66 102.466 559.957 97.9135C562.255 93.3606 565.475 89.8005 569.616 87.2475C573.744 84.6945 578.609 83.418 584.197 83.418C587.799 83.418 591.218 83.9995 594.423 85.1484ZM571.999 101.516C570.935 103.473 570.368 105.615 570.24 107.899L570.255 107.884H597.728C597.7 105.246 597.132 102.892 596.012 100.821C594.891 98.7503 593.345 97.1192 591.345 95.9278C589.346 94.7364 587.034 94.1407 584.395 94.1407C581.573 94.1407 579.091 94.8215 576.963 96.1831C574.836 97.5447 573.176 99.3177 571.999 101.516ZM648.177 109.317L638.206 107.189C635.242 106.509 633.115 105.629 631.824 104.566C630.547 103.502 629.909 102.112 629.937 100.41C629.909 98.4241 630.874 96.8214 632.817 95.5732C634.76 94.3251 637.157 93.701 640.036 93.701C642.164 93.701 643.965 94.0414 645.44 94.7364C646.915 95.4314 648.092 96.3249 648.957 97.4454C649.837 98.5659 650.447 99.7574 650.801 101.02L663.368 99.6439C662.432 94.6655 659.978 90.7225 656.035 87.8007C652.092 84.8789 646.688 83.418 639.837 83.418C635.171 83.418 631.044 84.1413 627.484 85.6022C623.909 87.0631 621.129 89.1197 619.144 91.772C617.158 94.4244 616.165 97.5589 616.194 101.162C616.165 105.431 617.499 108.948 620.193 111.728C622.888 114.508 627.03 116.48 632.646 117.643L642.617 119.742C645.312 120.323 647.298 121.16 648.575 122.252C649.851 123.345 650.503 124.734 650.503 126.408C650.503 128.394 649.511 130.053 647.511 131.401C645.511 132.748 642.887 133.415 639.611 133.415C636.334 133.415 633.866 132.748 631.881 131.401C629.895 130.053 628.604 128.068 627.994 125.415L614.548 126.706C615.385 132.082 617.995 136.28 622.349 139.287C626.718 142.294 632.476 143.797 639.639 143.797C644.518 143.797 648.83 143.003 652.588 141.428C656.347 139.854 659.283 137.67 661.411 134.862C663.524 132.053 664.602 128.819 664.63 125.132C664.602 120.947 663.24 117.558 660.531 114.962C657.822 112.366 653.709 110.48 648.177 109.289V109.317ZM692.063 107.189L702.034 109.317V109.289C707.566 110.48 711.679 112.366 714.388 114.962C717.097 117.558 718.459 120.947 718.487 125.132C718.459 128.819 717.381 132.053 715.268 134.862C713.14 137.67 710.204 139.854 706.445 141.428C702.687 143.003 698.375 143.797 693.496 143.797C686.333 143.797 680.575 142.294 676.206 139.287C671.852 136.28 669.242 132.082 668.405 126.706L681.851 125.415C682.461 128.068 683.752 130.053 685.737 131.401C687.723 132.748 690.191 133.415 693.467 133.415C696.744 133.415 699.368 132.748 701.368 131.401C703.368 130.053 704.36 128.394 704.36 126.408C704.36 124.734 703.708 123.345 702.431 122.252C701.155 121.16 699.169 120.323 696.474 119.742L686.503 117.643C680.887 116.48 676.745 114.508 674.05 111.728C671.355 108.948 670.022 105.431 670.051 101.162C670.022 97.5589 671.015 94.4244 673.001 91.772C674.986 89.1197 677.766 87.0631 681.341 85.6022C684.901 84.1413 689.028 83.418 693.694 83.418C700.545 83.418 705.949 84.8789 709.892 87.8007C713.835 90.7225 716.289 94.6655 717.225 99.6439L704.658 101.02C704.304 99.7574 703.694 98.5659 702.814 97.4454C701.949 96.3249 700.772 95.4314 699.297 94.7364C697.822 94.0414 696.021 93.701 693.893 93.701C691.014 93.701 688.617 94.3251 686.674 95.5732C684.73 96.8214 683.766 98.4241 683.794 100.41C683.766 102.112 684.404 103.502 685.681 104.566C686.971 105.629 689.099 106.509 692.063 107.189ZM733.167 126.838C730.855 126.838 728.869 127.646 727.224 129.277C725.579 130.909 724.756 132.852 724.784 135.135C724.756 137.476 725.565 139.447 727.224 141.078C728.869 142.709 730.855 143.518 733.167 143.518C734.67 143.518 736.046 143.149 737.294 142.397C738.557 141.645 739.564 140.638 740.344 139.376C741.124 138.1 741.521 136.695 741.549 135.149C741.521 132.866 740.684 130.909 739.01 129.292C737.337 127.675 735.394 126.852 733.167 126.852V126.838ZM774.412 94.5378C771.589 94.5378 769.107 95.3037 766.979 96.8072C764.852 98.3248 763.192 100.481 762.015 103.303C760.838 106.112 760.242 109.445 760.242 113.43C760.242 117.416 760.81 120.834 761.987 123.699C763.164 126.564 764.809 128.763 766.923 130.294C769.05 131.826 771.547 132.592 774.412 132.592C776.44 132.592 778.255 132.209 779.872 131.429C781.489 130.649 782.837 129.529 783.929 128.053C785.021 126.578 785.758 124.791 786.17 122.678H799.346C799.006 126.819 797.8 130.479 795.687 133.67C793.573 136.847 790.708 139.343 787.077 141.131C783.446 142.918 779.177 143.811 774.284 143.811C768.44 143.811 763.434 142.535 759.264 139.968C755.094 137.415 751.888 133.869 749.633 129.33C747.378 124.791 746.257 119.6 746.257 113.657C746.257 107.714 747.406 102.466 749.69 97.9135C751.973 93.3606 755.207 89.8005 759.377 87.2475C763.561 84.6945 768.497 83.418 774.213 83.418C778.964 83.418 783.163 84.2973 786.836 86.0277C790.51 87.7581 793.432 90.2119 795.616 93.3748C797.8 96.5377 799.048 100.225 799.346 104.438H786.17C785.645 101.615 784.368 99.2609 782.383 97.3745C780.397 95.4881 777.731 94.5378 774.412 94.5378ZM845.711 87.1908C841.527 84.6803 836.577 83.418 830.861 83.418C825.145 83.418 820.195 84.6803 816.011 87.1908C811.827 89.7013 808.579 93.2329 806.281 97.7717C803.983 102.31 802.834 107.615 802.834 113.657C802.834 119.699 803.983 124.976 806.281 129.5C808.579 134.025 811.827 137.542 816.011 140.053C820.195 142.563 825.145 143.825 830.861 143.825C836.577 143.825 841.527 142.563 845.711 140.053C849.895 137.542 853.143 134.025 855.441 129.5C857.739 124.976 858.888 119.699 858.888 113.657C858.888 107.615 857.739 102.325 855.441 97.7717C853.143 93.2329 849.895 89.7013 845.711 87.1908ZM843.371 123.288C842.35 126.181 840.789 128.479 838.705 130.195C836.62 131.911 834.038 132.762 830.932 132.762C827.826 132.762 825.131 131.911 823.032 130.195C820.933 128.479 819.372 126.181 818.351 123.288C817.316 120.394 816.805 117.175 816.805 113.615C816.805 110.055 817.316 106.792 818.351 103.885C819.372 100.977 820.947 98.6652 823.032 96.9348C825.131 95.2045 827.755 94.3393 830.932 94.3393C834.109 94.3393 836.62 95.2045 838.705 96.9348C840.789 98.6652 842.335 100.977 843.371 103.885C844.406 106.792 844.917 110.04 844.917 113.615C844.917 117.189 844.406 120.394 843.371 123.288ZM929.579 83.4165C934.954 83.4165 939.351 85.1185 942.755 88.5226L942.741 88.4942C946.145 91.8983 947.847 96.8625 947.847 103.387V142.647H934.018V105.514C934.018 101.898 933.054 99.2311 931.125 97.5433C929.196 95.8554 926.842 95.0044 924.047 95.0044C920.728 95.0044 918.133 96.0398 916.261 98.1106C914.403 100.181 913.466 102.862 913.466 106.167V142.647H899.95V104.947C899.95 101.926 899.042 99.5148 897.226 97.7135C895.411 95.9122 893.042 95.0044 890.12 95.0044C888.149 95.0044 886.348 95.5009 884.717 96.5079C883.085 97.5149 881.795 98.9191 880.83 100.735C879.866 102.55 879.384 104.663 879.384 107.075V142.647H865.597V84.1541H878.774V94.0967H879.454C880.674 90.7494 882.688 88.1254 885.511 86.239C888.333 84.3526 891.652 83.4023 895.609 83.4023C899.567 83.4023 902.914 84.3668 905.637 86.2816C908.375 88.1964 910.289 90.8061 911.41 94.1109H912.02C913.31 90.8629 915.509 88.2673 918.587 86.3241C921.679 84.381 925.338 83.4165 929.579 83.4165Z" fill="white"/>
</svg>
