<svg width="403" height="402" viewBox="0 0 403 402" fill="none" xmlns="http://www.w3.org/2000/svg">
<g clip-path="url(#clip0_1_829)">
<path d="M201.872 0.00976562C91.0304 0.00976562 0.881836 90.1583 0.881836 201C0.881836 311.841 91.0304 401.99 201.872 401.99C312.714 401.99 402.862 311.841 402.862 201C402.862 90.1583 312.714 0.00976562 201.872 0.00976562ZM21.1789 201C21.1789 174.812 26.8224 149.911 36.8224 127.436L123.011 363.624C62.7135 334.317 21.1789 272.535 21.1789 201ZM201.872 381.693C184.149 381.693 167.02 379.069 150.832 374.317L205.04 216.792L260.585 368.97C260.931 369.861 261.377 370.703 261.872 371.445C243.11 378.079 222.912 381.693 201.872 381.693ZM226.773 116.247C237.664 115.653 247.466 114.515 247.466 114.515C257.218 113.376 256.03 99.0692 246.327 99.6137C246.327 99.6137 217.07 101.891 198.159 101.891C180.387 101.891 150.585 99.6137 150.585 99.6137C140.832 99.0197 139.694 113.921 149.446 114.515C149.446 114.515 158.654 115.653 168.407 116.247L196.575 193.376L157.02 311.99L91.1789 116.247C102.07 115.653 111.872 114.515 111.872 114.515C121.624 113.376 120.436 99.0692 110.733 99.6137C110.733 99.6137 81.4759 101.891 62.565 101.891C59.1987 101.891 55.1888 101.792 50.9313 101.693C83.2086 52.683 138.753 20.3068 201.872 20.3068C248.902 20.3068 291.773 38.2771 323.902 67.7325C323.11 67.683 322.367 67.584 321.575 67.584C303.803 67.584 291.228 83.0296 291.228 99.6632C291.228 114.564 299.842 127.138 309.001 142.039C315.882 154.069 323.902 169.515 323.902 191.891C323.902 207.336 317.961 225.307 310.139 250.307L292.119 310.505L226.773 116.247ZM360.436 114.317C374.545 140.059 382.565 169.614 382.565 201C382.565 267.683 346.426 325.851 292.714 357.188L347.912 197.584C358.209 171.792 361.674 151.198 361.674 132.881C361.674 126.247 361.228 120.059 360.436 114.317Z" fill="#101517"/>
</g>
<defs>
<clipPath id="clip0_1_829">
<rect width="402" height="402" fill="white" transform="translate(0.87207)"/>
</clipPath>
</defs>
</svg>
