<svg width="1022" height="209" viewBox="0 0 1022 209" fill="none" xmlns="http://www.w3.org/2000/svg">
<rect width="1021.44" height="208.694" rx="104.347" fill="#3858E9"/>
<path fill-rule="evenodd" clip-rule="evenodd" d="M148.33 102.959L131.579 151.396C147.884 141.888 158.844 124.226 158.844 103.991C158.844 94.4576 156.402 85.4836 152.124 77.6779C152.36 79.4305 152.496 81.3073 152.496 83.3209C152.496 88.8768 151.454 95.1287 148.33 102.959ZM117.828 77.7525C117.828 77.7525 114.852 78.1005 111.554 78.2745L111.567 78.2994L131.393 137.252L136.861 118.968C139.651 111.834 141.039 105.93 141.039 101.232C141.039 94.4451 138.597 89.7593 136.514 86.105C136.301 85.7597 136.089 85.4186 135.879 85.0809L135.876 85.0751L135.874 85.0718C133.338 80.9889 131.12 77.4165 131.12 73.2406C131.12 68.2067 134.939 63.5084 140.333 63.5084C140.474 63.5084 140.615 63.5219 140.757 63.5353L140.757 63.5353C140.851 63.5443 140.945 63.5532 141.039 63.5582C131.281 54.609 118.287 49.1525 104.003 49.1525C84.8344 49.1525 67.9841 58.9842 58.164 73.8621C59.4535 73.8994 60.6686 73.9243 61.6978 73.9243C67.4385 73.9243 76.3162 73.2282 76.3162 73.2282C79.2672 73.0542 79.6144 77.4045 76.6634 77.7525C76.6634 77.7525 73.7 78.1005 70.3895 78.2745L90.3644 137.687L102.367 101.691L93.8237 78.2745C90.8727 78.1005 88.0705 77.7525 88.0705 77.7525C85.1196 77.5785 85.4543 73.0542 88.4177 73.2282C88.4177 73.2282 97.469 73.9243 102.863 73.9243C108.603 73.9243 117.481 73.2282 117.481 73.2282C120.432 73.0542 120.779 77.4045 117.828 77.7525ZM88.5045 156.604C93.4269 158.046 98.6221 158.842 104.003 158.842C110.389 158.842 116.514 157.735 122.218 155.734C122.069 155.498 121.932 155.25 121.821 154.976L104.958 108.789L88.5045 156.604ZM53.8988 81.6677C50.861 88.4915 49.1499 96.0361 49.1499 103.991C49.1499 125.705 61.7598 144.461 80.0607 153.348L53.8988 81.6677ZM43 104.003C43 70.3695 70.3647 43 104.003 43C137.642 43 165.007 70.3695 165.007 104.003C165.007 137.637 137.642 165.007 104.003 165.007C70.3647 165.007 43 137.637 43 104.003ZM269.242 122.038L283.297 64.6795H298.488L276.489 142.675H262.547L246.931 87.9405H246.321L230.677 142.675H216.734L194.721 64.6795H209.912L223.968 121.995H224.691L239.697 64.6795H253.526L268.561 122.038H269.242ZM338.982 87.1908C334.798 84.6803 329.848 83.418 324.132 83.418C318.416 83.418 313.466 84.6803 309.282 87.1908C305.098 89.7013 301.85 93.2329 299.552 97.7717C297.254 102.31 296.105 107.615 296.105 113.657C296.105 119.699 297.254 124.976 299.552 129.5C301.85 134.025 305.098 137.542 309.282 140.053C313.466 142.563 318.416 143.825 324.132 143.825C329.848 143.825 334.798 142.563 338.982 140.053C343.166 137.542 346.414 134.025 348.712 129.5C351.01 124.976 352.159 119.699 352.159 113.657C352.159 107.615 351.01 102.325 348.712 97.7717C346.414 93.2329 343.166 89.7013 338.982 87.1908ZM336.642 123.288C335.621 126.181 334.06 128.479 331.976 130.195C329.891 131.911 327.309 132.762 324.203 132.762C321.097 132.762 318.402 131.911 316.303 130.195C314.204 128.479 312.643 126.181 311.622 123.288C310.587 120.394 310.076 117.175 310.076 113.615C310.076 110.055 310.587 106.792 311.622 103.885C312.643 100.977 314.218 98.6652 316.303 96.9348C318.402 95.2045 321.026 94.3393 324.203 94.3393C327.38 94.3393 329.891 95.2045 331.976 96.9348C334.06 98.6652 335.606 100.977 336.642 103.885C337.677 106.792 338.188 110.04 338.188 113.615C338.188 117.189 337.677 120.394 336.642 123.288ZM378.344 86.1193C380.953 84.2754 383.932 83.3535 387.279 83.3535L387.293 83.3677C388.045 83.3677 388.91 83.4102 389.861 83.467C390.811 83.5237 391.605 83.623 392.243 83.7507V96.4307C391.648 96.2321 390.74 96.0477 389.478 95.8775C388.229 95.7215 387.01 95.6364 385.847 95.6364C383.322 95.6364 381.081 96.1754 379.081 97.2533C377.081 98.3313 375.521 99.8205 374.372 101.721C373.223 103.636 372.656 105.834 372.656 108.316V142.697H358.87V84.2045H372.23V93.9486H372.84C373.904 90.5729 375.748 87.9632 378.344 86.1193ZM434.892 93.855H434.325C433.615 92.4366 432.608 90.919 431.318 89.3021C430.027 87.6852 428.268 86.3094 426.056 85.1463C423.843 83.9975 421.035 83.4159 417.602 83.4159C413.106 83.4159 409.035 84.5648 405.376 86.8625C401.717 89.1602 398.823 92.5501 396.682 97.0321C394.54 101.514 393.462 107.003 393.462 113.499C393.462 119.995 394.512 125.385 396.625 129.867C398.738 134.363 401.603 137.781 405.234 140.15C408.865 142.519 412.978 143.696 417.574 143.696C420.921 143.696 423.701 143.143 425.914 142.022C428.126 140.902 429.899 139.554 431.247 137.966C432.594 136.377 433.615 134.874 434.325 133.455H435.161V142.675H448.721V64.6795H434.892V93.855ZM433.559 123.371C432.495 126.208 430.935 128.434 428.878 130.023C426.822 131.611 424.339 132.406 421.418 132.406C418.496 132.406 415.858 131.583 413.787 129.952C411.716 128.321 410.156 126.066 409.106 123.215C408.057 120.364 407.532 117.102 407.532 113.442C407.532 109.783 408.057 106.592 409.092 103.769C410.128 100.947 411.688 98.7483 413.744 97.1456C415.801 95.5428 418.368 94.7485 421.432 94.7485C424.495 94.7485 426.907 95.5286 428.949 97.0746C430.991 98.6206 432.537 100.791 433.601 103.585C434.651 106.379 435.176 109.67 435.176 113.442C435.176 117.215 434.637 120.534 433.573 123.385L433.559 123.371ZM488.874 64.6797C494.873 64.6797 499.909 65.8002 503.979 68.027C508.05 70.2538 511.128 73.3174 513.227 77.2179C515.312 81.1184 516.361 85.4869 516.361 90.4936C516.361 95.5004 515.312 99.9398 513.198 103.826C511.085 107.712 507.979 110.762 503.866 112.989C499.753 115.215 494.689 116.322 488.675 116.322H473.754V142.675H459.627V64.6797H488.874ZM495.398 102.862C497.625 101.656 499.284 99.9682 500.362 97.8407L500.377 97.8549C501.455 95.7274 501.994 93.2878 501.994 90.5078C501.994 87.7279 501.455 85.3025 500.377 83.1891C499.299 81.0758 497.625 79.4305 495.384 78.2533C493.129 77.0761 490.25 76.4804 486.718 76.4804H473.768V104.691H486.789C490.292 104.691 493.157 104.081 495.398 102.862ZM550.301 83.3535C546.953 83.3535 543.975 84.2754 541.365 86.1193C538.769 87.9632 536.926 90.5729 535.862 93.9486H535.252V84.2045H521.891V142.697H535.677V108.316C535.677 105.834 536.245 103.636 537.394 101.721C538.543 99.8205 540.103 98.3313 542.103 97.2533C544.102 96.1754 546.343 95.6364 548.868 95.6364C550.031 95.6364 551.251 95.7215 552.499 95.8775C553.761 96.0477 554.669 96.2321 555.265 96.4307V83.7507C554.627 83.623 553.832 83.5237 552.882 83.467C551.932 83.4102 551.067 83.3677 550.315 83.3677L550.301 83.3535ZM593.987 85.1484C597.193 86.2972 600.029 88.0843 602.511 90.4955L602.526 90.5239C604.994 92.9351 606.951 95.9987 608.369 99.7148C609.788 103.445 610.497 107.856 610.497 112.991V117.217H569.762C569.804 120.465 570.4 123.274 571.606 125.614C572.854 128.039 574.584 129.897 576.825 131.174C579.052 132.464 581.676 133.103 584.669 133.103C586.668 133.103 588.484 132.833 590.115 132.252C591.746 131.67 593.15 130.833 594.342 129.713C595.533 128.592 596.441 127.202 597.051 125.557L609.915 127.004C609.107 130.408 607.561 133.372 605.291 135.897C603.022 138.422 600.129 140.365 596.597 141.755C593.065 143.13 589.023 143.825 584.484 143.825C578.612 143.825 573.563 142.606 569.308 140.152C565.067 137.698 561.791 134.223 559.507 129.713C557.224 125.203 556.075 119.784 556.075 113.771C556.075 107.757 557.224 102.466 559.521 97.9135C561.819 93.3606 565.039 89.8005 569.18 87.2475C573.308 84.6945 578.173 83.418 583.761 83.418C587.363 83.418 590.782 83.9995 593.987 85.1484ZM571.563 101.516C570.499 103.473 569.932 105.615 569.804 107.899L569.818 107.884H597.292C597.264 105.246 596.696 102.892 595.576 100.821C594.455 98.7503 592.909 97.1192 590.909 95.9278C588.909 94.7364 586.598 94.1407 583.959 94.1407C581.137 94.1407 578.655 94.8215 576.527 96.1831C574.4 97.5447 572.74 99.3177 571.563 101.516ZM647.741 109.317L637.77 107.189C634.806 106.509 632.678 105.629 631.388 104.566C630.111 103.502 629.473 102.112 629.501 100.41C629.473 98.4241 630.438 96.8214 632.381 95.5732C634.324 94.3251 636.721 93.701 639.6 93.701C641.728 93.701 643.529 94.0414 645.004 94.7364C646.479 95.4314 647.656 96.3249 648.521 97.4454C649.401 98.5659 650.011 99.7574 650.365 101.02L662.932 99.6439C661.996 94.6655 659.542 90.7225 655.599 87.8007C651.656 84.8789 646.252 83.418 639.401 83.418C634.735 83.418 630.608 84.1413 627.048 85.6022C623.473 87.0631 620.693 89.1197 618.708 91.772C616.722 94.4244 615.729 97.5589 615.758 101.162C615.729 105.431 617.062 108.948 619.757 111.728C622.452 114.508 626.594 116.48 632.21 117.643L642.181 119.742C644.876 120.323 646.862 121.16 648.138 122.252C649.415 123.345 650.067 124.734 650.067 126.408C650.067 128.394 649.075 130.053 647.075 131.401C645.075 132.748 642.451 133.415 639.174 133.415C635.898 133.415 633.43 132.748 631.445 131.401C629.459 130.053 628.168 128.068 627.558 125.415L614.112 126.706C614.949 132.082 617.559 136.28 621.913 139.287C626.282 142.294 632.04 143.797 639.203 143.797C644.082 143.797 648.394 143.003 652.152 141.428C655.911 139.854 658.847 137.67 660.975 134.862C663.088 132.053 664.166 128.819 664.194 125.132C664.166 120.947 662.804 117.558 660.095 114.962C657.386 112.366 653.273 110.48 647.741 109.289V109.317ZM691.627 107.189L701.598 109.317V109.289C707.13 110.48 711.243 112.366 713.952 114.962C716.661 117.558 718.023 120.947 718.051 125.132C718.023 128.819 716.945 132.053 714.832 134.862C712.704 137.67 709.768 139.854 706.009 141.428C702.251 143.003 697.939 143.797 693.06 143.797C685.897 143.797 680.139 142.294 675.77 139.287C671.416 136.28 668.806 132.082 667.969 126.706L681.415 125.415C682.025 128.068 683.316 130.053 685.301 131.401C687.287 132.748 689.755 133.415 693.031 133.415C696.308 133.415 698.932 132.748 700.932 131.401C702.932 130.053 703.924 128.394 703.924 126.408C703.924 124.734 703.272 123.345 701.995 122.252C700.719 121.16 698.733 120.323 696.038 119.742L686.067 117.643C680.451 116.48 676.309 114.508 673.614 111.728C670.919 108.948 669.586 105.431 669.615 101.162C669.586 97.5589 670.579 94.4244 672.565 91.772C674.55 89.1197 677.33 87.0631 680.905 85.6022C684.465 84.1413 688.592 83.418 693.258 83.418C700.109 83.418 705.513 84.8789 709.456 87.8007C713.399 90.7225 715.853 94.6655 716.789 99.6439L704.222 101.02C703.868 99.7574 703.258 98.5659 702.378 97.4454C701.513 96.3249 700.336 95.4314 698.861 94.7364C697.386 94.0414 695.585 93.701 693.457 93.701C690.578 93.701 688.181 94.3251 686.238 95.5732C684.294 96.8214 683.33 98.4241 683.358 100.41C683.33 102.112 683.968 103.502 685.245 104.566C686.535 105.629 688.663 106.509 691.627 107.189ZM732.731 126.838C730.419 126.838 728.433 127.646 726.788 129.277C725.143 130.909 724.32 132.852 724.348 135.135C724.32 137.476 725.128 139.447 726.788 141.078C728.433 142.709 730.419 143.518 732.731 143.518C734.234 143.518 735.61 143.149 736.858 142.397C738.121 141.645 739.128 140.638 739.908 139.376C740.688 138.1 741.085 136.695 741.113 135.149C741.085 132.866 740.248 130.909 738.574 129.292C736.901 127.675 734.958 126.852 732.731 126.852V126.838ZM773.976 94.5378C771.153 94.5378 768.671 95.3037 766.543 96.8072C764.416 98.3248 762.756 100.481 761.579 103.303C760.402 106.112 759.806 109.445 759.806 113.43C759.806 117.416 760.374 120.834 761.551 123.699C762.728 126.564 764.373 128.763 766.487 130.294C768.614 131.826 771.11 132.592 773.976 132.592C776.004 132.592 777.819 132.209 779.436 131.429C781.053 130.649 782.401 129.529 783.493 128.053C784.585 126.578 785.322 124.791 785.734 122.678H798.91C798.57 126.819 797.364 130.479 795.251 133.67C793.137 136.847 790.272 139.343 786.641 141.131C783.01 142.918 778.741 143.811 773.848 143.811C768.004 143.811 762.997 142.535 758.828 139.968C754.658 137.415 751.452 133.869 749.197 129.33C746.942 124.791 745.821 119.6 745.821 113.657C745.821 107.714 746.97 102.466 749.254 97.9135C751.537 93.3606 754.771 89.8005 758.941 87.2475C763.125 84.6945 768.061 83.418 773.777 83.418C778.528 83.418 782.727 84.2973 786.4 86.0277C790.074 87.7581 792.996 90.2119 795.18 93.3748C797.364 96.5377 798.612 100.225 798.91 104.438H785.734C785.209 101.615 783.932 99.2609 781.947 97.3745C779.961 95.4881 777.294 94.5378 773.976 94.5378ZM845.275 87.1908C841.091 84.6803 836.141 83.418 830.425 83.418C824.709 83.418 819.759 84.6803 815.575 87.1908C811.391 89.7013 808.143 93.2329 805.845 97.7717C803.547 102.31 802.398 107.615 802.398 113.657C802.398 119.699 803.547 124.976 805.845 129.5C808.143 134.025 811.391 137.542 815.575 140.053C819.759 142.563 824.709 143.825 830.425 143.825C836.141 143.825 841.091 142.563 845.275 140.053C849.459 137.542 852.707 134.025 855.005 129.5C857.303 124.976 858.452 119.699 858.452 113.657C858.452 107.615 857.303 102.325 855.005 97.7717C852.707 93.2329 849.459 89.7013 845.275 87.1908ZM842.935 123.288C841.914 126.181 840.353 128.479 838.268 130.195C836.183 131.911 833.602 132.762 830.496 132.762C827.39 132.762 824.695 131.911 822.596 130.195C820.497 128.479 818.936 126.181 817.915 123.288C816.88 120.394 816.369 117.175 816.369 113.615C816.369 110.055 816.88 106.792 817.915 103.885C818.936 100.977 820.511 98.6652 822.596 96.9348C824.695 95.2045 827.319 94.3393 830.496 94.3393C833.673 94.3393 836.183 95.2045 838.268 96.9348C840.353 98.6652 841.899 100.977 842.935 103.885C843.97 106.792 844.481 110.04 844.481 113.615C844.481 117.189 843.97 120.394 842.935 123.288ZM929.143 83.4165C934.518 83.4165 938.915 85.1185 942.319 88.5226L942.305 88.4942C945.709 91.8983 947.411 96.8625 947.411 103.387V142.647H933.582V105.514C933.582 101.898 932.618 99.2311 930.689 97.5433C928.76 95.8554 926.406 95.0044 923.611 95.0044C920.292 95.0044 917.697 96.0398 915.825 98.1106C913.967 100.181 913.03 102.862 913.03 106.167V142.647H899.514V104.947C899.514 101.926 898.606 99.5148 896.79 97.7135C894.975 95.9122 892.606 95.0044 889.684 95.0044C887.713 95.0044 885.912 95.5009 884.281 96.5079C882.649 97.5149 881.359 98.9191 880.394 100.735C879.43 102.55 878.948 104.663 878.948 107.075V142.647H865.161V84.1541H878.338V94.0967H879.018C880.238 90.7494 882.252 88.1254 885.075 86.239C887.897 84.3526 891.216 83.4023 895.173 83.4023C899.131 83.4023 902.478 84.3668 905.201 86.2816C907.939 88.1964 909.853 90.8061 910.974 94.1109H911.584C912.874 90.8629 915.073 88.2673 918.151 86.3241C921.243 84.381 924.902 83.4165 929.143 83.4165Z" fill="white"/>
</svg>
