<svg width="640" height="209" viewBox="0 0 640 209" fill="none" xmlns="http://www.w3.org/2000/svg">
<path d="M0.87207 104.08C0.87207 46.598 47.4701 0 104.952 0H535.792C593.274 0 639.872 46.598 639.872 104.08C639.872 161.561 593.274 208.159 535.792 208.159H104.952C47.4701 208.159 0.87207 161.561 0.87207 104.08Z" fill="#3858E9"/>
<path fill-rule="evenodd" clip-rule="evenodd" d="M131.746 150.537L131.752 150.522C147.929 141.092 158.8 123.568 158.8 103.501C158.8 94.0475 156.378 85.1442 152.134 77.4027C152.367 79.1393 152.501 81.0105 152.501 83.0039C152.501 88.5196 151.461 94.7202 148.367 102.486L131.752 150.522L131.746 150.525V150.537ZM111.884 78.0019C115.162 77.8307 118.11 77.4883 118.11 77.4883C121.033 77.1458 120.69 72.8287 117.767 72.9999C117.767 72.9999 108.961 73.6848 103.262 73.6848C97.9053 73.6848 88.9283 72.9999 88.9283 72.9999C85.993 72.8287 85.6506 77.3171 88.5858 77.4883C88.5858 77.4883 91.3621 77.8307 94.2973 78.0019L102.773 101.239L90.8606 136.95L71.0477 77.9897C74.3376 77.8185 77.2729 77.476 77.2729 77.476C80.1959 77.1336 79.8534 72.8165 76.9304 72.9877C76.9304 72.9877 68.1246 73.6725 62.4253 73.6725C61.4102 73.6725 60.1994 73.6481 58.9153 73.6114C68.6628 58.8622 85.3815 49.1027 104.387 49.1027C118.562 49.1027 131.453 54.5206 141.127 63.3994C141.034 63.3946 140.941 63.3857 140.848 63.3769C140.709 63.3637 140.569 63.3505 140.43 63.3505C135.073 63.3505 131.294 68.0101 131.294 72.9999C131.294 77.1596 133.51 80.7205 136.045 84.7925L136.048 84.7972L136.051 84.803C136.25 85.1213 136.45 85.4428 136.651 85.7679C138.718 89.388 141.139 94.0475 141.139 100.774C141.139 105.434 139.757 111.292 136.993 118.373L131.563 136.51L111.897 78.0264V78.0019H111.884ZM104.387 157.924C99.0427 157.924 93.8938 157.129 89.0139 155.711L105.341 108.271L122.072 154.096C122.182 154.365 122.317 154.61 122.464 154.842C116.801 156.824 110.723 157.924 104.4 157.924H104.387ZM49.975 103.501C49.975 95.613 51.675 88.1283 54.6836 81.3529L80.6362 152.47C62.4743 143.652 49.975 125.05 49.975 103.501ZM104.387 43C71.0232 43 43.8721 70.1503 43.8721 103.513C43.8721 136.877 71.0232 164.027 104.387 164.027C137.751 164.027 164.903 136.877 164.903 103.513C164.903 70.1503 137.764 43 104.387 43ZM206.155 133.692L189.099 73.3151H203.608L214.222 115.772H214.778L225.627 73.3151H239.975L250.824 115.538H251.41L261.863 73.3151H276.401L259.301 133.692H244.484L233.167 92.8892H232.347L221.03 133.692H206.17H206.155ZM280.662 156.302V156.317L280.647 156.302H280.662ZM280.662 156.302V73.2919H294.659V83.2765H295.479C296.211 81.8125 297.25 80.246 298.582 78.577C299.915 76.908 301.73 75.4878 304.014 74.2873C306.298 73.0868 309.197 72.5013 312.74 72.5013C317.411 72.5013 321.612 73.6872 325.375 76.0589C329.138 78.4307 332.125 81.9296 334.335 86.5559C336.546 91.1823 337.659 96.8481 337.659 103.553C337.659 110.259 336.575 115.822 334.394 120.448C332.213 125.089 329.255 128.618 325.507 131.063C321.759 133.493 317.513 134.723 312.77 134.723C309.314 134.723 306.445 134.152 304.161 132.995C301.877 131.839 300.047 130.448 298.67 128.808C297.294 127.168 296.225 125.616 295.464 124.152H294.879V156.302H280.662ZM296.284 113.743C295.172 110.802 294.615 107.393 294.615 103.488C294.615 99.5963 295.157 96.2021 296.24 93.3198C297.324 90.4356 298.934 88.1957 301.057 86.5999C303.18 85.0041 305.64 84.1989 308.802 84.1989C311.964 84.1989 314.614 85.0188 316.737 86.6732C318.86 88.3275 320.471 90.5967 321.539 93.5101C322.608 96.4235 323.15 99.7177 323.15 103.495C323.15 107.272 322.608 110.639 321.525 113.582C320.441 116.525 318.831 118.853 316.708 120.536C314.585 122.22 311.818 123.069 308.802 123.069C305.786 123.069 303.224 122.249 301.116 120.609C299.007 118.97 297.397 116.671 296.284 113.743ZM351.552 134.525C349.166 134.525 347.116 133.691 345.417 132.007C343.719 130.323 342.87 128.288 342.899 125.873C342.87 123.516 343.704 121.495 345.417 119.826C347.116 118.143 349.166 117.308 351.552 117.308C353.938 117.308 355.871 118.143 357.584 119.826C359.297 121.51 360.175 123.516 360.205 125.873C360.175 127.468 359.765 128.918 358.96 130.236C358.155 131.553 357.115 132.593 355.812 133.354C354.509 134.13 353.089 134.51 351.552 134.51V134.525ZM378.505 130.881C382.81 133.531 387.978 134.849 394.01 134.849C399.061 134.849 403.468 133.927 407.216 132.082C410.964 130.237 413.921 127.675 416.103 124.381C418.284 121.087 419.543 117.31 419.88 113.035H406.279C405.869 115.216 405.093 117.061 403.966 118.584C402.838 120.106 401.447 121.263 399.778 122.068C398.124 122.873 396.235 123.269 394.141 123.269C391.169 123.269 388.593 122.478 386.411 120.897C384.215 119.301 382.517 117.046 381.316 114.089C380.116 111.132 379.515 107.545 379.515 103.489C379.515 99.4341 380.13 95.9497 381.345 93.0363C382.561 90.1229 384.274 87.8829 386.47 86.3311C388.68 84.7646 391.228 83.9885 394.141 83.9885C397.567 83.9885 400.305 84.9694 402.37 86.9165C404.419 88.8637 405.722 91.294 406.279 94.2074H419.88C419.573 89.8592 418.284 86.0528 416.03 82.7881C413.775 79.5233 410.759 77.005 406.967 75.2043C403.175 73.4035 398.841 72.5105 393.937 72.5105C388.036 72.5105 382.927 73.8281 378.622 76.4633C374.318 79.0986 370.98 82.7733 368.623 87.4729C366.266 92.1724 365.08 97.6186 365.08 103.724C365.08 109.829 366.251 115.231 368.564 119.901C370.877 124.572 374.201 128.232 378.505 130.881ZM452.397 134.854C446.497 134.854 441.388 133.552 437.069 130.96C432.75 128.369 429.397 124.738 427.025 120.068C424.654 115.397 423.467 109.951 423.467 103.715C423.467 97.4778 424.654 92.0168 427.025 87.3173C429.397 82.6324 432.75 78.987 437.069 76.3956C441.388 73.8043 446.497 72.5013 452.397 72.5013C458.298 72.5013 463.407 73.8043 467.726 76.3956C472.045 78.987 475.398 82.6324 477.77 87.3173C480.142 92.0022 481.328 97.4778 481.328 103.715C481.328 109.951 480.142 115.397 477.77 120.068C475.398 124.738 472.045 128.369 467.726 130.96C463.407 133.552 458.298 134.854 452.397 134.854ZM452.471 123.45C455.662 123.45 458.342 122.571 460.494 120.8C462.646 119.028 464.242 116.656 465.311 113.67C466.38 110.683 466.907 107.36 466.907 103.685C466.907 100.011 466.38 96.6433 465.311 93.642C464.257 90.6407 462.646 88.2543 460.494 86.4682C458.342 84.6821 455.677 83.7889 452.471 83.7889C449.264 83.7889 446.483 84.6821 444.316 86.4682C442.149 88.2543 440.538 90.6407 439.484 93.642C438.415 96.6433 437.889 99.9959 437.889 103.685C437.889 107.375 438.415 110.683 439.484 113.67C440.538 116.656 442.164 119.028 444.316 120.8C446.483 122.571 449.191 123.45 452.471 123.45ZM488.268 73.2865V133.663L488.283 133.692H502.514V96.9744C502.514 94.4856 503.012 92.3042 504.007 90.4303C505.003 88.5563 506.335 87.1069 508.019 86.0675C509.688 85.028 511.547 84.5155 513.597 84.5155C516.613 84.5155 519.058 85.4525 520.932 87.3119C522.806 89.1712 523.743 91.66 523.743 94.7784V133.692H537.696V96.0374C537.696 92.6262 538.647 89.8593 540.58 87.7218C542.498 85.5843 545.177 84.5155 548.618 84.5155C551.487 84.5155 553.932 85.394 555.923 87.1362C557.914 88.8784 558.91 91.6161 558.91 95.364V133.692H573.185V93.168C573.185 86.4334 571.428 81.3093 567.914 77.7957C564.401 74.282 559.862 72.5252 554.313 72.5252C549.935 72.5252 546.143 73.5208 542.966 75.5265C539.789 77.5322 537.52 80.2114 536.188 83.564H535.558C534.401 80.1528 532.41 77.459 529.599 75.4825C526.788 73.5061 523.289 72.5105 519.248 72.5105C515.208 72.5105 511.738 73.4914 508.824 75.4386C505.911 77.3857 503.832 80.0943 502.572 83.5494H501.87V73.2865H488.268Z" fill="white"/>
</svg>
