<svg width="402" height="401" viewBox="0 0 402 401" fill="none" xmlns="http://www.w3.org/2000/svg">
<path d="M0.87207 200.612C0.87207 89.966 90.5686 0.269531 201.215 0.269531C311.861 0.269531 401.558 89.966 401.558 200.612C401.558 311.259 311.861 400.955 201.215 400.955C90.5686 400.955 0.87207 311.259 0.87207 200.612Z" fill="#3858E9"/>
<path fill-rule="evenodd" clip-rule="evenodd" d="M252.947 290.214L284.958 197.671C290.917 182.714 292.919 170.772 292.919 160.149C292.919 156.31 292.66 152.706 292.213 149.361C300.386 164.271 305.05 181.418 305.05 199.626C305.05 238.278 284.11 272.031 252.947 290.191V290.214ZM214.694 150.515C221.007 150.186 226.683 149.526 226.683 149.526C232.313 148.866 231.654 140.552 226.024 140.882C226.024 140.882 209.064 142.201 198.088 142.201C187.771 142.201 170.482 140.882 170.482 140.882C164.829 140.552 164.169 149.196 169.822 149.526C169.822 149.526 175.169 150.186 180.822 150.515L197.146 195.268L174.203 264.046L136.045 150.492C142.381 150.162 148.034 149.502 148.034 149.502C153.664 148.843 153.004 140.528 147.375 140.858C147.375 140.858 130.415 142.177 119.439 142.177C117.484 142.177 115.152 142.13 112.678 142.059C131.452 113.653 163.651 94.857 200.255 94.857C227.555 94.857 252.382 105.291 271.014 122.392C270.566 122.368 270.118 122.297 269.671 122.297C259.354 122.297 252.075 131.272 252.075 140.882C252.075 149.526 257.046 156.828 262.392 165.472C266.373 172.444 271.037 181.418 271.037 194.373C271.037 203.347 268.375 214.629 263.052 228.267L252.594 263.198L214.718 150.562V150.515H214.694ZM200.255 304.441C189.962 304.441 180.045 302.91 170.647 300.178L202.092 208.812L234.315 297.069C234.527 297.587 234.786 298.058 235.069 298.506C224.163 302.321 212.456 304.441 200.279 304.441H200.255ZM95.4599 199.626C95.4599 184.433 98.734 170.018 104.528 156.969L154.512 293.936C119.533 276.954 95.4599 241.128 95.4599 199.626ZM200.255 83.1035C135.998 83.1035 83.7061 135.394 83.7061 199.649C83.7061 263.905 135.998 316.195 200.255 316.195C264.512 316.195 316.804 263.905 316.804 199.649C316.804 135.394 264.536 83.1035 200.255 83.1035Z" fill="white"/>
</svg>
