<svg width="1964" height="716" viewBox="0 0 1964 716" fill="none" xmlns="http://www.w3.org/2000/svg">
<g clip-path="url(#clip0_11891_190662)">
<g clip-path="url(#clip1_11891_190662)">
<path d="M0.570334 364.079V492.26H90.5254V369.625C90.5254 357.694 95.2641 346.251 103.699 337.814C112.134 329.378 123.574 324.638 135.503 324.638H227.738C270.765 324.625 312.026 307.521 342.448 277.086C372.87 246.651 389.962 205.378 389.965 162.341V162.341C389.965 119.298 372.871 78.018 342.444 47.5798C312.016 17.1416 270.747 0.0382753 227.713 0.0317383L0.570334 0.0317383V160.258H90.5254V84.7176H221.65C242.01 84.7176 261.536 92.8054 275.935 107.202C290.333 121.599 298.426 141.127 298.432 161.491V161.491C298.432 181.859 290.343 201.393 275.943 215.795C261.544 230.197 242.014 238.288 221.65 238.288H126.323C109.805 238.28 93.4483 241.529 78.1868 247.847C62.9254 254.166 49.0588 263.432 37.3799 275.114C25.7009 286.797 16.4387 300.667 10.1226 315.932C3.80657 331.197 0.560616 347.558 0.570334 364.079V364.079Z" fill="#6D4AFF"/>
<path d="M135.478 324.639C99.6994 324.642 65.387 338.859 40.0875 364.164C14.7881 389.468 0.57358 423.788 0.570312 459.574L0.570313 492.26H90.5254V369.625C90.5254 357.698 95.2607 346.26 103.69 337.824C112.12 329.388 123.554 324.645 135.478 324.639V324.639Z" fill="url(#paint0_linear_11891_190662)"/>
<path d="M403.914 492.272V296.993C403.914 217.323 450.432 153.873 543.48 153.873C558.415 153.656 573.318 155.312 587.841 158.804V239.139C577.268 238.436 568.125 238.436 563.874 238.436C514.583 238.436 493.388 260.991 493.388 306.816V492.272H403.914Z" fill="#6D4AFF"/>
<path d="M614.656 326.648C614.656 228.651 688.666 153.924 791.584 153.924C894.503 153.924 968.5 228.602 968.5 326.648C968.5 424.694 894.49 500.025 791.584 500.025C688.678 500.025 614.656 424.596 614.656 326.648ZM880.406 326.648C880.406 270.951 843.043 231.473 791.597 231.473C740.15 231.473 702.775 270.914 702.775 326.648C702.775 383.048 740.137 421.822 791.597 421.822C843.056 421.822 880.406 382.998 880.406 326.648Z" fill="#6D4AFF"/>
<path d="M1254.66 326.648C1254.66 228.651 1328.67 153.924 1431.58 153.924C1534.5 153.924 1608.5 228.602 1608.5 326.648C1608.5 424.694 1534.49 500.075 1431.58 500.075C1328.68 500.075 1254.66 424.596 1254.66 326.648ZM1520.39 326.648C1520.39 270.951 1483.03 231.473 1431.58 231.473C1380.14 231.473 1342.76 270.914 1342.76 326.648C1342.76 383.048 1380.13 421.822 1431.58 421.822C1483.04 421.822 1520.39 382.998 1520.39 326.648V326.648Z" fill="#6D4AFF"/>
<path d="M1655.02 492.272V304.043C1655.02 216.621 1710.7 153.874 1810.08 153.874C1908.76 153.874 1964.45 216.621 1964.45 304.043V492.272H1875.64V311.093C1875.64 262.458 1853.78 232.138 1810.08 232.138C1766.39 232.138 1744.53 262.458 1744.53 311.093V492.272H1655.02Z" fill="#6D4AFF"/>
<path d="M1227.9 232.126H1131.32V355.5C1131.32 398.502 1146.82 418.247 1191.23 418.247C1195.46 418.247 1206.02 418.247 1219.43 417.545V490.164C1201.1 495.094 1184.92 497.917 1167.26 497.917C1092.55 497.966 1041.83 452.795 1041.83 367.492V232.126H981.883V160.924H996.83C1002.74 160.927 1008.6 159.764 1014.06 157.502C1019.52 155.239 1024.49 151.922 1028.67 147.739C1032.85 143.556 1036.16 138.589 1038.42 133.124C1040.68 127.659 1041.84 121.802 1041.83 115.888V48.8267H1131.34V160.924H1227.9V232.126Z" fill="#6D4AFF"/>
<path d="M1041.47 693.71V616.13H1073.32C1080.75 616.13 1086.93 618.29 1091.86 622.61C1096.79 626.93 1099.25 632.92 1099.25 640.58C1099.25 648.24 1096.75 654.27 1091.74 658.67C1086.81 662.99 1080.67 665.15 1073.31 665.15H1056.02V693.7H1041.46L1041.47 693.71ZM1056.03 651.39H1071.05C1075.15 651.39 1078.41 650.44 1080.83 648.55C1083.26 646.65 1084.47 644 1084.47 640.59C1084.47 637.18 1083.26 634.56 1080.83 632.74C1078.48 630.84 1075.26 629.9 1071.16 629.9H1056.03V651.4V651.39Z" fill="#6D4AFF"/>
<path d="M1108.66 662.2C1108.66 655.45 1110.59 649.91 1114.46 645.59C1118.4 641.27 1123.98 639.11 1131.18 639.11C1133.76 639.11 1136.15 639.38 1138.35 639.91V652.88C1137.21 652.8 1135.92 652.77 1134.48 652.77C1130.54 652.77 1127.65 653.68 1125.83 655.5C1124.01 657.32 1123.1 660.09 1123.1 663.8V693.72H1108.65V662.21L1108.66 662.2Z" fill="#6D4AFF"/>
<path d="M1148.57 693.71V640.25H1162.9V693.71H1148.57ZM1149.25 629.21C1147.51 627.47 1146.63 625.38 1146.63 622.95C1146.63 620.52 1147.5 618.44 1149.25 616.69C1151.07 614.95 1153.23 614.07 1155.73 614.07C1158.23 614.07 1160.24 614.94 1161.99 616.69C1163.81 618.43 1164.72 620.52 1164.72 622.95C1164.72 625.38 1163.81 627.46 1161.99 629.21C1160.25 630.88 1158.16 631.71 1155.73 631.71C1153.3 631.71 1151.07 630.88 1149.25 629.21Z" fill="#6D4AFF"/>
<path d="M1191.16 693.71L1170.8 640.25H1185.93L1195.26 667.55C1196.7 672.33 1197.54 675.21 1197.76 676.2H1197.99C1198.67 673.62 1199.54 670.74 1200.61 667.55L1209.94 640.25H1225.18L1204.82 693.71H1191.17H1191.16Z" fill="#6D4AFF"/>
<path d="M1253.89 694.96C1247.22 694.96 1241.42 692.5 1236.49 687.57C1231.56 682.56 1229.1 675.7 1229.1 666.98C1229.1 658.26 1231.57 651.43 1236.49 646.5C1241.42 641.57 1247.22 639.11 1253.89 639.11C1262.46 639.11 1268.38 642.29 1271.64 648.67L1272.89 640.25H1285.18V693.71H1272.44L1271.53 685.52C1268.27 691.81 1262.39 694.96 1253.9 694.96H1253.89ZM1243.31 666.98C1243.31 671.61 1244.68 675.32 1247.41 678.13C1250.14 680.94 1253.55 682.34 1257.65 682.34C1261.37 682.34 1264.55 681.01 1267.2 678.36C1269.93 675.63 1271.3 671.84 1271.3 666.98C1271.3 662.12 1269.9 658.68 1267.09 655.95C1264.36 653.14 1261.21 651.74 1257.65 651.74C1253.55 651.74 1250.14 653.14 1247.41 655.95C1244.68 658.76 1243.31 662.43 1243.31 666.98V666.98Z" fill="#6D4AFF"/>
<path d="M1324.98 694.96C1316.87 694.96 1310.12 692.31 1304.73 687C1299.42 681.69 1296.77 675.02 1296.77 666.98C1296.77 658.94 1299.42 652.31 1304.73 647.07C1310.11 641.76 1316.86 639.11 1324.98 639.11C1331.88 639.11 1337.72 641.01 1342.5 644.8C1347.28 648.52 1350.2 653.48 1351.26 659.7H1337.27C1335.15 654.39 1331.17 651.74 1325.33 651.74C1321.16 651.74 1317.71 653.18 1314.98 656.06C1312.33 658.87 1311 662.51 1311 666.98C1311 671.45 1312.33 675.13 1314.98 678.01C1317.71 680.89 1321.16 682.33 1325.33 682.33C1331.09 682.33 1335.08 679.64 1337.27 674.25H1351.26C1350.2 680.47 1347.28 685.47 1342.5 689.27C1337.72 693.06 1331.88 694.96 1324.98 694.96Z" fill="#6D4AFF"/>
<path d="M1381.28 679.83C1381.66 677.02 1382.34 674.03 1383.33 670.84L1393.45 640.24H1409.15L1379.91 716.23H1363.87L1373.65 693.82L1352.83 640.24H1368.87L1378.99 670.84C1379.9 673.42 1380.58 676.41 1381.04 679.83H1381.27H1381.28Z" fill="#6D4AFF"/>
<path d="M1478.11 694.96C1469.69 694.96 1463.85 691.81 1460.59 685.52L1459.68 693.71H1446.6V616.13H1460.93V647.87C1464.34 642.03 1470.07 639.11 1478.11 639.11C1484.71 639.11 1490.43 641.57 1495.29 646.5C1500.14 651.43 1502.57 658.25 1502.57 666.98C1502.57 675.71 1500.14 682.56 1495.29 687.57C1490.44 692.5 1484.71 694.96 1478.11 694.96ZM1464.8 655.71C1462.15 658.36 1460.82 662.12 1460.82 666.97C1460.82 671.82 1462.15 675.62 1464.8 678.35C1467.53 681 1470.72 682.33 1474.35 682.33C1478.45 682.33 1481.78 680.96 1484.36 678.23C1487.01 675.42 1488.34 671.67 1488.34 666.97C1488.34 662.27 1487.01 658.55 1484.36 655.82C1481.78 653.09 1478.44 651.72 1474.35 651.72C1470.71 651.72 1467.52 653.05 1464.8 655.7V655.71Z" fill="#6D4AFF"/>
<path d="M1534.66 679.83C1535.04 677.02 1535.72 674.03 1536.71 670.84L1546.83 640.24H1562.53L1533.3 716.23H1517.26L1527.04 693.82L1506.22 640.24H1522.26L1532.38 670.84C1533.29 673.42 1533.97 676.41 1534.43 679.83H1534.66V679.83Z" fill="#6D4AFF"/>
<path d="M1637.98 693.71L1637.07 685.52C1633.81 691.81 1627.97 694.96 1619.55 694.96C1612.95 694.96 1607.23 692.5 1602.37 687.57C1597.52 682.56 1595.09 675.7 1595.09 666.98C1595.09 658.26 1597.52 651.43 1602.37 646.5C1607.22 641.57 1612.95 639.11 1619.55 639.11C1627.59 639.11 1633.31 642.03 1636.73 647.87V616.13H1651.06V693.71H1637.98ZM1609.31 666.98C1609.31 671.68 1610.64 675.44 1613.29 678.24C1615.94 680.97 1619.28 682.34 1623.3 682.34C1626.94 682.34 1630.09 681.01 1632.74 678.36C1635.47 675.63 1636.83 671.84 1636.83 666.98C1636.83 662.12 1635.46 658.37 1632.74 655.72C1630.09 653.07 1626.94 651.74 1623.3 651.74C1619.28 651.74 1615.95 653.14 1613.29 655.95C1610.64 658.68 1609.31 662.36 1609.31 666.98Z" fill="#6D4AFF"/>
<path d="M1690.97 694.96C1682.7 694.96 1675.99 692.34 1670.84 687.11C1665.76 681.8 1663.22 675.09 1663.22 666.98C1663.22 658.87 1665.8 652.31 1670.96 647.07C1676.12 641.76 1682.68 639.11 1690.64 639.11C1698.6 639.11 1704.78 641.76 1709.87 647.07C1714.95 652.38 1717.49 659.01 1717.49 666.98C1717.49 668.88 1717.41 670.51 1717.26 671.87H1676.88C1677.71 675.43 1679.35 678.2 1681.77 680.17C1684.2 682.07 1687.16 683.01 1690.64 683.01C1696.48 683.01 1700.46 681.19 1702.58 677.55H1715.89C1714.3 683.16 1711.19 687.48 1706.56 690.52C1701.93 693.48 1696.74 694.96 1690.98 694.96H1690.97ZM1676.75 661.86H1703.94C1703.48 658.75 1702.01 656.17 1699.5 654.12C1697.07 652.07 1694.11 651.05 1690.63 651.05C1687.15 651.05 1684.07 652.04 1681.64 654.01C1679.21 655.98 1677.58 658.6 1676.75 661.86Z" fill="#6D4AFF"/>
<path d="M1730.32 637.17C1730.32 630.04 1732.1 624.62 1735.67 620.9C1739.31 617.18 1744.09 615.33 1750 615.33C1752.27 615.33 1754.85 615.63 1757.74 616.24V627.73C1756.07 627.58 1754.97 627.5 1754.44 627.5C1747.99 627.5 1744.77 630.57 1744.77 636.71V640.24H1759.9V651.73H1744.77V693.71H1730.32V651.73H1719.97V640.24H1730.32V637.17V637.17Z" fill="#6D4AFF"/>
<path d="M1788.6 694.96C1781.93 694.96 1776.13 692.5 1771.19 687.57C1766.26 682.56 1763.8 675.7 1763.8 666.98C1763.8 658.26 1766.27 651.43 1771.19 646.5C1776.12 641.57 1781.92 639.11 1788.6 639.11C1797.17 639.11 1803.08 642.29 1806.34 648.67L1807.59 640.25H1819.88V693.71H1807.14L1806.23 685.52C1802.97 691.81 1797.09 694.96 1788.6 694.96V694.96ZM1778.02 666.98C1778.02 671.61 1779.39 675.32 1782.11 678.13C1784.84 680.94 1788.25 682.34 1792.35 682.34C1796.07 682.34 1799.25 681.01 1801.9 678.36C1804.63 675.63 1806 671.84 1806 666.98C1806 662.12 1804.6 658.68 1801.79 655.95C1799.06 653.14 1795.91 651.74 1792.35 651.74C1788.25 651.74 1784.84 653.14 1782.11 655.95C1779.38 658.76 1778.02 662.43 1778.02 666.98V666.98Z" fill="#6D4AFF"/>
<path d="M1859.24 694.96C1851.5 694.88 1845.44 692.61 1841.04 688.13C1836.72 683.66 1834.56 677.82 1834.56 670.61V640.24H1849.01V669.59C1849.01 673.53 1849.88 676.6 1851.63 678.8C1853.37 681 1855.91 682.14 1859.25 682.21C1862.82 682.29 1865.43 681.22 1867.1 679.02C1868.84 676.82 1869.72 673.67 1869.72 669.58V640.23H1884.17V670.72C1884.17 677.62 1881.82 683.42 1877.12 688.12C1872.49 692.75 1866.54 695.02 1859.26 694.95L1859.24 694.96Z" fill="#6D4AFF"/>
<path d="M1899.84 693.71V616.13H1914.17V693.71H1899.84Z" fill="#6D4AFF"/>
<path d="M1954.49 694.62C1948.35 694.62 1943.42 692.8 1939.7 689.16C1936.06 685.52 1934.24 680.33 1934.24 673.58V651.74H1924.57V640.25H1934.24V622.16H1948.69V640.25H1964.27V651.74H1948.69V671.65C1948.69 675.21 1949.41 677.79 1950.85 679.39C1952.37 680.98 1954.87 681.78 1958.36 681.78C1959.95 681.78 1961.47 681.74 1962.91 681.67V693.39C1959.8 694.22 1956.99 694.64 1954.49 694.64V694.62Z" fill="#6D4AFF"/>
</g>
</g>
<defs>
<linearGradient id="paint0_linear_11891_190662" x1="68.0243" y1="468.017" x2="68.0243" y2="279.664" gradientUnits="userSpaceOnUse">
<stop stop-color="#6D4BFD"/>
<stop offset="1" stop-color="#1C0554"/>
</linearGradient>
<clipPath id="clip0_11891_190662">
<rect width="1964" height="716" fill="white"/>
</clipPath>
<clipPath id="clip1_11891_190662">
<rect width="1964.27" height="716.23" fill="white"/>
</clipPath>
</defs>
</svg>
