<svg width="396" height="500" viewBox="0 0 396 500" fill="none" xmlns="http://www.w3.org/2000/svg">
<g clip-path="url(#clip0_11394_191931)">
<path d="M0.726564 368.754V498.66H91.8756V374.382C91.8756 362.291 96.6776 350.694 105.226 342.142C113.774 333.591 125.368 328.784 137.46 328.779H230.949C274.548 328.779 316.361 311.459 347.19 280.63C378.019 249.801 395.338 207.988 395.338 164.389C395.313 120.798 377.985 79.0002 347.161 48.1768C316.338 17.3534 274.54 0.0256191 230.949 0H0.80394V162.455H91.8949V85.6565H224.818C245.458 85.6565 265.253 93.8558 279.848 108.451C294.443 123.045 302.642 142.84 302.642 163.48C302.637 184.119 294.436 203.911 279.842 218.504C265.249 233.098 245.457 241.299 224.818 241.304H128.254C111.51 241.291 94.9272 244.579 79.4542 250.978C63.9812 257.378 49.921 266.764 38.0775 278.6C26.234 290.437 16.8392 304.491 10.4303 319.96C4.02144 335.429 0.724018 352.01 0.726564 368.754Z" fill="white"/>
<path d="M137.46 328.779C119.502 328.779 101.72 332.316 85.1298 339.189C68.5393 346.062 53.4651 356.135 40.7679 368.834C28.0708 381.533 17.9996 396.608 11.1292 413.2C4.25886 429.791 0.724024 447.574 0.726564 465.531V498.661H91.8756V374.382C91.8756 362.291 96.6776 350.694 105.226 342.143C113.774 333.591 125.368 328.784 137.46 328.779Z" fill="url(#paint0_linear_11394_191931)"/>
</g>
<defs>
<linearGradient id="paint0_linear_11394_191931" x1="69.0932" y1="474.08" x2="69.0932" y2="202.276" gradientUnits="userSpaceOnUse">
<stop stop-color="white"/>
<stop offset="1" stop-color="#1C0554"/>
</linearGradient>
<clipPath id="clip0_11394_191931">
<rect width="395" height="500" fill="white" transform="translate(0.726562)"/>
</clipPath>
</defs>
</svg>
