<svg width="1104" height="1191" viewBox="0 0 1104 1191" fill="none" xmlns="http://www.w3.org/2000/svg">
<path d="M354.727 714.754V844.66H445.876V720.382C445.876 708.291 450.678 696.694 459.226 688.142C467.774 679.591 479.368 674.784 491.46 674.779H584.949C628.548 674.779 670.361 657.459 701.19 626.63C732.019 595.801 749.338 553.988 749.338 510.389C749.313 466.798 731.985 425 701.161 394.177C670.338 363.353 628.54 346.026 584.949 346H354.804V508.455H445.895V431.657H578.818C599.458 431.657 619.253 439.856 633.848 454.451C648.443 469.045 656.642 488.84 656.642 509.48C656.637 530.119 648.436 549.911 633.842 564.504C619.249 579.098 599.457 587.299 578.818 587.304H482.254C465.51 587.291 448.927 590.579 433.454 596.978C417.981 603.378 403.921 612.764 392.077 624.6C380.234 636.437 370.839 650.491 364.43 665.96C358.021 681.429 354.724 698.01 354.727 714.754Z" fill="white"/>
<path d="M491.46 674.779C473.502 674.779 455.72 678.316 439.13 685.189C422.539 692.062 407.465 702.135 394.768 714.834C382.071 727.533 372 742.608 365.129 759.2C358.259 775.791 354.724 793.574 354.727 811.531V844.661H445.876V720.382C445.876 708.291 450.678 696.694 459.226 688.143C467.774 679.591 479.368 674.784 491.46 674.779Z" fill="url(#paint0_linear_11394_191929)"/>
<defs>
<linearGradient id="paint0_linear_11394_191929" x1="423.093" y1="820.08" x2="423.093" y2="548.276" gradientUnits="userSpaceOnUse">
<stop stop-color="white"/>
<stop offset="1" stop-color="#1C0554"/>
</linearGradient>
</defs>
</svg>
