<svg width="2164" height="2165" viewBox="0 0 2164 2165" fill="none" xmlns="http://www.w3.org/2000/svg">
<path d="M0 601.815C0 269.944 269.035 0.90918 600.906 0.90918H1562.36C1894.23 0.90918 2163.26 269.944 2163.26 601.815V1563.26C2163.26 1895.14 1894.23 2164.17 1562.36 2164.17H600.906C269.035 2164.17 0 1895.14 0 1563.26V601.815Z" fill="white"/>
<path fill-rule="evenodd" clip-rule="evenodd" d="M728.393 1368.46C674.962 1368.46 631.645 1325.15 631.645 1271.72C631.645 1218.28 674.962 1174.97 728.393 1174.97C781.824 1174.97 825.148 1218.28 825.148 1271.72C825.148 1325.15 781.831 1368.46 728.393 1368.46Z" fill="url(#paint0_linear_3766_735)"/>
<path fill-rule="evenodd" clip-rule="evenodd" d="M1730.89 1071.19V1512.59C1730.89 1575.29 1680.05 1626.13 1617.35 1626.13H665.376L667.612 1623.55L861.495 1400.05C862.454 1399.04 863.398 1398.02 864.326 1396.98H864.334C893.658 1364.31 911.686 1319.97 911.686 1271.13C911.686 1170.72 835.486 1089.3 741.509 1089.3H480.723V655.267C480.723 592.562 531.56 541.725 594.266 541.725H1201.43C1493.84 541.725 1730.89 778.776 1730.89 1071.19Z" fill="url(#paint1_linear_3766_735)"/>
<path fill-rule="evenodd" clip-rule="evenodd" d="M1467.03 1116.46V1626.13H665.376L667.612 1623.55L861.495 1400.05C862.454 1399.04 863.398 1398.02 864.326 1396.98H864.334C893.658 1364.31 911.686 1319.97 911.686 1271.13C911.686 1170.72 835.486 1089.3 741.509 1089.3H480.723V720.328H1070.9C1289.68 720.328 1467.03 897.684 1467.03 1116.46Z" fill="#6D4AFF"/>
<path fill-rule="evenodd" clip-rule="evenodd" d="M1467.03 1116.46V1626.13H665.376L667.612 1623.55L861.495 1400.05C862.454 1399.04 863.398 1398.02 864.326 1396.98H864.334C893.658 1364.31 911.686 1319.97 911.686 1271.13C911.686 1170.72 835.486 1089.3 741.509 1089.3H480.723V720.328H1070.9C1289.68 720.328 1467.03 897.684 1467.03 1116.46Z" fill="url(#paint2_linear_3766_735)" fill-opacity="0.9"/>
<path d="M864.163 1396.98L861.495 1400.05L667.612 1623.55L665.376 1626.13H594.266C531.56 1626.13 480.723 1575.29 480.723 1512.59V1450.94L702.034 1452.65L741.509 1452.96C742.958 1452.96 744.408 1452.94 745.849 1452.9C747.261 1452.86 748.666 1452.8 750.063 1452.73C750.107 1452.73 750.145 1452.73 750.189 1452.72C750.888 1452.68 751.586 1452.64 752.285 1452.59C796.174 1449.61 835.545 1428.85 864.156 1396.98H864.163Z" fill="#FFBB93"/>
<defs>
<linearGradient id="paint0_linear_3766_735" x1="665.395" y1="1340.02" x2="802.064" y2="1219.67" gradientUnits="userSpaceOnUse">
<stop stop-color="#EA777D"/>
<stop offset="0.479" stop-color="#DC6E8E"/>
<stop offset="0.764" stop-color="#D2699A"/>
<stop offset="1" stop-color="#C864A6"/>
</linearGradient>
<linearGradient id="paint1_linear_3766_735" x1="324.098" y1="667.927" x2="1871.43" y2="1269.04" gradientUnits="userSpaceOnUse">
<stop stop-color="#957AFD"/>
<stop offset="1" stop-color="#FFC6C6"/>
</linearGradient>
<linearGradient id="paint2_linear_3766_735" x1="1411.23" y1="857.77" x2="940.845" y2="1827.24" gradientUnits="userSpaceOnUse">
<stop offset="0.149916" stop-color="#FA528E" stop-opacity="0"/>
<stop offset="0.720842" stop-color="#FF8065"/>
<stop offset="1" stop-color="#FFA51F"/>
</linearGradient>
</defs>
</svg>
