<svg width="4522" height="832" viewBox="0 0 4522 832" fill="none" xmlns="http://www.w3.org/2000/svg">
<g clip-path="url(#clip0_11864_192207)">
<path d="M3926.09 183.562H3711.03V649.868H3796.22V533.789C3796.22 522.513 3800.67 511.616 3808.72 503.656C3816.67 495.696 3827.55 491.148 3838.82 491.148H3926.09C3966.79 491.148 4005.78 474.944 4034.46 446.232C4063.24 417.426 4079.33 378.385 4079.33 337.734C4079.43 317.55 4075.54 297.461 4067.88 278.794C4060.21 260.127 4048.95 243.07 4034.65 228.761C4020.36 214.453 4003.51 203.082 3984.87 195.312C3966.31 187.542 3946.34 183.562 3926.09 183.562ZM3993.2 336.502C3993.2 346.072 3991.3 355.548 3987.61 364.361C3983.92 373.173 3978.62 381.228 3971.8 387.956C3965.08 394.684 3957.04 400.085 3948.24 403.686C3939.43 407.381 3929.97 409.182 3920.41 409.182H3795.84V263.917H3920.41C3929.97 263.917 3939.43 265.812 3948.33 269.508C3957.13 273.203 3965.18 278.604 3971.9 285.332C3978.62 292.155 3984.01 300.209 3987.61 309.022C3991.21 317.929 3993.1 327.405 3993.01 336.976L3993.2 336.502Z" fill="white"/>
<path d="M3411.83 648.164L3240.23 182.236H3337.15L3450.07 515.691C3454.52 527.631 3457.74 539.949 3459.63 552.552H3460.58C3462 539.855 3465.22 527.441 3470.14 515.691L3583.44 182.236H3681.03L3508.57 648.164H3411.83Z" fill="white"/>
<path d="M4111.23 648.155V182.133H4185.91L4405.7 471.146C4413.65 481.096 4420.46 491.804 4426.24 503.175H4427.56C4426.05 489.15 4425.38 475.031 4425.48 460.912V182.133H4513.51V648.06H4438.82L4218.38 359.047C4210.61 349.002 4203.8 338.295 4197.93 327.019H4197.17C4198.4 341.043 4198.88 355.162 4198.59 369.281V648.06H4111.23V648.155Z" fill="white"/>
<path d="M1248.02 522.643V642.57H1331.76V527.882C1331.76 516.75 1336.13 505.992 1344.04 498.134C1351.86 490.276 1362.56 485.786 1373.63 485.786H1459.51C1499.52 485.786 1537.94 469.789 1566.23 441.258C1594.51 412.819 1610.42 374.184 1610.42 333.959C1610.42 293.734 1594.51 255.099 1566.23 226.568C1537.94 198.129 1499.52 182.133 1459.42 182.133H1248.02V331.995H1331.76V261.367H1453.83C1472.81 261.367 1490.96 268.944 1504.36 282.415C1517.75 295.886 1525.29 314.127 1525.29 333.211C1525.29 352.294 1517.75 370.536 1504.36 384.007C1490.96 397.478 1472.81 405.055 1453.83 405.055H1365.16C1349.81 405.055 1334.55 408.048 1320.41 414.035C1306.17 419.929 1293.34 428.629 1282.45 439.574C1271.56 450.519 1263 463.522 1257.05 477.741C1251.09 491.866 1248.02 507.208 1248.02 522.643Z" fill="white"/>
<path d="M1623.36 642.57V459.873C1623.36 385.316 1666.62 326.008 1753.24 326.008C1767.11 325.82 1780.97 327.317 1794.55 330.591V405.71C1784.69 405.055 1776.23 405.055 1772.22 405.055C1726.35 405.055 1706.63 426.196 1706.63 469.041V642.57H1623.36Z" fill="white"/>
<path d="M1819.49 487.658C1819.49 395.982 1888.34 326.102 1984.17 326.102C2080.01 326.102 2148.86 395.982 2148.86 487.658C2148.86 579.334 2080.01 649.868 1984.17 649.868C1888.34 649.868 1819.49 579.24 1819.49 487.658ZM2066.79 487.658C2066.79 435.552 2032 398.601 1984.17 398.601C1936.26 398.601 1901.55 435.459 1901.55 487.658C1901.55 540.418 1936.35 576.715 1984.17 576.715C2032.09 576.715 2066.79 540.325 2066.79 487.658Z" fill="white"/>
<path d="M2415.15 487.658C2415.15 395.982 2484 326.102 2579.83 326.102C2675.57 326.102 2744.42 395.982 2744.42 487.658C2744.42 579.334 2675.57 649.868 2579.83 649.868C2484 649.868 2415.15 579.24 2415.15 487.658ZM2662.36 487.658C2662.36 435.552 2627.56 398.601 2579.74 398.601C2531.91 398.601 2497.12 435.459 2497.12 487.658C2497.12 540.418 2531.91 576.715 2579.74 576.715C2627.56 576.715 2662.36 540.325 2662.36 487.658Z" fill="white"/>
<path d="M2787.69 642.572V466.516C2787.69 384.756 2839.51 326.009 2932 326.009C3023.83 326.009 3075.66 384.663 3075.66 466.516V642.572H2993.03V473.065C2993.03 427.601 2972.66 399.163 2932 399.163C2891.34 399.163 2870.96 427.507 2870.96 473.065V642.572H2787.69Z" fill="white"/>
<path d="M2390.21 399.252H2300.33V514.688C2300.33 554.914 2314.75 573.342 2356.06 573.342C2359.97 573.342 2369.83 573.342 2382.3 572.687V640.602C2365.28 645.186 2350.2 647.899 2333.73 647.899C2264.23 647.899 2216.97 605.71 2216.97 525.914V399.252H2161.14V332.646H2175.1C2180.59 332.646 2186.08 331.524 2191.1 329.466C2196.22 327.314 2200.78 324.227 2204.68 320.298C2208.59 316.369 2211.66 311.785 2213.8 306.64C2215.94 301.495 2216.97 296.069 2216.97 290.55V227.78H2300.24V332.646H2390.12V399.252H2390.21Z" fill="white"/>
<g clip-path="url(#clip1_11864_192207)">
<path fill-rule="evenodd" clip-rule="evenodd" d="M369.525 782.589C404.419 845.319 494.028 848.716 533.645 788.811L903.047 230.23C942.221 170.994 904.74 91.5754 833.801 83.5038L107.732 0.890363C30.3225 -7.91746 -24.7938 73.7063 12.8576 141.394L369.525 782.589Z" fill="url(#paint0_linear_11864_192207)"/>
<path d="M390.354 724.076L423.138 675.178L672.16 299.017C693.933 266.129 673.152 222.01 633.759 217.487L15.75 146.535L335.896 722.078C347.58 742.677 377.123 743.81 390.354 724.076Z" fill="url(#paint1_linear_11864_192207)"/>
</g>
</g>
<defs>
<linearGradient id="paint0_linear_11864_192207" x1="830.996" y1="782.546" x2="240.215" y2="-236.268" gradientUnits="userSpaceOnUse">
<stop offset="0.0660125" stop-color="#8EFFEE"/>
<stop offset="0.4499" stop-color="#C9C7FF"/>
<stop offset="1" stop-color="#7341FF"/>
</linearGradient>
<linearGradient id="paint1_linear_11864_192207" x1="885.037" y1="-909.444" x2="57.7415" y2="860.079" gradientUnits="userSpaceOnUse">
<stop offset="0.4799" stop-color="#6D4AFF"/>
<stop offset="0.9944" stop-color="#00F0C3"/>
</linearGradient>
<clipPath id="clip0_11864_192207">
<rect width="4521" height="832" fill="white" transform="translate(0.726562)"/>
</clipPath>
<clipPath id="clip1_11864_192207">
<rect width="918.147" height="831.529" fill="white" transform="translate(0.726562 0.234375)"/>
</clipPath>
</defs>
</svg>
